<?xml version="1.0" encoding="UTF-8"?>
<svg id="Layer_1" xmlns="http://www.w3.org/2000/svg" version="1.1" viewBox="0 0 1062.4 568.2">
  <!-- Generator: Adobe Illustrator 29.0.1, SVG Export Plug-In . SVG Version: 2.1.0 Build 192)  -->
  <defs>
    <style>
      .st0 {
        fill: #987f00;
      }

      .st1 {
        fill: #666;
      }
    </style>
  </defs>
  <path class="st0" d="M577.9,418.1h.7c0-.1.7-.2.7-.2l-.6-3.3-.6-3.1-1.3.2.6,3.1.6,3.3ZM983.8,401.2l-3.4-.4.2-1.4,3.4.4-.2,1.5ZM972.3,393.4l-3.2-.4.3-2.8,3.2.4-.3,2.8ZM929.1,386.8l-2.3-.3.6-4.9,2.3.3-.6,4.9ZM915.2,384.9l-2.3-.3.6-4.7,2.3.3-.6,4.7ZM923.9,339.4l5.7.8-.4,2.7-5.7-.8.4-2.7ZM925.8,326.9l5.3.7.4-2.7-5.3-.7-.4,2.7ZM693.7,324l-.7,5-5.6-.9.7-5,5.7.9ZM694.4,319.3l-.7,4.2-5.7-.9.7-4.2,5.7.9ZM566.8,401.4l-6.5,1.3.6,3.6,6.5-1.3-.6-3.6ZM572.2,367.4l4.8-1,.7,3.7-4.8,1-.7-3.7ZM456.6,427.4l4.2-.9.6,3.1-4.2.9-.6-3.1ZM471.8,353.7l-.3-1.5-3,.6.3,1.5,3-.6ZM169.3,376l-5.9-.2v3c0,0,5.9.2,5.9.2v-3ZM599.9,124.1l4.3.6-.4,2.4-4.3-.6.4-2.4ZM539.8,108.4l.4-2.5-4.2-.6-.4,2.5,4.2.6ZM545.1,122.4l-8-1.1-.3,1.9,8,1.1.3-1.9ZM551.2,79.7l-7.9-1.1-.3,1.9,7.9,1.1.3-1.9ZM604.8,97.3l-7.2-1-.2,1.7,7.2,1,.2-1.7ZM594.3,282.2l5.1-.9.8,4.4-5.1.9-.8-4.4ZM443.6,271.6l-3.5-.2-.3,4.7,3.5.2.3-4.7ZM947.1,317.9l-.7,4.6-2.6-.4.7-4.6,2.6.4ZM714.6,298.9l-1.5-.2-.5,3.3,1.5.2.5-3.3ZM448.3,408.3l4.7-1-.3-1.4-4.7,1,.3,1.4Z"/>
  <g>
    <path class="st1" d="M446.5,432.8l2.4-.5,3.2-.6v-.3c0,0-.2-.7-.2-.7h0s0,0,0,0v.7c.1,0,.2.3.2.3l2.5-.5,3-.6-.2-.8-.2-.8h.4c0,0,.4-.2.4-.2h.7c0-.1.7-.3.7-.3l-.2-.8-.2-.8-2,.4-2.6.5-.2-.9-.2-.9h0s0,0,0,0l.2.9.2.9,3.3-.7,2.7-.5-2-9.6-2-9.6-2.7.5-3.3.7v.7c.1,0,.3.7.3.7h0s0,0,0,0v-.7c-.1,0-.3-.7-.3-.7h-.6c0,.1,0-.3,0-.3l-1.4.3v.4c0,0-.9.2-.9.2l.4,2.2.5,2.7h0s0,0,0,0l-.2-.9-2.9.6-2.7.5.4,2,.6,3,2.7-.5,2.9-.6-.3-1.3-.3-1.3h0s0,0,0,0l1.6,7.9,1.1,5.2h0s0,0,0,0l-.8-3.8-1.3-6.4-2.9.6-2.7.5,1.6,7.9,1.1,5.6ZM453.5,422.6l-1-5.2-1-5.1h0s0,0,0,0l1,5.2,1,5.2h0s0,0,0,0ZM563.9,423.9h.8c0-.1-1.6-8.7-1.6-8.7l10.3-1.9-.4-2.1h.6c0-.1.2,1.1.2,1.1l10.5-1.9,1.8,9.5h.6c0-.1-3.1-17.2-3.1-17.2l-2.1.4-1-5.2,2.2-.4-5.1-27.4-3.8.8-.7-3.7,3.8-.8-1-5.6-11.1,2.1,2.4,13.2h-.6c0,.1-2.4-13.1-2.4-13.1l-11.1,2,6.9,37.7,4.2-.8.6,3.4-4.2.8,3.2,17.7ZM572.8,409.8l-4.5-24.5-1.7.3-.8-4.6,1.7-.3-.2-1.4h.6c0-.1,3.7,20.2,3.7,20.2l6.9-1.3.9,5.1-6.9,1.3,1,5.1h-.7ZM558,387.2l-.8-4.5,6.4-1.1.8,4.5-6.4,1.1ZM938.8,357.1l.9-6.5.8-5.8-2.9-.4-2.9-.4-.2,1.4-.3,2h0s0,0,0,0l.3-2,.2-1.4-6.6-.9v-.9c.1,0,.2-.8.2-.8h-.5c0,0-.8-.2-.8-.2v.8c-.1,0-.2.9-.2.9l-3.8-.5-.5,3.9-.7,5.2h.6c0,0,.6.2.6.2h0c0,.1-.6,0-.6,0h-.6c0,0-.2,1.7-.2,1.7l-.2,1.2,5.8.8,5.9.8.2-1.8.2-1.2-4.5-.6-4.4-.6h0c0,0,0-.1,0-.1l4.4.6,4.5.6.2-1.4.3-2.1-2.7-.4-1.3-.2v.7c0,0-.2.7-.2.7h0s0,0,0,0v-.7c.1,0,.2-.7.2-.7l1.3.2,2.7.4v-.2s0-.2,0-.2h0s0,0,0,0l-.6,4.2-.4,3,2.9.4,2.9.4ZM930,326.3v-.9c.1,0,.2-.9.2-.9h.3c0,0,.3-2,.3-2l.3-2.2,4.2.6,3.1.4h0c0,0,0,.1,0,.1l-3-.4-4.1-.6-.3,2.2-.3,2,5.3.7,4.2.6.3-2,.3-2.1h-.5c0,0-.5-.2-.5-.2h0c0,0,0-.1,0-.1h.6c0,0,.6.2.6.2v1c-.1,0-.2.8-.2.8h.3s.3,0,.3,0h0c0,0,0,.1,0,.1h-.3s-.3,0-.3,0l-.2,1.1-.2,1.2,1.3.2,1.3.2.2-1.2.2-1.1h-.3s-.3,0-.3,0h0c0,0,0-.1,0-.1h.4c0,0,.4.1.4.1h0c0,0,1.6.3,1.6.3h.9c0,.1.2-1.1.2-1.1l.2-1.2-1.2-.2-1.2-.2v.3s0,.3,0,.3h-.2s0-.5,0-.5v-.4c0,0,.2-.7.2-.7v-.7c0,0-3.6-.5-3.6-.5l-3.8-.5h0c0,0,0-.1,0-.1l3.8.5,3.7.5.5-3.6.2-1.6-8.7-1.2-8.7-1.2-.3,2.4-.4,2.9,3.2.4,4.2.6h0c0,0,0,.1,0,.1l-2.4-.3-1.9-.3-.3,1.9-.3,1.9h0s0,0,0,0l.3-1.9.3-1.9-1.7-.2-1.2-.2-.4,3.3-.5,3.3,1.2.2,1.7.2v-.7c.1,0,.2-.7.2-.7h0s0,0,0,0v.7c0,0-.2.7-.2.7h.5c0,0-.1.9-.1.9v.9c-.1,0,.6.1.6.1h.5ZM444,286.3l.4-4.7.4-4.7h1.1c0,0,2.2.2,2.2.2l.3-3.9.3-3.9v-.5s0-.5,0-.5l-2.5-.2h-1.3c0-.1,0,.2,0,.2v.3s-.9,0-.9,0h-.9c0,0,0-.4,0-.4v-.3s-3.1-.2-3.1-.2l-3.8-.3v.3s0,.3,0,.3h-.3s-.3,0-.3,0v1.3c0,0-.2,1.3-.2,1.3l-.2,2.5-.2,2.5h.3s.2,0,.2,0v.9c0,0-.1.9-.1.9h-.2s-.3,0-.3,0l-.2,3-.2,3v.8c0,0-.1.8-.1.8h.4s.2,0,.2,0v.3s0,.3,0,.3l3.8.3,3.2.2v-.3s0-.3,0-.3h.9c0,0,.9.1.9.1v.3s0,.3,0,.3h.3s.3,0,.3,0h0ZM443.2,276.3l-3.5-.2.3-4.7,3.5.2-.3,4.7ZM542,296.8l43.4-7.9-.4-2.3,2.5-.5.4,2.3,7.2-1.3-.9-4.9,5.9-1.1-1.2-6.3-13.2,2.4,1.1,5.9-2.6.5-1.1-5.9-43.2,7.9v.8c.1,0,28.4-5.2,28.4-5.2l1.8,9.8-28.4,5.2v.7ZM572.7,290.5l-1.8-9.8,2.6-.5,1.8,9.8-2.6.5ZM540.1,285l58.8-10.7v-.6c-.1,0-8.2,1.5-8.2,1.5l-1.8-9.9,8.1-1.5v-.5c0,0-59.1,10.7-59.1,10.7v.6c.1,0,35.9-6.5,35.9-6.5l1.8,9.8-35.7,6.5v.6ZM580.7,277l-1.8-9.9,2.4-.4,1.8,9.9-2.4.4Z"/>
    <path class="st1" d="M165.3,363.8v1.2s0,0,0,0h0s0,.3,0,.3v.3s0,.1,0,.1h0c0,.1,0,.1,0,.1h0s0,2.1,0,2.1v2.1c0,0,0,0,0,0h0s0,.4,0,.4v.4s0,0,0,0h0s0,2,0,2v2c0,0-.7,0-.7,0h-.7s.2-6,.2-6l.2-6h.7s.7,0,.7,0v1.2Z"/>
    <path class="st1" d="M169.6,368.8h0s0,3,0,3v3c0,0-2.2,0-2.2,0h-2.1c0,0,0-2.1,0-2.1v-2c0,0,0,0,0,0h0s0-.4,0-.4v-.4s0,0,0,0h0s0-.1,0-.1h0c0-.1,0-.6,0-.6v-.5s2.1,0,2.1,0h2.1c0,0,0,0,0,0ZM169.7,365.7v3c0,0-2.2,0-2.2,0h-2.1c0,0,0-1.5,0-1.5v-1.4s0,0,0,0h0s0,0,0,0h0s0,0,0,0h0c0,0,0,0,0,0v-.2s0,0,0,0h.1c0,0,.1.1.1.1h0c0,0,0-.1,0-.1h0c0,0,0-.1,0-.1h0s.1,0,.1,0h.1c0,0-.1-.1-.1-.1h-.1,0c0,0,0-.2,0-.2h0c0-.1,0-.1,0-.1h0s0,0,0,0h0s0,0,0,0h0s0,0,0,0h0s0-.2,0-.2v-.2s0,0,0,0h0c0,0,0,0,0,0h0s0,0,0,0h0s0-1.1,0-1.1v-1.1s2.2,0,2.2,0h2.1c0,0,0,3,0,3Z"/>
    <path class="st1" d="M165,378.9v-2.9c0,0,4.7,0,4.7,0v-1.2s-4.8-.1-4.8-.1v-.2s-1.3,0-1.3,0v.2s-.2,0-.2,0l.3-12.4,6.2.2h0l.2-5.8-10.8-.3v2.9c-.1,0,2.7.1,2.7.1l-.5,19.4h3.4Z"/>
    <path class="st1" d="M540.3,116.5l-.2,1.5-3-.4-3-.4.2-1.5.2-1.5,3,.4,3,.4-.2,1.5ZM549.5,117.8l-.2,1.5-3-.4-3-.4.2-1.5.2-1.5,3,.4,3,.4-.2,1.5ZM558.8,95.6l-.4,3-1.5-.2-1.5-.2.4-3,.4-3,1.5.2,1.5.2-.4,3ZM561.9,96l-.4,3-1.5-.2-1.5-.2.4-3,.4-3,1.5.2,1.5.2-.4,3ZM545,82.7l-.2,1.5-3-.4-3-.4.2-1.5.2-1.5,3,.4,3,.4-.2,1.5Z"/>
    <path class="st1" d="M547.6,81.6h.1s.6,0,.6,0l-.4,3.1-.4,3.1h.6c0,0,.6.2.6.2h0s0,0,0,0h-.5c0,0-.6-.2-.6-.2l.4-3,.4-3,1.5.2,1.5.2-.4,3-.4,3h-.5c0,0-.5-.1-.5-.1h0s0,0,0,0h.2c0,0,.2-.1.2-.1h0s0,0,0,0h-.2c0,0-.2-.1-.2-.1h0s0-.2,0-.2v-.2c0,0,0,0,0,0h0s-.2,0-.2,0h-.2c0,0,0,0,0,0h0s0,0,0,0h0c0,0,0-.2,0-.2h0c0-.1,0,0,0,0v.2c0,0-.1,0-.1,0h0s-.1-.1-.1-.1h-.1c0-.1,0-.1,0-.1h0s0,.2,0,.2v.2s0,0,0,0h0s-.2,0-.2,0h-.2s0,0,0,0h0s.2.1.2.1h.2c0,.1.4.2.4.2h.4c0,0,0,0,0,0h0s.6.1.6.1h.6c0,0,.6.2.6.2h.6c0,0,0,0,0,0h0s-.5-.1-.5-.1h-.5c0,0,.4-3.1.4-3.1l.4-3,1.5.2,1.5.2-.4,3-.4,3h-.5c0,0-.5-.2-.5-.2h0s0,0,0,0h.6c0,0,.6.2.6.2h.6c0,0,.6.1.6.1h0s0,0,0,0h-.5c0,0-.5-.2-.5-.2l.4-3,.4-3,1.5.2,1.5.2-.4,3-.4,3h-.5c0,0-.5-.2-.5-.2h0s0,0,0,0h.6c0,0,.6.2.6.2h.6c0,0,.6.2.6.2h0s0,0,0,0h-.5c0,0-.5-.2-.5-.2l.4-3,.4-3,1.5.2,1.5.2-.4,3-.4,3h-.5c0,0-.5-.2-.5-.2h0s0,0,0,0h.6c0,0,.6.2.6.2h.6c0,0,.6.1.6.1h0s0,0,0,0h-.5c0,0-.5-.2-.5-.2l.4-3,.4-3,1.5.2,1.5.2-.4,3-.4,3h-.5c0,0-.6-.2-.6-.2h0s0,0,0,0h.6c0,0,.6.2.6.2h.6c0,0,.6.1.6.1h0s0,0,0,0h-.5c0,0-.5-.2-.5-.2l.4-3,.4-3,1.5.2,1.5.2-.4,3-.4,3h-.5c0,0-.5-.2-.5-.2h0s0,0,0,0h.5c0,0,.6.2.6.2l-.2,1.5-.2,1.5h-.5c0,0-.5-.1-.5-.1h0s0,0,0,0h.6c0,0,.6.2.6.2l-.4,3-.4,3-1.5-.2-1.5-.2.4-3,.4-3h.5c0,0,.5.2.5.2h0s0,0,0,0l-4.2-.6-4.2-.6h0s0,0,0,0h.5c0,0,.5.2.5.2l-.4,3-.4,3-1.5-.2-1.5-.2.4-3,.4-3h.5c0,0,.6.2.6.2h0s0,0,0,0h-.6c0,0-.6-.2-.6-.2l-.4,3.1-.4,3.1-3.1-.4-3.1-.4v.6c0,0-.2.6-.2.6h0s0,0,0,0v-.5c0,0,.2-.5.2-.5l3,.4,3,.4-.2,1.5-.2,1.5-3-.4-3-.4v-.5c0,0,.2-.6.2-.6h0s0,0,0,0l-.6,4.2-.6,4.2h0s0,0,0,0v-.5c0,0,.2-.5.2-.5l3,.4,3,.4-.2,1.5-.2,1.5-3-.4-3-.4v-.5c0,0,.1-.5.1-.5h0s0,0,0,0l-.2,1.1-.2,1.1h0s0,0,0,0v-.5c0,0,.2-.5.2-.5l3,.4,3,.4-.2,1.5-.2,1.5-3-.4-3-.4v-.5c0,0,.1-.5.1-.5h0s0,0,0,0l-.2,1.1-.2,1.1h0s0,0,0,0v-.5c0,0,.2-.5.2-.5l3,.4,3,.4-.2,1.5-.2,1.5-3-.4-3-.4v-.5c0,0,.2-.5.2-.5h0s0,0,0,0l-.4,2.7-.4,2.7h0s0,0,0,0v-.5c0,0,.2-.5.2-.5l3,.4,3,.4-.2,1.5-.2,1.5-3-.4-3-.4v-.5c0,0,.1-.5.1-.5h0s0,0,0,0v.5c0,0-.2.5-.2.5h-.6c0,0-.4-.1-.4-.1v.3s-1.3-.2-1.3-.2v-.3s-.2,0-.2,0h-.5c0,0,0-.6,0-.6v-.6c0,0,0,0,0,0v.5c0,0-.2.5-.2.5l-3-.4-3-.4.2-1.5.2-1.5,3,.4,3,.4v.5c0,0-.1.5-.1.5h0s0,0,0,0v-.6c0,0,.2-.6.2-.6l.3-2.1.3-2.1h0s0,0,0,0v.5c0,0-.2.5-.2.5l-3-.4-3-.4h0s0,0,0,0l.2-1.5.2-1.5,3,.4,3,.4v.5c0,0-.2.6-.2.6h0s0,0,0,0v-.6c0,0,.2-.6.2-.6v-.6c0,0,.1-.6.1-.6h0s0,0,0,0v.5c0,0-.2.5-.2.5l-3-.4-3-.4.2-1.5.2-1.5,1.3.2,1.3.2,1.8.2,1.8.2v.6c0,0-.1.6-.1.6h0s0,0,0,0v-.6c0,0,.2-.6.2-.6l-1.2-.2-1.2-.2v-.8c.1,0,.2-.8.2-.8h-.6c0,0-.6-.2-.6-.2v-.7c0,0,.2-.7.2-.7l1.8.3,1.8.3.4-3.1.4-3.1v-.6c0,0,.2-.6.2-.6h0s0,0,0,0v.5c0,0-.2.5-.2.5h-.4s-.4,0-.4,0h0s0,0,0,0h.4s.4,0,.4,0l-.4,3-.4,3-3-.4-3-.4.2-1.5.2-1.5,2.3.3,2.3.3h0s0,0,0,0l-2.3-.3-2.3-.3.2-1.5.2-1.5,2.3.3,2.3.3h0s0,0,0,0l-2.3-.3-2.3-.3.2-1.5.2-1.5,3,.4,3,.4v.5c0,0-.2.5-.2.5h0s0,0,0,0v-.6c0,0,.2-.6.2-.6l.2-1.2.2-1.2h0s0,0,0,0l-.2,1.1-.2,1.1-3-.4-3-.4.4-3,.4-3,3,.4,3,.4-.2,1.1-.2,1.1h0s0,0,0,0l.2-1.1.2-1.1.2-1.6.2-1.6v-.6c0,0,.2-.5.2-.5h0s0,0,0,0v.6c0,0-.2.5-.2.5l-3-.4-3-.4.2-1.5.2-1.5,3,.4,3,.4v.5c0,0-.2.5-.2.5h0s0,0,0,0v-.6c0,0,.2-.6.2-.6l.2-1.5.2-1.5h.6c0,0,.1,0,.1,0v-.4c0,0,1.7.2,1.7.2v.4ZM547,90.8v.3s.2,0,.2,0h.3s0-.2,0-.2v-.3s-.2,0-.2,0h-.3s0,.2,0,.2Z"/>
    <path class="st1" d="M604,129l-.2,1.5-3-.4-3-.4.2-1.5.2-1.5,3,.4,3,.4-.2,1.5Z"/>
    <path class="st1" d="M601.1,98.5v.3s.1,0,.1,0h.5c0,0,0,.6,0,.6v.6c0,0,0,0,0,0h0s0-.5,0-.5v-.6c0,0,3.1.4,3.1.4l3,.4-.2,1.5-.2,1.5-3-.4-3-.4v-.6c0,0,.1-.6.1-.6h0s0,0,0,0l-.2,1.2-.2,1.2h0s0,0,0,0v-.6c0,0,.1-.6.1-.6l3,.4,3,.4-.2,1.5-.2,1.5-3-.4-3-.4v-.5c0,0,.1-.5.1-.5h0s0,0,0,0l-.2,1.2-.2,1.2h0s0,0,0,0v-.6c0,0,.2-.6.2-.6l3,.4,3,.4-.2,1.5-.2,1.5-3-.4-3-.4v-.5c0,0,.1-.5.1-.5h0s0,0,0,0l-.2,1.2-.2,1.2h0s0,0,0,0v-.6c0,0,.2-.6.2-.6l3,.4,3,.4-.2,1.5-.2,1.5-3-.4-3-.4v-.6c0,0,.2-.6.2-.6h0s0,0,0,0l-.2,1.2-.2,1.2h0s0,0,0,0v-.6c0,0,.2-.6.2-.6l3,.4,3,.4-.2,1.5-.2,1.5-3-.4-3-.4v-.6c0,0,.1-.6.1-.6h0s0,0,0,0l-.2,1.2-.2,1.2h0s0,0,0,0v-.5c0,0,.2-.5.2-.5l3,.4,3,.4-.2,1.5-.2,1.5-3-.4-3-.4v-.6c0,0,.1-.6.1-.6h0s0,0,0,0l-.5,3.7-.5,3.7,1.9.3,1.8.3v.7c0,0-.2.7-.2.7h-.6c0,0-.6-.2-.6-.2v.8c-.1,0-.2.8-.2.8l-1.2-.2-1.2-.2-.3,2.1-.3,2.1h0s0,0,0,0v-.6c0,0,.2-.6.2-.6l3,.4,3,.4-.2,1.5-.2,1.5-3-.4-3-.4v-.6c0,0,.2-.6.2-.6h0s0,0,0,0l-.2,1.2-.2,1.2h0s0,0,0,0v-.5c0,0,.2-.5.2-.5l3,.4,3,.4-.2,1.5-.2,1.5-3-.4-3-.4v-.6c0,0,.2-.6.2-.6h0s0,0,0,0l-.2,1.2-.2,1.2h0s0,0,0,0v-.5c0,0,.1-.5.1-.5l3,.4,3,.4-.2,1.5-.2,1.5-3-.4-3-.4v-.6c0,0,.2-.6.2-.6h0s0,0,0,0v.6c0,0-.1.6-.1.6l-1.5-.2-1.5-.2v-.6c0,0,.1-.6.1-.6h0s0,0,0,0v.6c0,0-.2.6-.2.6l-3-.4-3-.4.2-1.5.2-1.5,3,.4,3,.4v.5c0,0-.1.5-.1.5h0s0,0,0,0l.2-1.2.2-1.2h0s0,0,0,0v.6c0,0-.2.6-.2.6l-3-.4-3-.4.2-1.5.2-1.5,3,.4,3,.4v.5c0,0-.1.5-.1.5h0s0,0,0,0l.2-1.2.2-1.2h0s0,0,0,0v.6c0,0-.2.6-.2.6l-3-.4-3-.4.2-1.5.2-1.5,3,.4,3,.4v.6c0,0-.1.6-.1.6h0s0,0,0,0l.2-1.2.2-1.2h0s0,0,0,0v.6c0,0-.2.6-.2.6l-3-.4-3-.4.2-1.5.2-1.5,3,.4,3,.4v.6c0,0-.2.6-.2.6h0s0,0,0,0l.2-1.2.2-1.2h0s0,0,0,0v.5c0,0-.2.5-.2.5l-3-.4-3-.4.2-1.5.2-1.5,3,.4,3,.4v.6c0,0-.2.6-.2.6h0s0,0,0,0l.2-1.2.2-1.2h0s0,0,0,0v.5c0,0-.1.5-.1.5l-3-.4-3-.4.2-1.5.2-1.5,3,.4,3,.4v.6c0,0-.2.6-.2.6h0s0,0,0,0l.2-1.2.2-1.2h0s0,0,0,0v.6c0,0-.1.6-.1.6l-3-.4-3-.4.2-1.5.2-1.5,3,.4,3,.4v.5c0,0-.1.5-.1.5h0s0,0,0,0l.2-1.2.2-1.2h0s0,0,0,0v.6c0,0-.1.6-.1.6l-3-.4-3-.4.2-1.5.2-1.5,3,.4,3,.4v.5c0,0-.1.5-.1.5h0s0,0,0,0l.2-1.7.2-1.7h0s0,0,0,0l-.2,1.1-.2,1.1-3-.4-3-.4.4-3,.4-3,3,.4,3,.4-.2,1.1-.2,1.1h0s0,0,0,0l.2-1.7.2-1.7h0s0,0,0,0v.5c0,0-.2.5-.2.5l-3-.4-3-.4.2-1.5.2-1.5,3,.4,3,.4v.6c0,0-.2.6-.2.6h0s0,0,0,0l.2-1.2.2-1.2h0s0,0,0,0v.5c0,0-.1.5-.1.5l-3-.4-3-.4.2-1.5.2-1.5,3,.4,3,.4v.6c0,0-.2.6-.2.6h0s0,0,0,0l.2-1.2.2-1.2h0s0,0,0,0v.6c0,0-.1.6-.1.6l-3-.4-3-.4.2-1.5.2-1.5,3,.4,3,.4v.6c0,0-.1.5-.1.5h0s0,0,0,0v-.6c0,0,.2-.6.2-.6h.6c0,0,.2.1.2.1v-.3s1.6.2,1.6.2ZM472.2,354l-.5-2.2,11.5-2.4.5,2.2-11.5,2.4ZM692,328.9l.8-5,6.4,1-1.2,7.8-4.2-.6v.5c0,0,4.6.7,4.6.7l1.3-8.6,1.4.2-1.5,10.2-3.3-.5-3.9,25.5-9.6-1.5,4.1-27.1,4.3.7v-.5c0,0-4.2-.7-4.2-.7l.4-2.8,4.7.7ZM693.5,319.2l-.7,4.3,3.7.6.2-1h.5c0,0-.2,1.1-.2,1.1l2.4.4.9-6-6.7-1-.2,1.4,4.3.7-.3,1.8h-.5c0,0,.2-1.6.2-1.6l-3.7-.6ZM721.1,297.9l-.7,4.6-4-.6.3-2.1h-.3s-.6,3.9-.6,3.9h.3s.2-1.4.2-1.4l3.9.6-.6,3.6-3.9-.6v-.5c0,0-.2,0-.2,0v.9c-.1,0,4.1.7,4.1.7l-.2,1.2-6.1-1,1.2-8-1.6-.3.2-1.3,1.6.3v-.6c.1,0,2,.3,2,.3l-.2,1.1h.3s.2-1,.2-1l4,.6ZM986.2,403.3l1.6-15.4-11.7-1.3v.2s-.3,0-.3,0v-.2s-11-1.2-11-1.2l-.4,3.9,2.3.2v.3s-2.3-.2-2.3-.2l-.2,1.9,3.5.4-.8,7.6-3.5-.4-.2,1.7,23.1,2.5ZM983.8,401.3l-15.4-1.6.8-7.6,2.2.2.2-1.9-3.2-.3v-.3s7.1.8,7.1.8l.2-2.1h.3s0,.3,0,.3l8.3.9-.8,7.4h.9c0,0-.4,4.3-.4,4.3ZM929.2,385.6l.5-3.6,7.5.9-1.3,10.1-7.5-.9.2-1.5,6.1.8.9-7.3-4.7-.6-.9,6.9-1.4-.2.6-4.6ZM951.5,260.9l-4.7,5.6-5.5-4.7,4.7-5.6,5.5,4.7ZM915.4,383.7l.5-3.6,7.5.9-1.3,10.1-7.5-.9.2-1.5,6.1.8.9-7.3-4.7-.6-.9,6.9-1.4-.2.6-4.6Z"/>
  </g>
</svg>