<?xml version="1.0" encoding="UTF-8"?>
<svg id="Layer_1" xmlns="http://www.w3.org/2000/svg" version="1.1" viewBox="0 0 1062.4 568.2">
  <!-- Generator: Adobe Illustrator 29.0.1, SVG Export Plug-In . SVG Version: 2.1.0 Build 192)  -->
  <defs>
    <style>
      .st0 {
        fill: #131323;
      }

      .st1 {
        stroke: #000;
      }

      .st1, .st2 {
        stroke-width: 2px;
      }

      .st1, .st3, .st4, .st5, .st6 {
        fill: none;
      }

      .st2 {
        fill: #352021;
        stroke: #471f21;
      }

      .st3 {
        stroke-width: 8px;
      }

      .st3, .st5, .st6 {
        stroke: #333;
      }

      .st4 {
        stroke: #444;
      }

      .st5 {
        stroke-width: 12px;
      }

      .st7 {
        fill: #262626;
      }

      .st8 {
        fill: #212121;
      }

      .st9 {
        fill: #666;
      }

      .st10 {
        fill: #444;
      }

      .st6 {
        stroke-width: 5px;
      }

      .st11 {
        fill: #333;
      }
    </style>
  </defs>
  <path class="st8" d="M559,565.9l69.3-91,20.1-2.8,30.4-6.6,48.9-8.7,1.6-2.8-5.8-32.4v-24.9s2.6.6,2.6.6l2.8,1.8,278,34.7,15.8-.8-1.2-9.7,8.1-57.8,5.5-43,2.2-10.7-18-2.4.7-25.3,3-9.7-.2-10.1,2.6-22.7,9.3-22.6,2.1-5.4,1.8-16.4,4.4-20.1,1.3-26.1-1.3-11.5-13.1-4.5-4.2,3.3-22-1.4-.3,5.8-7.8-2-8.6-7.4-19-2.7-22.6-18.3-9.5-6.1-2.8-8.1,4.1-6.8,2.5-7.5-31.7-19.5-6.8.5-12.6-6.6-3.9-1.8-9.4.9-14.6-11.7-6.9-5.9-9.5-4.4-7.7-1-18.5,4-17.7,20-17.3-2.7-13-8.3-7,4.4-10.3,10.1,4.2,4.4-23.4,30.7-2.9,1-8.7-.5-14.5,4.3-10.7,1.5-12.4-10.6-8.5-5.7-14.2-4.7-93.2-28.2-20.5-4.5-16.3-2-7.9,1.8-21.2,13.2-31.4,26.3-17,17.3-10.1,12.9-4.7,11.1-6.4,4.5-8.3,2.2-12.4,1.1-20.3-.7-14.7-1.6-47.2-1.1-32.1.9s-6.7,24.1-8.8,36.3c-.8,4.7-1.3,9.5-1.6,14.2-.3,5.7,1.1,11.5.3,17.2-.3,2.4-2.1,7-2.1,7l-2.2,5.7-4.7,1-9.3-1.3-21,3.2-16.4-2.6-6.3.3-8.1-1.3-4.3,3.4-4.1,8.8-3.5,2.3-5.5,6.3-10.5,6.7-39.6,21.3-40.2,20.3-37.2,19.8-2.7,2.4-3,4.7-6,1.4-16,19.3.4,14.5-14.7,1.8.6,12.1-1.8,6.5-1.8,104.3,7.3-4.4,2.1,7.3,3.7.3,1.5,3.5-.2,22.2,2.6,2.2,13.9,2.5,8.8.5,20.6-6.3,16.7-1.8,10.9,4.5,77.6,1.6,1.4-15.4,72.2-.8,41.6-8.8s-5.9-15.9-7.7-24.2c-1.3-5.9-2.3-18-2.3-18l1.2-.9,12.7-3.2,10.5-4.5,11-.8-1.8-15.3,19.3-2.8,19.2-6.5,2.3-3.7,2.4-1,12.6-2.3,16.9-1.2,5,21.9,4.4,28.7,26-4.1,66.5-14.3,27.8,42.1,9.5,42.8-24.2,24.2,38.5,31.7.6-.8Z"/>
  <path class="st0" d="M298.8,302.5c2.8-.9,4.7-4.3,7.6-6.4,4.8-3.5,5.8-10.1,8.2-12.6,1.5-1.5,5.5-1.5,5.6-3.5.1-2.2-5.8-2.4-4.3-19.6,1.7-19.4,11.7-14.9,13.8-21.5,1-3,1.2-7.5,0-10.4-1.5-3.5-6.7-2.4-7-6.2-.4-4.4,8-11.9,8.3-17.8.5-9.4-4.3-15.5-4.6-25-.2-5.8,2-13.3,2.6-21.4,1.3-17.3,2.1-35.2,2.1-35.2h-31.2c0,0-1.1,15.9-4.4,30.9-2,9.2-6.4,18.2-6.7,25.6-.4,9.3.4,19.1-.8,28.3-1.2,8.7-7.4,16.1-8,24.9-.5,7.6,6,10.8,4.6,24.5-1.7,17-10.5,14-10.8,28.1-.2,7.6,7.2,7.4,9.2,10.2,2,2.9-.8,5.6,2,7.7,2.5,1.9,5.2,0,6.5-.5,4.4-1.7,4.8.8,7.4-.1h0ZM297.2,234c-.9-1-2.2-3.1-2-4.3.6-4-2.9-9.4-1.5-11.5,2.1-3.2,9.5-8.5,10.6-9.3,3.2-2.3,1.5,7.8,1.5,11.7,0,2.9-.3,5.9-1.4,8.6-.8,1.8-1.9,3.8-3.6,4.8-.3.1-3.3.3-3.5,0ZM271.3,397.4c1.2,0,4.6.7,6,.7,1,0,9.7-.6,11.4-4,1.8-3.7-11.7-3.9-4.6-6.8,4.1-1.7,9.3.2,11.1-2.7,4.2-6.7,7.6-15.9,10.2-23.4,3-8.4,10.4-22.1,7.1-27.5-2.7-4.4-10.5,1.2-11.9-2.7-1.9-5.5,7.2-5.8,10.6-8.6,1.4-1.1,5.9-4.9,5.4-7.9-.4-2.6-2.6-5.2-4.4-5.2-5.1-.2-5.4,9.2-9.5,10.4-8.1,2.4-17.8-5.5-26.2-6-2.8-.2-5.6.2-7.4,2.2-.8.9-2.3-2.9-2.6-1.4-2.6,12.2-1.2,28.2-3.4,40.1-1.8,9.6-6.4,14-7,27.1,0,1.6,0,6.7.6,8.2,1.5,3.7,2,1.3,4.7,3.5,1.8,1.5-.5,4.8,2.2,4.9.2,0,6.4-.8,7.7-.8h0ZM268.1,507.9l45.4-4.4c-1.1-6.2.8-6-.6-11.6-.9-3.7-3.4-7.2-4.7-11-1.3-4-1.7-8.4-3.1-12.6-1.6-5-4.3-9.7-4.9-13.6-1-6.4.2-16.8-3.5-24.9-2.3-5.3-6.5-11.9-10.7-16.8-3.2-3.7-13.8-.7-15.2-2.4-1.4-1.6,6.8-7.3,3.1-8.3-4.4-1.2-7.4-1.8-11.7,3.6-3.3,4.1-4.3-1.4-9,4.3-2.5,3-.7,6.9-.8,12.3-.2,6.2-3.6,7.8-1.5,18.5,4.6,24,17.2,67.1,17.2,67.1h0Z"/>
  <g>
    <path class="st6" d="M985,205.9s-12.3-14.3-20.8-17.8c-7.9-3.2-29.7-3.1-42.5-9-13.2-6-20.5-20.1-31.2-25.5-6.7-3.4-21.2,4.6-21.2,4.6M543.1,59.4c28.9-23.6,19.4-35.8,47.9-57.4M463.4,396s17.9,4.7,27,5.6c3.4.3,6.9-.5,10.3-.1,5.2.6,15,3.5,15.4,3.5.5,0,38.5-7,43.1-7.8M580.6,375.4c4.7-.8,10.2-3.4,14.5-4.5,7.2-1.8,22-3.7,22-3.7"/>
    <path class="st6" d="M485.7,354.9s9.9-3,10.5-2.9c.6.1,8.8-1.4,12.5.5,6.6,3.2,12,9.9,14.3,16.9,1.5,4.8,1.5,10.9-1.3,15.2-2.3,3.6-7.8,3.7-11.2,6.3-3.8,3-9.8,10.5-9.8,10.5"/>
    <path class="st6" d="M521.7,384.7s10.4-6,16.1-6.3c4.2-.2,5.7,2.5,9.8,2.7,1.7,0,4.7-1.4,8.2-2"/>
    <path class="st6" d="M523,369.5s4.3-5.1,7.2-6.5c9.2-4.6,20.6-2.7,30.3-6.1,3.9-1.4,7-5,11.1-5.7,3.4-.6,7.1,0,10.2,1.5,3.9,2.1,6.4,6.2,8.9,9.8,1.8,2.6,3.2,5.5,4.4,8.4,2.3,5.2,4.3,10.6,5.6,16.1,1.7,7.1,2.3,14.5,2.9,21.7.7,7.6,1.6,15.2.9,22.8-.3,3.1-.6,6.3-2,9.1-3.4,6.9-9.2,12.5-15,17.5-2.6,2.3-5.3,4.7-8.6,5.6-8.6,2.4-17.8,0-26.7-1.1-5.5-.6-11.4-.3-16.2-3-4.8-2.7-9.2-7.1-11-12.3-2.7-8.1,3-17,2-25.5-.8-6.2-6-17.8-6-17.8"/>
    <path class="st6" d="M552.3,462.7s0-18.3-2.5-27c-1.4-5-3.4-10-6.7-14-2.8-3.5-7.2-5.3-10.8-8.1-3.9-3.1-11.4-9.5-11.4-9.5M584.8,398.8c7.1-1.3,11.4-2,17.1-3M508.7,352.5c5.9-2.4,8.1-10.4,14.3-13.8,8.4-4.6,19.6-11.8,19.2-11.9"/>
    <path class="st6" d="M548.5,359.2s-1.2-11.8-2.3-17.6c-1-5-4-14.8-4-14.8M547.7,381l-18.3,21.6M102.5,460.8s2,2.8,2.8,5.8c1.1,4.2,1.4,5.8,1.2,14.2M922.8,304.1l-5.4,46.3"/>
  </g>
  <path class="st11" d="M208.8,441l3.7-122.4-66.6-1.6-1.8,38.4,28.2.8-.2,5.8,6.6.2-1.5,55.1-7.2-.2-.7,23.3,39.6.5ZM112.7,447.4l3.6-112.3-7.8-4.4-47.6,23.4-3.2,91.4,55.1,1.8ZM193.7,502.9l1.6-34.1-64.8-1.7-1.3,34.4,64.4,1.4ZM533.7,330.9l49.5-6.6-6.2-31.4-48.6,8.5,5.3,29.5ZM434.8,403.9l42.6-8.3.8-16.9-1.5-7.1-14,3.1-.7-4.5-3.6.9-1.3-6.1-17.2,4.3-5.5-1.6-2.8,6.4.4,18,2.9,11.7ZM507.2,283.1l14.6-8.1,6-1.1-4.3-27.5-72.4-6.6-2.7,44.4,40.3,2.9.3-6.3,6.6,2.1h11.5ZM646.3,376.1l10.1-26.8-38.7-8-7.9,2.4,3.5,26.5,33,5.9ZM713,414.8l7.2,38.4-30-.2-5.5-22.7,28.3-15.4ZM798.4,257.2l4.3-35.9c.4-3.2-1.4-5.9-4.2-6.3l-39.5-4.6c-2-.3-4.9.9-5.2,3.3l-4.3,37.4,48.8,6ZM805.5,344.1l10.7-58.1-114.7-15.4-2.9,19.8,42.7,6.7-5.9,36.1,70.1,11ZM898.5,395.3l4.3-34.4h-19.7c0-.1-4.5,33.8-4.5,33.8l19.8.7ZM626.1,226.4l3.2-1.3,1.2-1.4,2.5-6.8.3-11.1-49.1-2.5-.2,22.4,42.1.8ZM543.1,297.7l59.2-10.8-4.4-24.3-26.9,4.9-1.2-5.4-5.1-1.1-.7-10.2-21.7-3.6,4.2,24.7-7.8,1.4,4.4,24.3ZM875,167.8l1.2-18.6,7.8-15.8-8.1-5-10.7,14.7-4.9,3.2-10.5,4.3-4.8,16.3,20.5,13.6,9.5-12.8ZM567,100.4l1.9-13.9,14.8,2.3-.6,4.1,5.4.7.9,7.7-1.5,1.7-20.8-2.6ZM325.6,217.8l-21.4-.2v4.7s21.4.2,21.4.2v-4.7ZM296.1,223.6l-17.7,1.3.4,4.4,17.6-1.5-.4-4.2Z"/>
  <g>
    <path class="st6" d="M924.8,282s5.1-14.9,9.3-21.5c4.3-6.6,10.4-11.8,15.8-17.6,9.4-10.1,19.8-19.2,28.9-29.6,6.9-7.9,14.1-15.9,19.4-25,6.2-10.6,11.4-22.1,14.1-34.1,3.3-14.4,2.6-44.2,2.6-44.2M1057.8,353.7c.5-4,7.6-29.2-17.2-32.7-74.7-10.5-242.1-35-290.5-41.9-8.6-1.2-9.9,7.6-19.9,6.1"/>
    <path class="st6" d="M734.1,258.4s-16.9,118.6-20.7,146.3c-.6,3.8-1.5,10.1-1.1,15.2,4,21.7,9.1,49.5,9.1,49.5M1027.5,318.7s-6.6,55.3-10.8,82.3c-.5,3-2.8,5.8-5.4,7.5-2.6,1.7-6,2.3-9,1.9-31.4-3.8-67-7.7-98.5-11.7-7.6-.8-11-8-11-8M541.8,233.4c5-16.7,5.9-54.9,14.6-126,.4-3,3.8-5.1,6.3-4.9,6.8.7,13.6,1.6,20.4,2.5,2.6.4,5,3.7,4.6,6.2-.9,6.2-2,12.5-2.8,18.3-.3,2.1-3.1,4-5.2,3.7-7.9-1-25.2-3.3-25.2-3.3M432.6,470.3s1.5-19.4.2-29c-2.9-22.1-15-42.2-18.3-64.3-.6-4-1.4-8.2-.2-12,1.2-3.9,4-7.4,7.3-10,4.2-3.4,7.8-5.8,12.7-8,4.8-1.4,10.9-.4,13.5-3.7,2.6-3.4,2.1-8,1.1-12.2-2.1-8.8-3.1-16.7-3.7-24.7-.3-3.8,3.1-7.9,6.1-10.3,4.6-3.7,13-3.7,17.1-8,3.7-3.6,3.6-5.9,4.1-14.3M38.3,460.4l149.6.8M797.4,266.1s-3-9.9-2.9-15.2c0-2.1.8-9.6,1.4-13.7M768.5,262.3s-3.2-9.1-2.7-13.8c1.2-10.4,2.7-22.1,3.6-30.1.5-3.8-10.9-5.2-11.3-1.4-.9,7.9-2.2,20.2-3.3,30.4-.5,4.5-4.9,12.5-4.9,12.5"/>
    <path class="st6" d="M427.6,350.6c5-2.3,10.4.6,15.3,1.9,4.8,1.3,8.9,4.7,13.7,5.7,3.5.7,7.1.8,10.7,0M586.3,239s.3-7,1.7-10c1.3-2.9,6.1-7.4,6.1-7.4M414.5,377s5.8,4.6,9.1,6.2c3.5,1.6,11.1,3.1,11.1,3.1M176,440.6c-.1,8.6-.4,11-1.8,14.4-1,2.5-5,6.2-5,6.2M169.2,461.1s2.3,2.9,2.9,4.9c.3,1.1.4,2.2.3,4.8M102.5,460.8s2.7-3.4,3.7-5.7c.9-2,1.1-3.6,1.2-7.9M145.3,293.7c2.9-1.3,5.4-1.6,7.9.1,1.2.9,2.2,2.1,2.9,3.5,1.2,2.3,1.6,4.9,1.9,7.5.5,4.1.1,8.9,0,12.6"/>
  </g>
  <g>
    <path class="st3" d="M374.3,212.2s443.4,55.8,656.1,83.5c15.4,1.9,21.6,3.3,31.1,5.5"/>
    <path class="st3" d="M400.7,214.9s-28,71.6-39.9,108.1c-3.9,11.9-7.6,23.6-9,36-1.4,12-1.2,24.3.4,36.3,1.6,12.7,8,37.6,8,37.6"/>
  </g>
  <path class="st5" d="M2.8,363.4s135.6-72,200-101.5c10.7-4.8,19.6-6.5,31.3-7.3,11.8-.8,26.5.7,39.4,2.1,20.2,2.2,41.8,4.1,62.8,6.7,5.9.3,8.6-.8,13.5-4.1,5.3-3.6,8.5-9.7,11.7-15.2,5.6-9.7,10.1-20.2,13-31.1,9.3-34.7,16.5-137.4,16.5-137.4M36.2,525.3l7.8-239.3"/>
  <g>
    <path class="st4" d="M1018.4,310.2l-4.3-.2M1011.7,308.7l-68.5-9.7M935.6,299l-45.8-6.3M883.3,291l-137.4-18.4-7.1,3.2-15.7-2.4-6.2-5.2-20.3-1.8-3.1,1.8-15,101.2,3.3,7.5,7.8,4.9,8.3.4"/>
    <path class="st4" d="M693.4,268.4l-10.7-1.8-.9-2.6-52.6-6.5-.6,7.6h-1.4c0,0-.8,6.8-.8,6.8l7.4,1M626.5,257.1l-36.9-5.3M586.1,251.4l-20.6-3M555.1,246.9l-2.9-.3-3.8.7-7-2-8.7-1.4M943.7,287.5l-1.4-.3,5.5-20.7M946.1,299.6l2.1-11.2-3.2-.6M913,222.5l-36.5-4.6M928.9,224.6l20.4,2.8-1.4,4.9-15.7,14.8,12.6,10.9M833.7,203.6l-7.9-1.3-28.5,2.4-12.2.2-19.9-2.2M761.3,202.3l-4.1.2M753.6,204.9h-4.1c0,0-12.2-1.3-12.2-1.3l-8.6.4M724.8,204.8l-8.6,8-1.7,3.4-9-3.8M699.5,209.5l-5.2-2.3M696.3,203.9l6.4-10.6,8-9.3M723.4,164.4l2.5-12.7-.2-16.1M724.8,131.2l-3.2-8.8-9.6-4.8M707.7,115.6l-2-3.3-9.3-8.4M768,201.9l-.8-5.5-15.1.2-6.6-2.9-3.3-5.8-6.3,2.9-4.1-5.2M727.7,180.3l-6.6-8.1-1.8,3.5-2.6,3.2M568.3,134.5l-.7,7-10.1-1.3M528.9,243.5l-60.4-8-16.3-.9-9.1,8.3-22.2,23.3M418,270l-12.8,15.5M402.1,288.9l-4.6,6.5-2.6,7.5-2.7,12.1M398.4,358l1.3,5.8M401.3,370l4.3,22.8M354.3,330.5l-26.2-7.4-5.3-.9M316.7,323.3l-14.4,6.8M402.2,285.7l-19.8-8.8M380.1,275.9l-5.4-2.4-6.1,15-16.6-5.8M347.6,281.4l-15.6-2.5,2.5-7.1M271.9,310.1l-7.3.6M260.8,311l-32,3M964.1,233.7l5,4.6-3.6,3.5-14.5,9.8M962.8,248.2l1.6,2.9-9.9,21-2.2-.7M385.8,334.9l-7.4.6M375.8,335.4l-6.3-.7M213.4,456.3l3,.2,1.3-42.3M217.7,411.6l.4-21.1M218.1,387.4l.3-37.8,1.2-32.7M219.2,312.3l-.3-8-5.1-6.4-25.6-13.2-4.1.3-19,9M161.8,295.2l-1.8,3.8-5.6,2.2-3.7-1.2-3.5,2.1-2,3.4-1.2,28.4M143.9,338.7l-3.7,109.9,2,4,28.6,1.8M177.8,454.7l28.7,1.4M197.2,463.1l-1.4,23.4M119.2,437.7v6.8c-.1,0-1.3,6.1-1.3,6.1l-4.7,3.1h-2.8M57.6,451.4l-5.8-7.2M633.8,214.5l.3-9.5-50.8-2.6-.2,21.6M600,226.7l26.3.5,3.4-1.3,1.5-1.8,2.6-7M830.7,410.6l2.5-16.5,4.6-2.2,7.1-4.3,6.2-5.1,4.8-6.8,3.7-7.6,10.9-69.4M871,295.8l.4-2.6,1.8-3.4M633,277.2l-5,1h-3.3c0,0-8.7,1.8-8.7,1.8l.8,8.5-1.7,13.9,2.4,19.6-1.3,17.6,3.3.7M650.6,347l30.2,6.2M652.5,437.7l-.6,4.7-.4,16.3.7,11.7M699.8,393.2l-3.3,2.7-6,1.4-6.6,2.5-21.7,16.3-2.8,3-6.4,13.7-.2,1.7M695.5,382.4l-1.9,5.5,4.7,5.9"/>
    <path class="st4" d="M958.2,228.3l-4.8-4.6-4.4,3.9M484.4,349.1v-10.7M524,249.4l2.8,17.9M527.6,274.1l-5.7,1-3.2,1.3M509.1,282.5l-1.9.6h-11.5c0-.1-6.7-2.3-6.7-2.3l-.4,6.5M539,297.4l-18.7,3.1M514.8,306.1l2.4,13.2M431.4,392.5l2.8,11.6M459.3,400.2l-5.7,1.1"/>
  </g>
  <g>
    <g>
      <path class="st10" d="M389,383.5l-2.3-17.7-6.2.8,2.3,17.7,6.2-.8ZM368.4,352.7l-.2,17.8h6.2c0,0,.2-17.7.2-17.7h-6.2ZM102.4,453.4l-44.7-1.6.2-6.2,44.7,1.6-.2,6.2ZM51.4,444.1l3-89,6.3.2-3,89-6.3-.2ZM113.1,437.5l3.3-102.3,6.1.2-3.3,102.3-6.1-.2ZM121.3,327.2l-4.2,6.4-3.8-2.5,4.2-6.4,3.8,2.5Z"/>
      <path class="st10" d="M112.5,333l3.1-7.1-4.2-1.8-3.1,7.1,4.2,1.8Z"/>
      <path class="st10" d="M105.8,325.2l-47.2,23.3,2.7,5.6,47.2-23.3-2.7-5.6ZM104.9,440.5l.7-30.7-7.6-.2v-.6s-7.7-.2-7.7-.2l-.7,30.7,7.5.2v.6s7.8.2,7.8.2ZM81.2,439.8l.8-35.5-7.7-.2v-.4s-7.6-.2-7.6-.2l-.8,35.3,7.6.2v.6s7.8.2,7.8.2ZM106.4,396.8l1.6-48.8-7.5-.2v4.2c-.1,0-8.1-.3-8.1-.3l-1.4,44.2,7.7.2v.4s7.8.3,7.8.3ZM82.6,396.1l.9-35.8-15.3-.4-.9,35.3,7.6.2v.5s7.7.2,7.7.2Z"/>
    </g>
    <g>
      <circle class="st10" cx="998.2" cy="367.1" r="10"/>
      <circle class="st10" cx="968.8" cy="362.8" r="10"/>
      <path class="st10" d="M989.7,370.4l-13.6-1.9,1.3-9.7,13.6,1.9-1.3,9.7Z"/>
      <circle class="st10" cx="1002.7" cy="340" r="10"/>
      <circle class="st10" cx="973.2" cy="335.7" r="10"/>
      <path class="st10" d="M994.2,343.3l-13.6-1.9,1.3-9.7,13.6,1.9-1.3,9.7ZM940.3,357.3l4.6-33.2,2.7.4,1-7-2.8-.4.5-3.4-18.5-2.6-6,43.5,18.5,2.6ZM987.5,403.4l-23.6-2.5,1.7-15.9,23.6,2.5-1.7,15.9ZM940.9,399l-42-5.3,2.9-23.5,42,5.3-2.9,23.5ZM855.6,358.9v-.3s2,.3,2,.3l2.6-16.7-2.1-.3,4.7-30.7-31-4.8-.9,5.7-7.1-1.1-6.6,42,7.2,1.1h0c0,.1,31,4.9,31,4.9ZM782.3,381l-53.5-8,5.5-37.1,53.5,8-5.5,37.1ZM722.6,297.5l-10,65.6-29.5-4.5,10-65.6,29.5,4.5ZM779.4,248.2l.2-2,4.3.5.6-5,5.1.6,1-8.4,3,.4,1-8.4-18.2-2.2-.2,1.6-14.5-1.8-2.5,20.6,14.5,1.8-.2,1.7,5.9.7ZM604,140.3l5.6-40.9-16.2-2.2-5.6,40.9,16.2,2.2ZM539.6,79.7l-5.7,40.9,16.1,2.2,3.5-24.9,12.4,1.7,2.2-16-28.6-4ZM650.5,347.5l10.1-47.8-12.7-2.7,4.9-22.9-18.5-3.9-7.6,35.8,18.1,3.8-2.2,10.6-18-3.8-5.1,24.3,31,6.6ZM564.1,424l-10.8-59.4,24.5-4.4,10.8,59.4-24.5,4.4ZM463,429.9l-4.8-23.5-15.8,3.2,4.8,23.5,15.8-3.2ZM468.6,364.4l18.3-3.8-2.4-11.6-11.8,2.5-2.1-10.3,49.6-10.3-2.4-11.7-22.2,4.6-4.9-23.5-36,7.5,7.3,35.2,2.5-.5,2.1,10.3h-.6c0,.1,2.4,11.7,2.4,11.7ZM397.9,358l-7.8-38.9,27-5.4-1.4-7,20.4-4.1,6.2,30.9-20.2,4.1v-.3c0,0-15.5,3.1-15.5,3.1l3.1,15.4-11.7,2.3ZM461.8,268.9l-25.2-1.9-1.4,19.3,25.2,1.9,1.4-19.3ZM145,416l1.7-60,24.8.7-.2,5.9,6.9.2-1.5,54.1-31.7-.9ZM597.9,262.5l-59.2,10.8,4.4,24.3,59.2-10.8-4.4-24.3Z"/>
    </g>
    <g>
      <path class="st10" d="M679.6,453l-2-8.5,8.5-2,2,8.5-8.5,2ZM953,260.8l-5.1,6-6.1-5.2,5.1-6,6.1,5.2Z"/>
      <path class="st10" d="M957.8,245.7l-11-11.9-11.6,10.8,11,11.9,11.6-10.8ZM870.6,172.5l-3.6,5-2.3-1.6,3.6-5,2.3,1.6ZM591.9,207.2h-6.6v-2.8h6.6v2.8ZM572.8,196.1h-6.1s0-2.4,0-2.4h6.1s0,2.4,0,2.4ZM546.1,144.5l1.1-8.2-6.1-.8-1.1,8.2,6.1.8ZM549.9,255.7h-6.2v-2.5h6.2v2.5ZM573.8,251.7l-6.2-.9-.4,2.8,6.2.9.4-2.8ZM722.7,438.6l-2.4-12.2-12.6,2.5,2.4,12.2,12.6-2.5ZM471.5,242.2l-6.2-1,.4-2.8,6.2,1-.4,2.8ZM389,227.2l-8-2.1-1.5,6,8,2.1,1.5-6ZM394.8,154.6l.3-6.3h2.8c0,.1-.3,6.4-.3,6.4h-2.8ZM388.7,293.6l2.5-5.7-2.6-1.1-2.5,5.7,2.6,1.1ZM893.2,223.2l-6.2-.7.3-2.6,6.2.7-.3,2.6ZM999.5,401.5l1-7.9-4.1-.5-1,7.9,4.1.5ZM837.9,386.3l1-7.9-4.1-.5-1,7.9,4.1.5ZM250.6,269l-6.7-.2.2-6.1,6.7.2-.2,6.1ZM219.1,276.1l-6.7-.4.3-6.1,6.7.4-.3,6.1ZM173.9,299.7l-9.1,4-2.1-4.9,9.1-4,2.1,4.9ZM188.8,447.7l-9.8.2v5.3c0,0,9.9-.2,9.9-.2v-5.3ZM179.5,474.2l.4-6.3-2.9-.2-.4,6.3,2.9.2ZM123,488.8l.7-6.3-2.8-.3-.7,6.3,2.8.3ZM118.9,495.1l-3.2,5.3-2.4-1.5,3.2-5.3,2.4,1.5ZM105.1,493.1l-16.7-1.3-.5,6.2,16.7,1.3.5-6.2ZM113.5,452.4l.5-6.3-2.8-.2-.5,6.3,2.8.2ZM441.3,438.9l-1.2-6.4-2.8.6,1.2,6.4,2.8-.5ZM534.3,295.2l-6.3,1,.4,2.6,6.3-1-.4-2.6ZM736.1,318.8l.9-6.3-2.8-.4-.9,6.3,2.8.4ZM733.5,282.6l1.3-8.5-5.7-.9-1.3,8.5,5.7.9Z"/>
      <path class="st10" d="M722.2,280l6,.8.9-6.6-6-.8-.9,6.6ZM677.8,444.5l8.1-1.9-2-8.6-8.1,1.9,2,8.6Z"/>
    </g>
  </g>
  <path class="st1" d="M559,565.9l69.3-91,20.1-2.8,30.4-6.6,48.9-8.7,1.6-2.8-5.8-32.4v-24.9s2.6.6,2.6.6l2.8,1.8,278,34.7,15.8-.8-1.2-9.7,8.1-57.8,5.5-43,2.2-10.7-18-2.4.7-25.3,3-9.7-.2-10.1,2.6-22.7,9.3-22.6,2.1-5.4,1.8-16.4,4.4-20.1,1.3-26.1-1.3-11.5-13.1-4.5-4.2,3.3-22-1.4-.3,5.8-7.8-2-8.6-7.4-19-2.7-22.6-18.3-9.5-6.1-2.8-8.1,4.1-6.8,2.5-7.5-31.7-19.5-6.8.5-12.6-6.6-3.9-1.8-9.4.9-14.6-11.7-6.9-5.9-9.5-4.4-7.7-1-18.5,4-17.7,20-17.3-2.7-13-8.3-7,4.4-10.3,10.1,4.2,4.4-23.4,30.7-2.9,1-8.7-.5-14.5,4.3-10.7,1.5-12.4-10.6-8.5-5.7-14.2-4.7-93.2-28.2-20.5-4.5-16.3-2-7.9,1.8-21.2,13.2-31.4,26.3-17,17.3-10.1,12.9-4.7,11.1-6.4,4.5-8.3,2.2-12.4,1.1-20.3-.7-14.7-1.6-47.2-1.1-32.1.9s-6.7,24.1-8.8,36.3c-.8,4.7-1.3,9.5-1.6,14.2-.3,5.7,1.1,11.5.3,17.2-.3,2.4-2.1,7-2.1,7l-2.2,5.7-4.7,1-9.3-1.3-21,3.2-16.4-2.6-6.3.3-8.1-1.3-4.3,3.4-4.1,8.8-3.5,2.3-5.5,6.3-10.5,6.7-39.6,21.3-40.2,20.3-37.2,19.8-2.7,2.4-3,4.7-6,1.4-16,19.3.4,14.5-14.7,1.8.6,12.1-1.8,6.5-1.8,104.3,7.3-4.4,2.1,7.3,3.7.3,1.5,3.5-.2,22.2,2.6,2.2,13.9,2.5,8.8.5,20.6-6.3,16.7-1.8,10.9,4.5,77.6,1.6,1.4-15.4,72.2-.8,41.6-8.8s-5.9-15.9-7.7-24.2c-1.3-5.9-2.3-18-2.3-18l1.2-.9,12.7-3.2,10.5-4.5,11-.8-1.8-15.3,19.3-2.8,19.2-6.5,2.3-3.7,2.4-1,12.6-2.3,16.9-1.2,5,21.9,4.4,28.7,26-4.1,66.5-14.3,27.8,42.1,9.5,42.8-24.2,24.2,38.5,31.7.6-.8Z"/>
  <g>
    <path class="st7" d="M1026.8,262.4c-1.3,1.3-3.3,2.2-5.1,2.1-1.9,0-4.1-1-5-2.6-1-1.7,1.7-4.6.4-6-.7-.8-2.1-.3-3.1,0-.9.3-1.5,1.8-2.4,1.6-.9-.2-1.5-1.4-1.6-2.3-.2-1.7,1.5-3.2,1.8-4.9,0-.5-.2-1,0-1.5.3-.7,1-1.3,1.7-1.5.9-.3,1.9.7,2.7.3,1.1-.6.6-2.5,1.5-3.4.7-.8,2.1-.7,2.9-1.5,1.4-1.4,1.4-3.7,2.5-5.3,1.1-1.6,3.5-2.3,4-4.2.4-1.4-1.6-2.8-1.1-4.2.6-1.7,2.5-3.8,4.2-3.2,2.4.8.1,5.6,2.1,7.1.3.2.9-.3,1.2,0,1.4,1.1,1,3.5.9,5.3,0,.5,0,1.4-.5,1.6-1.7.5-2.5-3.7-4.3-3.3-.9.2-.7,1.8-1.3,2.6-.7.9-2.7,1.1-2.7,2.3,0,.7,1.3.8,1.6,1.5.4,1.1.3,2.6-.4,3.6-.4.7-2.3.5-2.1,1.4.3,1.9,4.5,0,5.5,1.6.8,1.3.1,3.2-.7,4.4-.8,1.2-3.7.8-3.7,2.2,0,1.2,2.8.7,3.1,1.9.5,1.5-.8,3.3-1.9,4.4h0ZM1024.3,214.2c.6,1.4-1.7,2.5-2.7,3.7-1.2,1.4-2.8,2.5-4,4-1.2,1.5-1.2,4.2-3,4.9-.4.1-.7-.3-1.1-.3-.4,0-.7.7-1.1.6-1,0-2.1-.7-2.5-1.6-.2-.5,0-1,.3-1.5,1.2-2,4.4-2.4,5.5-4.5.5-1-.3-2.5.3-3.4.5-.8,1.7-1,2.6-1.4,1.1-.4,2.3-.9,3.5-.9.8,0,1.9-.3,2.2.4h0ZM1012.8,214c-.2,1.8-2.1,3.6-3.9,4-1.1.2-2.1-1.6-3.1-1.2-1.4.4-1.3,2.6-2.3,3.6-.6.6-1.2,1.4-2,1.5-1.6.1-4-.6-4.3-2.2-.3-2.5,5.4-2.7,5.6-5.2,0-1.4-2.4-1.9-2.7-3.2-.4-1.6.2-3.6,1.3-4.8.9-1,2.4-1.1,3.7-1.3,1.2-.2,2.8-.6,3.6.3.4.5-.4,1.4-.2,2,.6,2.5,4.6,4,4.3,6.6h0ZM1036.4,214c-.9.2-2.2.3-2.7-.5-1.4-2.2,2.1-5,2.1-7.7,0-2.2-2.4-4.3-1.8-6.4.5-1.5,2.1-3,3.6-2.9,1.2.1,1.3,2.2,2.4,2.8.5.3,1.2,0,1.7.3,1.7,1.2,2.7,3.4,3.1,5.5.3,1.5.8,3.8-.6,4.5-1.5.8-3.1-3.1-4.6-2.3-1.5.8,0,3.6-.9,5-.6.8-1.4,1.4-2.4,1.7ZM1042,192c-1.1.5-2.5-.1-3.4-.9-1-.9-1.5-2.4-1.5-3.7,0-1.4,2.2-2.3,1.9-3.7-.2-1.3-2.7-1.2-3-2.5-.3-1.9,2.9-3.1,2.8-5,0-.5-.9-.7-.9-1.2-.1-.9.5-1.8,1-2.6,1-1.3,2.2-3.1,3.8-3.1,1.8,0,3.7,1.5,4.3,3.1.2.8-1.1,1.6-.8,2.3.6,1.5,3.8.5,4.4,2,.3.7-.2,1.5-.7,2-1.5,1.5-5.3.3-5.9,2.3-.2.7,1.4,1,1.3,1.8,0,.7-1.5.7-1.5,1.4,0,.4.8.4.9.8.6,2.4-.5,5.8-2.7,6.9h0ZM1045.6,148.4c-.7.5-1.7.9-2.4.6-2.4-1.1-1.8-5-3.5-7-.5-.6-1.1-1.1-1.8-1.3-1.5-.5-3.3.7-4.8.2-.7-.2-1-1-1.7-1.3-1-.4-2.3-.8-3.3-.5-.6.2-.8,1.4-1.5,1.4-1.2,0-2.7-1.2-2.9-2.4,0-.7,1.2-1,1.2-1.8,0-.8-1-1.2-1.2-1.9-.2-.5-.3-1.1,0-1.5.4-.7,1.6-.6,2.3-1.1,1.6-1.1,2.1-4.1,4-4.2,1.6,0,3,1.9,3.4,3.4,0,.3-.3.6-.2.8.2.4,1,.3,1.2.6.3.6-.5,1.5,0,2,1.6,2.2,5.6,4.1,7.8,2.5.7-.5-.4-1.9,0-2.7.6-1.3,1.8-2.5,3.1-2.8,1.7-.4,4.5-.3,5,1.4.8,2.7-6.5,3.9-5.4,6.5.3.7,1.7-.4,2.3,0,1.3,1,1.7,3,1.5,4.6-.3,1.7-1.6,3.3-3.1,4.3h0ZM1000.3,142.7c-.6.7-1.8.6-2.8.6-2.3,0-5.1.5-6.8-1-.8-.7.2-2.5-.6-3.1-.8-.6-2.1.4-3.1.2-2-.5-4.7-1.2-5.4-3.1-.3-.8,1-1.6.8-2.4-.2-1.2-2.3-1.5-2.3-2.7,0-1.8,2.3-2.7,3.2-4.3.3-.4.2-1.2.6-1.4.5-.2,1.1.5,1.6.3.5-.3,0-1.3.6-1.5.9-.3,1.4,1.5,2.4,1.7,1.1.2,2.2-.9,3.2-.7,1.6.3,2.7,3.5,4.2,2.8,1.1-.6-.7-2.8.2-3.7,1.1-1.1,3.3-.8,4.8-.2,1.5.7,2.7,2.3,3.1,3.9.5,2,.2,4.6-1.1,6.2-1.1,1.4-4.5.2-5,1.9-.5,1.5,2.3,2.4,2.7,4,.2.9.2,2-.4,2.7h0ZM976.6,126.2c.2,1.4-1,2.9-2,3.9-.8.7-1.9,1.3-3,1.2-1.5,0-2.8-1.1-3.9-2.1-1.8-1.8-4.5-4.2-3.9-6.7.3-1.3,2.1-2.1,3.4-2.3.9-.1,1.8.3,2.5.9,1.1.9.6,3.5,1.9,3.8.8.2,1.3-1.6,2.1-1.5,1.3.1,2.6,1.5,2.8,2.8h0ZM942.4,129.2c.1,1-1,1.9-1.9,2.2-.7.2-1.5-.1-2.2-.5-.8-.5-1.1-1.6-2-2-1.6-.9-4.4.5-5.4-1.1-.4-.6,0-1.5.3-2,.7-.9,2-1.7,3.1-1.5.7.1.7,1.4,1.4,1.6.4.1.8-.4,1.2-.4.4,0,.9,0,1.1.4.2.3-.2.6,0,.9.4.8,1.2,1.5,2.1,1.7.4.1.8-.3,1.2-.2.5.1,1.1.4,1.1.8h0ZM933.1,123.4c-.4.6-1.5.9-2.2.6-1-.5-.5-2.7-1.6-3-1-.3-1.5,1.6-2.5,1.7-.6,0-1.2-.4-1.5-.8-.4-.6-.3-1.3-.2-2,.2-1.2,1.4-2.1,1.6-3.3.2-1.5-1.7-3.1-1.1-4.5,1-1.9,3.8-3,6-2.6,1.4.3,2.7,1.6,3,3,.2.8-.2,1.6-.7,2.3-.4.6-1.3.7-1.6,1.3-.9,2.3,2.1,5.3.7,7.3ZM942.5,107.2c-1.2,1.3-2.9,2.5-4.7,2.5-2,0-4.8-.9-5.3-2.8-.2-.7,1.3-1.2,1.1-1.8-.3-1.1-2.5-.6-3.2-1.5-1.1-1.5-1.9-3.9-1-5.5,1-1.8,4-3,5.8-2,1.3.7,1,2.8,1,4.3,0,.9-1.3,2.1-.6,2.6,1.4.8,2.3-2.2,3.6-3.1.5-.3,1-.7,1.6-.7,1.2.1,2.4.9,3,1.9.4.7.4,1.7.2,2.6-.2,1.3-.7,2.7-1.6,3.7h0ZM946.8,84.2c-.7,1.8-3.2,2.7-5.1,2.6-2-.1-3.8-1.9-5-3.5-.9-1.3-1.8-3.1-1.3-4.6.9-2.8,4.3-6.1,7.1-5.3,3.8,1,5.8,7.2,4.4,10.8h0ZM925,91.9c0,0,0,.2,0,.2-.3.9-.6,2-1.3,2.6-1,.9-2.4,1.6-3.6,1.3-1.4-.3-3.1-1.6-3.1-3.1,0-.4.8-.5.9-.9.1-1-1.8-1.6-1.7-2.6.1-.9,1.6-1.1,2.1-1.9.2-.3,0-.8.3-1.1.5-.6,1.4-1.1,2.1-1,.3,0,.3.6.6.7.3,0,.6-.3.9-.2,1,.3,1.9,1.4,2.1,2.5,0,.4-.4.6-.4,1,0,.9,1.1,1.5,1.2,2.4ZM919.7,72.2c-.7.3-1.3-.7-2.1-.7-.5,0-1.1,0-1.6.2-.5.3-.7,1.1-1.3,1.2-1.9.3-4.1-.8-5.2-2.3-.4-.6.5-1.7,0-2.2-.2-.2-.6.3-.9.1-1.1-.7-1.4-2.3-1.5-3.6,0-1.6.2-3.8,1.6-4.6,2-1.2,5.3-.7,6.9,1,.9,1-.5,2.9.3,4,1.2,1.7,4.9.7,5.6,2.7.6,1.4-.3,3.6-1.7,4.2h0ZM901.4,67.5c-.3.5-.9,1-1.5,1.1-.9.1-1.6-.8-2.5-.8-.7,0-1.3.7-2,.5-1.4-.5-2.1-2.2-2.8-3.5-.7-1.2-1.9-2.5-1.7-3.9.2-1.1,1.6-1.5,2.1-2.5.4-.7.3-1.6.8-2.2.7-1,1.6-2.2,2.8-2.2.6,0,1.2.5,1.4,1.1.3.6-.5,1.4-.3,2,.5,1.6,3.2,1.9,3.6,3.6.3.9-.8,1.8-.6,2.7.1.8,1.1,1.3,1.2,2.1,0,.7-.1,1.4-.5,2ZM885.8,57.4c0,1.6-2.1,2.7-3.5,3.4-.7.4-1.6.4-2.5.3-1.4-.2-2.9-.7-4.1-1.5-1-.7-2-1.6-2.3-2.7-.3-1.1,1-2.3.6-3.3-.1-.3-.6-.3-.7-.6-.5-1.1,0-2.5.4-3.6.5-1.3,2.5-1.8,2.5-3.2,0-.9-1.4-1.2-1.7-2-.3-1-.1-2.1.1-3.1.2-1.1.6-2.1,1.2-3.1.6-.9,1.2-1.8,2.1-2.2.8-.3,2.1.8,2.7.1.6-.6-.8-1.9-.3-2.6.4-.6,1.6-.1,2.2-.6,2.2-1.6,1.5-6.8,4.2-6.9,1,0,1.1,1.8,1.8,2.6.9.9,2.8,1.1,3,2.4.2,1-1.7,1.5-1.8,2.6,0,.6.7,1.2.7,1.8,0,1.6-1.1,3.2-2.2,4.4-.6.7-1.5,1.2-2.3,1.3-.6.1-1.2-.5-1.7-.3-1,.5-1,2.1-1.7,3-1,1.3-3.5,2-3.3,3.6.2,1.2,2.8.8,3.2,2,.4,1.1-1.4,2.1-1.2,3.2.4,2.1,4.5,2.6,4.5,4.8h0ZM895.8,90.1c.2,0,.2.3.3.4.3.4.6.7.7,1.2,0,.8-.3,1.6-.9,2.1-.4.3-1,.4-1.5.3-.9-.3-2-1.1-2.1-2,0-.8.6-1.8,1.4-2.1.6-.3,1.4-.1,2,.2ZM829.8,38.4c.4,1.1.5,2.5-.1,3.5-.6,1-2.5.7-3,1.7-.6,1.2,1.2,2.8.6,4-.7,1.3-2.6,1.6-4.1,1.8-1,.1-2.3.1-3-.6-.3-.3,0-1-.3-1.4-.3-.5-.9-1.1-1.5-.8-1.1.5,0,2.7-.9,3.6-1,.9-3.1-.4-3.9.6-1.2,1.6,1.9,4.2.8,5.9-1.1,1.8-4.4.6-5.8,2-.8.9-1,2.3-1,3.5,0,1.2,1.3,2.5.7,3.5-.7,1-2.6,0-3.7.8-.6.4-.6,1.6-1.3,1.9-2.5,1.1-5.7,0-8.2-1.1-1.3-.6-2.6-1.5-3.1-2.8-.5-1.2,1.1-2.9.2-3.9-1.4-1.5-4.3.5-6.1-.3-.4-.2-.6-.7-1-.9-1.2-.6-2.8-1.3-4-.7-.3.1-.2.8-.5.9-1.8.6-4.1-.7-5.3-2.2-1.5-1.9-3-5.5-1.2-7.1.5-.4,1.2.9,1.8.6,1.2-.6,0-3.4,1.2-3.9,3.1-1.3,6,5.9,9.1,4.5,2-1-.2-5.1,1.4-6.6.8-.7,2.2-.8,3.2-.4,1.7.6,2.8,2.5,3.6,4.1.4.8.6,1.7.6,2.6,0,.8-1,1.8-.4,2.5,1.1,1.3,4,1.3,5.1,0,.6-.6-.6-1.7-.3-2.5.7-1.7,2.6-2.8,4.4-3.4.9-.3,2.2.7,2.9,0,.7-.7-.2-1.9-.1-2.8.3-3.1-.6-7.5,2-9.1,1.2-.8,3,.3,4.3,1,.6.3.7,1.5,1.3,1.4,1.9-.1,1.4-4.4,3.3-4.8,1.5-.3,2.3,2.3,3.8,2.3.8,0,1.3-1.3,2.1-1.2,1.2,0,1.8,1.8,3,2.2.5.1,1.1-.2,1.5,0,.8.3,1.6,1.1,1.9,2h0ZM773.3,42.4c0,2-1.6,3.9-3.2,5.2-1,.8-2.3,1.5-3.6,1.4-.9,0-1.7-.6-2.3-1.2-.4-.4-.3-1.4-.9-1.7-1-.6-2.4.7-3.5.2-1.7-.7-3-2.5-3.6-4.3-.5-1.4-.3-3.2.4-4.5.2-.5.7-.8,1.2-1,.6-.3,1.4,0,2-.4.6-.3.9-1.1,1.5-1.4,1.9-.9,4.6-1.9,6.3-.7.4.3,0,1.2.4,1.6.2.2.8,0,1,.2.4.5,0,1.4.3,1.9.6,1.1,2.1,1.5,2.7,2.6.2.5-.2,1.3.2,1.6.2.1.4-.2.6-.2.2,0,.4.3.4.6h0ZM764.7,62.1c.4.6.1,1.7-.5,2.1-.5.4-1.6.3-2-.3-.4-.6,0-1.6.7-2,.5-.3,1.4-.3,1.8.2ZM761.6,58.8c-.8,1.8-6,2-6.3,3.9-.4,2.3,5.9,1.8,5.9,4.2,0,2.5-2.6,5.4-5,5.5-.4,0-.5-.8-.8-.8-1.4-.3-2.7,2.4-4,1.7-.5-.3,0-1.3-.4-1.8-.7-.8-2.1-.7-3-1.3-.9-.6-1.7-1.3-2.3-2.3-.5-.8-.9-1.7-.9-2.7,0-.8,0-1.7.5-2.5.7-1.3,1.7-2.6,3-3.3,1.2-.6,3.3.9,4-.3.3-.6-.9-1.2-.8-1.8.3-1.6,1.7-3,3.3-3.5.3-.1.7.3,1,.2.5,0,.9-.9,1.4-.9,1.9.2,3.2,2.2,4.2,3.8.3.5.6,1.1.4,1.6h0ZM762.8,55.2c-.3.4-.7.9-1.3.9-.5,0-.8-.6-1-1.1-.2-.6-.3-1.5.2-1.9.4-.4,1.3-.2,1.7.1.3.2.4.7.5,1.1,0,.3,0,.7-.2.9h0ZM726,97.4c-.1.5-.4,1.1-.9,1.2-.5.1-1-.7-1.5-.7-.4,0-.8.7-1.2.5-.6-.3-.5-1.2-.5-1.8,0-.9.6-1.6,1.2-2.3.4-.5.8-1.2,1.4-1.2.6,0,1,.6,1.3,1.1.5,1,.6,2.2.3,3.3h0ZM768.5,101.7c-.1-.5-.8-.6-1.3-.6-2.1,0-5,.3-5.9,2.2-.4.8.4,1.8.9,2.6.3.4.6.9,1,1.2.4.2,1,.2,1.5,0,.8-.3,1.7-1.1,1.9-2,0-.3-.4-.5-.3-.8.2-1.1,2.5-1.5,2.2-2.7ZM755.7,110.4c.4,0,.7-.5.8-.9.1-.5-.1-1-.4-1.4-.2-.3-.5-.8-.9-.7-.5.2-.5,1-.4,1.6,0,.5.3,1.4.9,1.4h0ZM747,111.7c.4-.3.8-.8.7-1.3,0-.4-.5-.8-.9-.9-.4-.2-1-.1-1.4.2-.4.4-.6,1.1-.4,1.7.1.3.5.5.8.6.3,0,.8,0,1-.2h0ZM781.8,113.3c0,0,0,.2-.2.2-.9.7-1.9,1.7-3,1.6-.6,0-1.2-.7-1.4-1.4,0-.2,0-.4.2-.5.3-.2.9.4,1.2.2.6-.6-.6-1.6-.3-2.4.1-.3.4-.7.7-.8.7-.2,1.5.3,1.9.8.6.6,1,1.5.8,2.3h0ZM766.1,128.7c-.3.3-.9.4-1.3.4-.5,0-.9-.5-1.4-.5-.3,0-.6.3-.9.2-1.4-.3-2.7-1.3-3.3-2.5-.2-.4.2-1,0-1.5-.2-.7-1.4-.9-1.4-1.6,0-.5.5-1,.9-1.2.4-.1.8.4,1.3.3.6-.2.7-1.4,1.4-1.4.8,0,1,1.4,1.6,1.8.6.4,1.5.4,2.1.8.7.6,1.4,1.4,1.6,2.4.2.9,0,2-.7,2.7h0ZM756.7,141.5c-.4.4-1.2.5-1.7.3-.5-.2-.9-.8-.9-1.3s.4-1,.8-1.2c.5-.2,1.3-.2,1.7.2.4.5.5,1.4.1,1.9ZM742.7,134.3c.5,0,.5-.9.4-1.4,0-.4-.4-.8-.7-.9-.2,0-.4,0-.6.2-.2.2-.2.5-.2.7.1.6.5,1.5,1.1,1.4ZM708.3,104.3c-.3.6-1.1.8-1.8.8-1.3.2-3.1.3-3.8-.7-.5-.8.7-1.9.6-2.8,0-.3-.5-.5-.5-.9,0-.6.5-1.2,1.1-1.4,1.5-.4,3.4.5,4.3,1.8.6.9.7,2.3.1,3.1h0ZM711.4,82.2c.1.3,0,.7-.2.9-.3.3-.9.6-1.3.5-.5-.1-1-.7-1-1.3,0-.4.4-.9.8-1,.6-.1,1.5.3,1.7.9h0ZM700.1,75.2c.2.4.2,1.1-.2,1.3-.2.2-.5-.2-.8-.2-.3,0-.7.4-1,.2-.3-.2-.2-.7-.2-1,0-.4.2-.9.6-1,.5-.2,1.2.2,1.5.7h0ZM673.2,100.4c-.7.1-1.3-.9-2-1.1-.5,0-1,.3-1.5.2-.3,0-.6,0-.7-.3-.3-.5-.2-1.4.3-1.8.3-.3,1.1.5,1.3,0,.1-.2-.4-.3-.4-.5,0-.5.8-.9,1.3-1,.9,0,1.9.5,2.4,1.3.4.6.3,1.5,0,2.2-.1.4-.4.8-.8.9h0ZM649.2,131.3c-.2.2-.4.3-.7.3-.7,0-1.2-.8-1.9-.8-.6,0-1.2.7-1.8.5-.3,0-.5-.3-.6-.6-.2-.6-.2-1.4.3-1.7.4-.3,1.2.5,1.5,0,.2-.2-.4-.5-.4-.8.2-.5.9-.7,1.5-.8.5-.1,1.2-.2,1.7,0,.6.3,1.1.9,1.2,1.5.2.8-.1,1.9-.7,2.5ZM628.9,134.5c-.3.6-1.1,1-1.7,1.3-.5.2-1.1.2-1.6.1-.5,0-.9-.5-1.5-.5-.4,0-.7.4-1.1.2-.3-.2-.4-.6-.5-.9-.1-.7,0-1.3.2-2,.1-.5.3-.9.5-1.3.2-.4.2-.9.5-1.2.6-.7,1.5-1.3,2.4-1.3.7,0,1.4.3,2,.7.6.4,1,1,1.3,1.7.2.4.3.8.2,1.3,0,.4-.6.7-.7,1.1,0,.3.1.7,0,1h0ZM605.6,173c-.2.8-1.3.9-2.1,1.1-.3,0-.8-.3-1,0-.2.2-.3.6-.1.8.2.3.8.1.9.4.2.4.1,1-.2,1.3-.4.5-1.3.7-1.9.4-.5-.3-.1-1.1-.5-1.5-.2-.2-.7-.1-.8-.4-.2-.4.3-1,.1-1.4,0-.3-.5-.4-.5-.7,0-.5.6-.9,1-1.1.3-.1.7.1.9,0,.4-.2.4-1.1.9-1.2.9-.3,2,.5,2.7,1.2.3.3.7.7.6,1.1h0ZM597.8,170.6c-.1.3-.5.6-.8.6-.5,0-1.2-.1-1.5-.6-.2-.3-.2-.8,0-1.2.2-.3.6-.4.9-.5.4-.1.9-.3,1.2,0,.4.3.5,1.1.3,1.6h0ZM596.3,179.2c.8.8,1,2.3.4,3.2-.3.4-.9.5-1.3.5-.5,0-.9-.4-1.2-.8-.4-.6-.7-1.4-.6-2.2,0-.4.3-.9.7-1,.6-.3,1.5-.2,2,.3h0ZM572.7,212.1c-.8,0-1.9.7-2,1.5-.2,1,.9,2,1.8,2.6.5.3,1.2.7,1.7.4.7-.5.8-1.7.6-2.5-.3-.9-1.1-1.9-2-2ZM568.2,209.2c.1.4,0,1-.5,1.2-.4.3-1.1.3-1.5,0-.2-.2-.3-.5-.2-.8,0-.5.4-1.2.9-1.3.5,0,1.1.4,1.2.8h0ZM653.8,203.4c.3.3.5.8.4,1.3-.1.5-.7,1-1.2,1-.5,0-.7-.7-1.2-.9-.5-.2-1.2.3-1.5-.1-.2-.3,0-.8.2-1.1.3-.5.8-.9,1.3-.9.7,0,1.4.3,1.9.8h0ZM762.2,183.9c.2.7.4,1.5,0,2.2-.3.5-.9.9-1.4,1-.8.2-1.6,0-2.3-.5-.6-.4-1.3-1.1-1.2-1.9,0-.4.9-.4,1-.8,0-.3-.5-.6-.4-1,.2-.4.7-.6,1.2-.6.5,0,.9.6,1.4.6.3,0,.5-.3.8-.2.5.2.7.7.9,1.2h0ZM736.2,232.5c-.2.5-.5,1.2-1,1.3-.6.2-1.3-.3-1.8-.8-.5-.5-1.1-1.1-.9-1.8.2-1,1.5-1.9,2.5-1.8.6,0,.9.9,1.1,1.5.2.5.3,1,.1,1.5h0ZM737,224.9c.1.4.3,1,0,1.3-.2.3-.7.3-1,.3-.6,0-1.2-.2-1.5-.7-.3-.5-.4-1.4,0-1.8.4-.4,1.3-.3,1.8,0,.3.2.5.5.7.9h0ZM735.7,221.8c.2.3.2.7,0,1-.1.3-.5.4-.8.5-.4,0-.9,0-1.2-.2-.3-.2-.6-.7-.5-1.1.1-.4.6-.7,1.1-.8.5,0,1,.2,1.3.5h0ZM732.3,219.7c.2.4.6,1,.3,1.4-.3.5-1.1.7-1.6.5-.9-.4-1.6-1.9-1-2.7.3-.5,1.2-.1,1.7.1.3.1.5.4.6.6ZM814.1,179.9c.3.6,0,1.4-.4,1.9-.6.7-1.7,1.2-2.6.9-.4-.2-.3-1-.8-1.2-.4-.1-.7.4-1.1.3-1.2-.2-2.8-.9-3-2-.1-.6.8-1,.9-1.6,0-.4-.5-.7-.3-1,.2-.3.8,0,1.2,0,.7-.1,1.4-.9,2.1-.7.7.2.6,1.3,1.1,1.8.8.8,2.6.6,3,1.7h0ZM828.8,166.9c0,0,0,.1,0,.2-.2.6,0,1.6-.6,1.9-.6.3-1.3-.6-2-.7-.3,0-.6.2-.8.2-.4-.1-1-.4-1-.9,0-.2.6-.2.6-.5,0-.4-.8-.3-.9-.6-.1-.4,0-1.1.4-1.1.4,0,.4.8.8.8.4,0,1-.4,1-.8,0-.4-1-.6-.9-1,.2-.4,1.1-.4,1.4,0,.3.2,0,.8.2.9.3.1.6-.5.9-.3.3.1,0,.6.2.9.2.4.7.7.7,1.1h0ZM827.3,148.3c.3,1.2-.8,2.8-2,3.2-.3.1-.6-.5-1-.3-.6.2-.5,1.4-1.1,1.7-.3.1-.7-.3-1.1-.2-.2,0-.2.4-.4.4-.4,0-.9-.2-1-.6-.3-1.3,1.1-2.9,2.4-3.3.2,0,.4.3.6.3.6-.2.6-1.2,1.1-1.6.4-.2.8-.3,1.3-.3.5,0,1.1.2,1.3.7h0ZM829.7,136.2c-.4-.2-.8-.5-1-1,0-.3.2-.6,0-.8-.3-.8-2-.8-2-1.7,0-.7.8-1,1.4-1.4,1-.7,2.1-1.4,3.3-1.4.5,0,1,.2,1.3.6.3.4.3.9.3,1.4,0,.7-.1,1.5-.4,2.1-.4.8-1.1,1.6-2,2-.3.1-.6.2-.9,0h0Z"/>
    <path class="st7" d="M835.2,132.5c-1.7,0-3.6-1.7-3.7-3.4,0-1.3,1.2-3,2.6-3,.6,0,.8,1,1.3,1.2.4.2.9,0,1.3,0,.6.1,1.5.2,1.8.8.1.2,0,.6-.1.8-.4.6-1.5.5-1.9,1-.4.5,0,1.4-.4,1.9-.2.3-.5.7-.9.7h0ZM842.6,125.1c-1.2.8-2.1,3.6-.8,4.4.5.3.8-1.1,1.4-1.1.6,0,.8,1.2,1.4,1.3.6,0,1.1-.4,1.6-.7.6-.4,1.4-.9,1.4-1.6,0-.9-1.7-1.1-1.7-1.9,0-.8,1.4-.9,1.5-1.7,0-.5-.3-1.2-.8-1.4-1.2-.4-3.1.4-3.6,1.6-.2.4.9.9.6,1.3-.2.3-.7-.4-1-.2h0ZM851.3,117.7c-1.6-.5-3.8.3-4.7,1.7-.3.6,0,1.4.3,2,.4.6,1,1.4,1.7,1.4.7,0,.8-1.2,1.3-1.7.7-.7,2.1-.9,2.3-1.9,0-.6-.4-1.3-1-1.5h0ZM845.2,111.3c.8.3.8,1.5.9,2.3,0,.7,0,1.3-.3,1.9-.5,1.1-1.1,2.7-2.4,2.9-.7.2-1.5-.4-2-1-.4-.6,0-1.5-.4-2.2-.4-.6-1.7-.6-1.7-1.3,0-1.4,1.9-2.4,3.2-2.5.4,0,.7.6,1.2.6.5,0,.9-.9,1.4-.7h0ZM892.2,147.6c.4.5.5,1.5,0,2-.6.7-1.8.7-2.7.5-.6,0-.9-.7-1.5-.8-1.6-.1-3,2.1-4.4,1.5-.6-.3-1-1.2-.8-1.8.5-1.3,2.5-1.7,3.8-1.5.3,0,.5.8.8.7.3-.1-.2-.8,0-1,1.2-1.1,3.7-.7,4.7.5ZM887.5,157c.6,0,1,.6,1.5.7.4.1,1-.1,1.4.1.4.3.5.8.6,1.2.1.4.3.7.2,1.1,0,.4-.3.9-.7,1.1-.5.2-1.1,0-1.4-.4-.4-.4-.2-1-.5-1.4-.5-.8-1.9-1.1-1.8-2,0-.3.4-.4.7-.4h0ZM919.1,167.8c0,.5-.4,1.2-.9,1.3-.7.2-1.4-.9-2.2-.7-.7.2-.8,1.6-1.5,1.6-.2,0-.4-.2-.4-.4-.1-.4.2-.8.2-1.2,0-.5-.8-1-.5-1.4.3-.4.9.3,1.3,0,.2-.2.3-.5.2-.8,0-.4-.8-.4-.8-.8,0-.3.3-.7.6-.7.4,0,.4.8.8.8.5,0,.8-.7,1.2-.7.8.1,1.5.9,1.7,1.6,0,.2-.2.5-.2.7,0,.3.5.4.5.6h0ZM913.8,178.1c.4.3.8.7.8,1.1,0,.2-.3.4-.3.6,0,.2.3.3.3.5,0,.5-.4,1.1-.9,1.1-.9.1-1.7-.9-2.2-1.6-.3-.5,0-1.2-.5-1.7-.4-.5-1.2-.3-1.7-.7-.5-.4-1.1-1.1-.9-1.7,0-.2.4-.3.6-.3.3,0,.5.4.8.4.2,0,.5-.3.7-.2.5,0,1.1.3,1.4.8.1.2-.2.6,0,.8.3.6,1.3.4,1.9.8h0ZM921.1,186c-.3,1.5-2.5,2.3-4,2.2-.3,0-.4-.8-.8-.7-.2,0-.1.5-.3.7-.5.3-1.1-.2-1.6-.1-.4,0-.7.5-1.1.5-.4,0-.7-.3-.9-.6-.1-.2,0-.4,0-.6-.2-.3-.8-.2-.9-.5-.1-.5.3-1.1.7-1.3,1.3-.7,2.9.6,4.3.5,1.3-.2,2.4-1.7,3.7-1.3.5.2,1.1.8,1,1.3h0ZM949,179.8c.2.4.2,1.1-.2,1.4-.6.4-1.5-.1-2.2-.3-1.2-.4-2.2-1.4-3.4-1.6-.6,0-1.3.4-1.9.3-.3,0-.6-.3-.8-.5-.3-.3-.6-.7-.7-1.2,0-.4-.2-1.1.2-1.3.6-.5,1.6,0,2.3.3.5.3.8,1,1.3,1.2,1.1.5,2.5,0,3.7.4.7.3,1.4.7,1.7,1.3ZM984.9,190.4c.4-.3.7-1,.6-1.5,0-.3-.6-.4-.7-.8,0-.4.5-.8.3-1.1-.7-.9-2.3,0-3.4-.2-.7-.1-1.3-.4-2-.5-.8,0-1.8-.3-2.3.2-.5.6.4,1.7-.1,2.3-.9,1.1-3.8-.3-4.2,1.1-.5,1.9,2.4,3.7,4.3,4.2.5.1,1.1-.9,1.4-.5.3.3-.6.7-.5,1.1.2.7,1,1.3,1.7,1.3,1,0,1.8-1.1,2.1-2.1.2-.8-1-1.6-.8-2.4.2-.6,1-.9,1.6-1.1.6-.2,1.4.3,1.9,0ZM895.5,195.5c0,.9-.6,2.2-1.5,2.4-1.6.5-4.1-.7-4.5-2.3-.3-1,.7-2.2,1.7-2.7.5-.3,1.2-.1,1.8,0,.7.2,1.4.5,1.9,1.1.4.4.7,1,.7,1.6h0ZM887.7,201.8c-1.1,0-2,1.2-3.1,1.5-1.2.3-3.2-1-3.8,0-.9,1.6,3.1,3,2.9,4.9,0,.5-1,.6-1,1.1,0,.5.4,1,.9,1.2.3.1.5-.2.8-.2.4,0,.5.6.9.6.8,0,1.5-.9,1.8-1.6.4-1.2-1.6-3-.6-3.7.7-.5,1.8.6,2.1,1.4.2.6-.4,1.1-.4,1.7,0,.7-.1,1.6.4,2,.5.4,1.3.3,1.9.1,1.1-.3,2.4-.8,2.9-1.9.4-.7.2-1.8-.2-2.5-.2-.4-1-.4-1-.8,0-.3.3-.5.6-.6.6-.2,1.3.3,1.8,0,.7-.5,1.2-1.5,1.1-2.3,0-.4-.5-.8-.9-.8-1.1,0-1.6,1.9-2.8,2-.6,0-1.1-.2-1.6-.5-.4-.3-.6-.9-1-1.2-.4-.3-1-.6-1.5-.6h0ZM869.8,199.1c.5-.3-.1-1.4.4-1.8.3-.3.9.3,1.3,0,.6-.4,1-1.4.7-2.1-.2-.4-1-.3-1.3-.7-.2-.2,0-.6-.2-.9-.3-.4-.7-.7-1.2-.9-.7-.2-1.5.2-2.2,0-.9-.2-1.5-1.5-2.4-1.4-.3,0-.4.5-.6.7-.3.2-.8,0-1.1.2-.5.4-.9,1.1-.9,1.7,0,.5.2,1,.5,1.4.4.6,1.3.7,1.6,1.3.1.4-.5.9-.3,1.3.3.8,1.1,1.5,1.9,1.6.7,0,1.1-1,1.7-1.1.7-.1,1.5.9,2.2.5h0ZM876.7,217.9c.6-1.2-1.9-2.3-1.7-3.6.1-1.2,2.3-1.6,2.3-2.8,0-.5-.4-1.1-.9-1.2-1.1-.3-2.1,1.1-3.3,1.3-1.1.2-2.3.3-3.4,0-.9-.3-1.9-.8-2.2-1.7-.4-1.2,1.5-2.6.9-3.7-.2-.3-.6-.5-1-.4-.3,0-.4.3-.7.4-.5.1-1.1-.3-1.5,0-1,.9.5,3-.4,3.9-.6.6-2.1-.3-2.7.4-.6.7.3,1.8,0,2.7-.2.5-.9.8-.9,1.4,0,.3.5.3.5.6,0,.2-.4.3-.4.5,0,.4.3.7.6.9.2.2.6,0,.9.2.4.2.3,1,.7,1.1.7.2,1.2-1,1.9-1.3.9-.3,1.9-.4,2.8-.3.9.2,1.7.9,2.6,1.2,1.1.4,2.1,1,3.3,1,.9,0,2.3.2,2.7-.6h0ZM859.7,210.7c.4.2.6.6.7,1.1.1.6,0,1.4-.4,1.9-.2.3-.7.4-.8.7-.1.4.3.8.2,1.3,0,.5-.4,1-.4,1.5,0,.9.8,1.9.4,2.7-.4.8-1.6,1.4-2.4,1.1-.4-.2,0-1-.3-1.1-.7-.3-1.2,1.1-2,1.2-.8.1-1.7-.2-2.3-.7-.3-.2-.3-.8-.6-.9-.8-.3-1.7.8-2.6.7-.5,0-1-.2-1.3-.6-.4-.5-.4-1.2-.4-1.8,0-.6.9-1.1.7-1.7-.3-1.3-1.9-1.9-3.1-2.6-.5-.2-1.2-.8-1.5-.4-.4.5.9,1.2.7,1.8-.1.4-.6.6-1,.8-.6.3-1.3.4-1.9.3-.6,0-1.3-.3-1.6-.8-.1-.2-.2-.5,0-.8.1-.4.4-.7.8-.9.4-.1.9.3,1.3.2.5-.2,1.2-.6,1.1-1.1-.1-.9-2.1-.7-2.4-1.6-.2-.6.9-1.3.7-2-.4-1.2-1.9-1.6-2.9-2.2-1.1-.7-2.5-.8-3.5-1.6-.5-.4-1.2-.9-1.3-1.6,0-.7.8-1.2,1-1.9.3-1.2.8-2.7,0-3.6-.3-.3-.9-.3-1.2,0-.4.3,0,1.2-.3,1.7-.2.3-.5.6-.8.7-.5.2-1.1.4-1.7.3-.6-.2-1.4-.6-1.4-1.3,0-.5,1.2-.6,1.1-1.1-.1-.6-1.4-.3-1.8-.8-.4-.6,0-1.5.3-2.2.5-1.1,1.2-2.7,2.4-2.8.9,0,1.1,1.4,1.9,1.8.8.3,1.7-.3,2.5,0,.5.2.8,1,1.3,1.1.8,0,1.2-1.1,2-1.1.4,0,.8,0,1.1.4.6.6,0,2,.7,2.6.9.7,2.4-.1,3.4.4.5.2.7,1,1.2,1.2.7.2,1.5-.7,2.1-.3.2.1,0,.5.2.6.4.2,1-.6,1.5-.3.2.2,0,.7.2.9.8.4,1.6-1.4,2.4-1.1,1.1.5.2,2.8,1.2,3.4.3.1.7-.4.9-.2,1,.8.3,2.7-.2,4-.2.5-.4.9-.8,1.2-.7.5-2,0-2.5.8-.7,1.1-.4,2.8.3,3.9.6.9,1.7,1.5,2.8,1.5.8,0,1.5-.6,2.1-1.1.4-.3.5-1.1,1.1-1.2.4,0,.8.5,1.2.5.6,0,1.1-.6,1.6-.4h0Z"/>
    <path class="st7" d="M855.1,209.2c.3.5,0,1.2-.4,1.6-.3.3-.8.3-1.2.2-.6-.2-1.2-.6-1.3-1.1-.1-.4,0-1,.4-1.2.7-.4,2-.1,2.4.6ZM848.6,189.4c1.1.7.4,2.6.1,3.8-.2.6-.5,1.2-.9,1.6-.5.4-1.2.6-1.9.7-.5.1-1.1.3-1.6,0-.9-.5-1.5-1.7-1.3-2.7.1-.9,1.1-1.5,1.8-2,1.1-.8,2.7-2.2,3.8-1.5ZM827.1,249.8c0,.3-.1.7-.4.9-.3.2-.8.3-1.2,0-.4-.2-.7-.7-.6-1.2,0-.3.5-.6.8-.7.5,0,1.2.4,1.4.9h0ZM893,249.9c.2.4.2.9-.1,1.2-.4.4-1.2.3-1.7,0-.2-.1-.3-.4-.3-.7,0-.5.6-1.1,1.2-1.2.4,0,.8.4.9.7h0ZM888.7,223c-.4-.4-1-.4-1.5-.3-.3.1-.6.5-.6.8,0,.4.2.8.6,1.1.4.2.9.2,1.3,0,.2-.1.4-.3.5-.6,0-.4,0-.8-.2-1.1h0ZM829.9,366.7c.7.3,1.2,1.1,1.3,1.8,0,.5,0,1.1-.5,1.4-.6.5-1.7.7-2.4.4-.7-.3-1.4-1.2-1.4-2,0-.6.6-1.2,1.1-1.5.5-.3,1.3-.4,1.8-.2h0ZM579.6,78.1c.5,0,.8.5,1,1,.2.4.1.8,0,1.2-.2.6-.4,1.4-1,1.6-.6.2-1.2-.4-1.6-.8-.4-.5-.7-1.2-.4-1.7.3-.7,1.2-1.3,2-1.3h0ZM518.3,124.1c.2.4.2.9,0,1.2-.1.2-.3.3-.5.3-.6.1-1.4.2-1.7-.2-.3-.3-.2-.9,0-1.3.2-.5.6-1,1.1-1,.5,0,1,.5,1.2,1h0ZM485.8,116.6c.3.2.5.6.4.9,0,.2-.2.3-.4.4-.4,0-.8,0-1.1-.2-.2-.3-.3-.8,0-1,.3-.3.8-.2,1.2,0h0ZM469.6,104.4c.2.2.4.6.2.9-.2.3-.6.3-.9.2-.3,0-.5-.4-.6-.7,0-.2.1-.5.3-.6.3-.1.7,0,.9.1h0ZM482.6,165.8c-.3.1-.4.5-.4.8s.2.6.4.8c.2.2.6.2.8.1.3-.1.5-.4.5-.7,0-.3,0-.5-.2-.7-.3-.3-.8-.4-1.1-.3ZM480.2,165.4c.2.2.4.4.3.6,0,.3-.4.5-.7.6-.3,0-.8,0-1-.2-.2-.2,0-.5,0-.8.1-.2.3-.5.6-.6.2,0,.5.2.7.3h0ZM484.6,170.8c.2.1.2.6,0,.8,0,.1-.2.2-.4.2-.3,0-.7-.2-.7-.5,0-.4.6-.7,1-.5h0ZM485.1,168.6c.1.1.2.3.1.5,0,.2-.2.4-.4.4-.2,0-.3-.1-.4-.3-.1-.2-.3-.6,0-.8.2-.2.5,0,.7.2h0ZM480.5,189.3c0,.2,0,.6-.1.7-.3.3-.9-.2-1.3,0-.1,0-.1.3-.3.4-.2,0-.5.1-.7,0-.2-.2-.2-.6,0-.8.2-.2.5.2.7,0,.2-.2-.2-.6,0-.9.1-.2.4-.3.6-.3.2,0,.4,0,.6,0,.3.2.5.4.6.8h0ZM427.9,149.2c0,.6-1.4.9-1.2,1.5.1.4,1.2-.1,1.3.3.1.5-.8.9-1.3,1-.4.1-1-.5-1.3-.1-.2.2.4.5.4.8,0,.3-.1.8-.4.9-.3.1-.7-.1-1-.4-.2-.2-.3-.6-.3-.9,0-.3.3-.5.2-.7-.2-.6-1.1-.7-1.5-1.1-.2-.2-.5-.5-.6-.9-.3-1-.7-2.2-.2-3.1.3-.5.9-.6,1.4-.7.5,0,1,.1,1.5.3.7.3,1.5.7,2,1.3.5.5,1.1,1.1,1,1.8h0ZM416.8,228c-.4-.3-.9.2-1.4.2-.3,0-.6-.3-.8-.1-.6.6-.1,1.7.3,2.4,0,.1.3.2.5.3.4.1.8.2,1.2,0,.4,0,1.1-.2,1.2-.6.1-.5-.7-.8-.9-1.3-.1-.3,0-.7-.2-.9h0ZM354.5,160.2c0,.5,0,1.1-.2,1.5-.3.7-1,1.4-1.7,1.6-.9.3-2,.2-2.9-.2-.4-.2-.5-.7-.9-.8-.6-.2-1.4.3-1.9,0-.5-.3-.8-.9-1-1.5-.5-1.7-.7-3.6,0-5.2.2-.3.5-.6.8-.8.5-.2,1.1-.2,1.7-.1.9.2,1.8.5,2.6,1,1.2.8,2.2,1.8,2.9,3,.3.4.4.9.5,1.4h0ZM339.5,132.8c.1,1-2.1,1.3-2.1,2.4,0,.8,1.3.9,1.6,1.6.3.6.1,1.3,0,2-.1.8-.3,1.7-.9,2.3-.4.4-1.2.2-1.7.6-.9.8-.6,2.5-1.5,3.2-.2.2-.6.2-.9.2-1.5-.3-2.7-1.4-3.8-2.4-1.6-1.5-3.1-3.3-3.8-5.4-.2-.8-.5-1.7,0-2.4.8-1.2,2.5-1.6,4-1.9.4,0,.9.3,1.3,0,.5-.2.6-1,1-1.3.6-.3,1.6.2,1.9-.3.3-.4-.4-1-.2-1.5.2-.4.6-.7,1-.8.6,0,1.3.1,1.6.6.4.7-.5,1.6-.3,2.3,0,.3.3.7.7.8.4,0,.8-.6,1.2-.6.4,0,.9.2.9.6h0ZM335.9,213.9c-.3.9-1.2,1.8-2.2,1.9-1.4,0-3.3-1.1-3.5-2.5-.2-.9.7-1.7,1.5-2.2.7-.5,1.8-.9,2.6-.6.5.1.9.7,1.1,1.1.4.7.7,1.6.5,2.3h0ZM321.5,245.4c-.2.5-.6.9-1.1,1.1-.9.4-1.9.3-2.8,0-1.2-.5-2.9-1.3-3-2.6,0-.6.9-.9,1.1-1.4.5-1.1.2-2.4.4-3.6.3-1.3.1-3.1,1.3-3.7,1.4-.9,4.2-.7,4.9.8.2.4-.3.8-.6,1.1-.5.4-1.5,0-1.9.5-.6.8.3,2.1-.2,3-.1.2-.6.1-.7.4,0,1,1.8,1,2.2,1.8.4.8.6,2,.2,2.9ZM296.1,214.7c-.5.6-1.4.9-2.2,1.1-.6,0-1.1-.2-1.7-.2-.4,0-.7.2-1.1.2-1.2-.2-1.8-2.2-3-1.9-.4,0-.3.8-.6,1-.3.2-.6.4-.9.4-.5,0-1.1-.1-1.5-.5-.2-.2.1-.7,0-.9-.5-.4-1.5-.4-1.9,0-1.1,1,.5,3.3-.5,4.4-.8.8-2.2.7-3.2.5-1-.2-1.9-1-2.6-1.8-.7-.9-1.3-2-1.3-3.1,0-1.1.7-2.1,1.5-2.8.6-.5,1.5-.5,2.3-.5.6,0,1.2.9,1.7.7.4-.2.1-1,.4-1.4.6-.9,1.3-2.1,2.4-2.2.3,0,.5.5.9.5.6,0,.9-.8,1.5-1,1.4-.3,3.4-.5,4.2.7.5.6-.9,1.7-.3,2.2.4.3,1-.3,1.5-.3,1.4.1,2.9.5,4,1.5.6.5.9,1.3,1,2.1,0,.5,0,1-.4,1.3h0ZM268.3,199.3c-.1.6-.4,1.3-.8,1.7-1.1,1.2-2.6,2.4-4.1,2.3-1,0-1.9-.8-2.6-1.5-.5-.6-1-1.3-.9-2.1,0-.7.9-1,1.1-1.7.2-.6-.2-1.5.2-2,.5-.7,1.5-1,2.3-1.1,1.6-.1,3.5,0,4.5,1.3.6.8.4,2,.3,3h0ZM251.3,223.7c.3.4.3,1.1,0,1.4-.3.4-1,.5-1.5.3-.5-.2-.9-.9-.8-1.4,0-.4.6-.7,1-.8.5,0,1,.1,1.3.5h0ZM234.5,244.3c0,.4-.2,1-.6,1.2-.4.2-.9-.5-1.4-.4-.2,0-.3.4-.6.4-.4.1-.9.2-1.1,0-.4-.4-.3-1.3,0-1.7.3-.4,1,0,1.3-.3.2-.2.2-.6.5-.7.3-.1.7-.1,1,0,.5.3.8,1,.8,1.6h0ZM246.2,272.9c-.1-.5-.8-.9-1.3-.9-.4,0-.8.4-.9.7-.2.3-.3.9,0,1.2.3.4,1.1.5,1.6.3.4-.2.8-.8.7-1.3ZM239.9,275.3c.2-.5,0-1.4-.4-1.6-.3-.1-.7.2-.9.5-.1.2.2.6,0,.7-.3.3-.8-.5-1.2-.3-.5.2-.8.7-.8,1.2,0,.4.5.8.9,1,.5.2,1.2.2,1.5-.2.2-.2-.2-.6,0-.9.2-.3.9-.2,1-.5h0ZM307.1,295.6c-.3.8-1.1,1.7-1.9,1.8-1,.1-2.1-.7-2.7-1.6-.5-.8-.6-1.9-.3-2.7.2-.6.9-1.2,1.5-1.3,1.1-.1,2.3.5,2.9,1.3.5.7.7,1.7.4,2.4ZM300.6,304c0,.8-.6,1.6-1.3,1.9-.6.3-1.4,0-2.1-.2-.8-.3-1.6-.7-2.2-1.3-.6-.7-1.2-1.7-.9-2.5.1-.5.6-.8,1.1-.9,1.4-.3,2.9.5,4,1.3.6.4,1.3,1,1.3,1.7h0ZM283.8,297c.4-.3.4-1.1.3-1.6-.3-1.5-1-3.8-2.5-3.7-.5,0-.5.9-.6,1.3,0,.4.2.9,0,1.3-.2.5-1.2.6-1.1,1.2,0,.4.7.6,1.2.7.5,0,1-.6,1.3-.3.3.2,0,.9.3,1.2.3.2.8.2,1.1,0h0ZM338.1,331.7c.2,1,0,2.3-.9,2.8-.9.6-2.4.4-3.1-.4-.4-.5.6-1.7,0-2-.4-.2-.9.2-1.1.6-.5.7.4,2.1-.3,2.6-1.2.7-2.8-.5-3.8-1.4-.2-.2-.1-.8-.4-.9-.8-.3-1.6,1-2.4.9-1.3,0-2.9-.7-3.6-1.8-.3-.5-.2-1.3,0-1.9.3-1,.6-2.3,1.5-2.8.8-.4,1.8.7,2.7.6,1-.1,1.7-1,2.7-1.3,1.4-.4,3.1-1.3,4.4-.6,1.3.7.3,3.4,1.6,4.1.4.2,1-.4,1.4-.3.7.3,1.3,1.1,1.4,1.9h0ZM317.2,313c.3.8-.2,1.9-.8,2.5-.4.4-1,.7-1.5.7-1,0-2.1-.4-2.6-1.3-.6-1-.6-2.5,0-3.4.4-.5,1.1-.6,1.7-.5,1.2.2,2.8.8,3.2,1.9h0ZM380.7,241.8c.3.3.7.8.5,1.1-.2.5-1,.6-1.4.5-.5-.2-.8-.8-.9-1.3,0-.3-.2-.7,0-.9.5-.4,1.4.1,1.8.5ZM374.3,250.9c.3.1.6.4.6.7,0,.5-.3,1.2-.8,1.2-.4,0-.7-.6-.8-.9-.1-.2-.3-.6,0-.8.2-.3.8-.3,1.1-.2ZM370.4,261.2c.4.4.7,1.2.3,1.7-.2.3-.8.2-1.2,0-.5-.1-1.1-.4-1.2-.9-.1-.4.2-1,.6-1.2.4-.2,1.1,0,1.4.3ZM376.5,249.7c.2.2.3.6,0,.8-.2.2-.6.2-.9,0-.3-.2-.6-.8-.3-1.1.3-.3.8,0,1.1.2h0ZM497.5,356.9c-.2,0-.2.3-.4.4-.2.1-.5,0-.8,0-.3.2-.7.5-.6.8,0,.3.5.3.6.5,0,.2-.3.4-.2.6.3.6,1.1.8,1.7.9.3,0,.7,0,.9-.2.3-.2.4-.6.4-1,0-.6-.2-1.3-.6-1.7-.3-.2-.7-.4-1-.3h0ZM503.6,361.2c-.3,0-.8.1-1,.4-.4.5-.5,1.4-.1,2,.3.4.9.4,1.4.4.6,0,1.4-.2,1.6-.7.2-.7-.4-1.5-1-1.9-.3-.2-.6-.2-1-.1h0ZM516,385c0,.3-.2.7-.5.8-.5.2-1.1,0-1.4-.4-.2-.2-.2-.5-.2-.8,0-.2,0-.5.2-.6.2-.2.5-.3.7-.2.5.2,1.1.7,1.1,1.2h0ZM512.9,383.9c.2.3.1.8,0,1.2-.4.6-1.1,1.3-1.8,1.2-.4,0-.6-.4-.7-.7-.2-.4-.3-.8-.1-1.2.2-.5.8-1,1.4-1.1.5,0,1.1.2,1.4.6ZM521.8,394.8c0,.4-.6.5-.6.9,0,.3.3.5.3.7-.1.5-.6.9-1.1.9-.3,0-.5-.3-.7-.5-.1-.2-.3-.5-.2-.7.1-.3.7-.3.7-.6,0-.3-.3-.5-.3-.8,0-.3,0-.8.2-1,.4-.3,1-.1,1.4.2.3.2.4.6.4,1h0ZM542.8,393.6c.4-.1.9.2,1.1.5.3.4.4,1,.2,1.4-.1.4-.6.7-1,.7-.3,0-.6-.2-.9-.4-.2-.2-.5-.5-.5-.9,0-.6.4-1.2.9-1.4h0ZM541.7,396c.4.1.8.5.8,1,0,.3-.3.5-.6.6-.4,0-.9,0-1.1-.4-.2-.3-.2-.7,0-1,.2-.3.6-.3.9-.2h0ZM549.8,391.3c.2.3,0,.8-.1,1.1-.3.5-.9,1-1.5.9-.4,0-.7-.5-.9-.9,0-.3,0-.7.2-1,.2-.3.4-.6.8-.7.5,0,1.2.1,1.5.6h0ZM588.6,433.4c.4,0,.8.4,1,.8.1.3.2.7,0,1-.2.3-.6.4-.9.4-.4,0-.8-.4-1-.7-.1-.2-.2-.6-.1-.9.2-.4.6-.6,1-.6ZM590,430.2c0,.3-.1.7-.4.9-.1,0-.4,0-.5,0-.3-.2-.5-.5-.5-.8,0-.3.1-.6.4-.7.4,0,.9.3,1,.7ZM585.9,426.8c.1.2.2.6,0,.8-.2.2-.6.2-.9,0-.2-.1-.4-.4-.4-.6,0-.3.4-.6.6-.6.2,0,.5.1.6.4ZM499.7,386c0,.4,0,1.1-.5,1.3-.5.2-1.4-.1-1.6-.6-.3-.7,0-1.9.7-2,.6-.1,1.2.8,1.4,1.4h0ZM494.9,379.6c.1.5,0,1.1-.2,1.4-.3.3-.8.4-1.1.3-.5-.2-.7-.9-.7-1.4,0-.3.2-.7.4-.8.4-.2.9,0,1.3.2.1,0,.2.2.3.4h0ZM329.8,354.6c.6.2,1.1.8,1.4,1.4.3.5.3,1.1.3,1.7,0,.6,0,1.3-.3,1.7-.4.4-1.1.6-1.6.6-.9,0-2-.3-2.6-1-.6-.7-.7-1.8-.4-2.7.2-.7.9-1.3,1.6-1.6.5-.2,1.1-.2,1.6,0h0ZM321.4,424.5c1.3.5,2.3,2.1,2.6,3.5.2.8,0,1.7-.5,2.3-.8,1-2.5.7-3.4,1.6-.4.4-.3,1.2-.7,1.6-.3.3-.8.4-1.2.3-.5,0-.9-.7-1.4-.8-.5-.1-1,0-1.5,0-1.1-.1-2.6,0-3.2-.8-.2-.3-.1-.8,0-1.2.7-1.8,3.3-2.6,3.9-4.4.2-.7-.4-1.4-.3-2.1.2-.7.6-1.5,1.2-1.8.7-.4,1.6-.3,2.3,0,.5.1,1.1.4,1.2.8.2.5-1.1,1.1-.7,1.5.4.5,1.2-.5,1.7-.3h0ZM285.9,394.4c0,1.1-1.3,1.9-2.2,2.6-.8.7-1.7,1.8-2.8,1.6-1.1-.2-1.1-2.2-2.2-2.6-.2,0-.5.2-.8.1-.2,0-.5-.4-.5-.6,0-.4.4-.7.8-.7.4,0,.6.5,1,.5,1-.2,1.2-1.8,2.2-2.2.9-.4,2-.3,2.9,0,.6.2,1.4.6,1.5,1.3h0ZM257.7,398.3c.4.1.7.7.7,1.1,0,.3-.4.7-.7.8-.3,0-.6-.3-.9-.2-.2,0-.3.5-.5.5-.4,0-.8-.2-.9-.5-.2-.6-.1-1.7.5-1.8.4-.1.5.7.9.8.4,0,.6-.6,1-.5h0ZM250.2,447.5c.9.6,1.3,2.2.8,3.1-.2.3-.7.3-1.1.3-.5,0-.9-.3-1.2-.7-.2-.3,0-.8-.2-1-.2-.1-.5.2-.8.2s-.5,0-.8-.2c-.3-.2-.6-.5-.6-.9,0-.7.5-1.4,1.2-1.7.4-.2.9,0,1.2.2.3.2.2.8.5.9.3.2.7-.4,1-.2h0ZM209.9,274.3c.4.2.8.7.7,1.1,0,.5-.6,1.1-1.2,1.2-.6,0-1.3-.3-1.5-.9-.1-.3,0-.8.3-1,.4-.4,1.1-.6,1.6-.4h0ZM70.9,480.9c-.2.5-.9.8-1.5.9-.6,0-1.2-.1-1.8-.4-.9-.5-1.8-1.1-2.1-2.1-.3-.8,0-1.8.4-2.5.5-.7,1.3-1.3,2.2-1.2.7,0,1.2.7,1.6,1.3.8,1.2,1.7,2.7,1.2,4h0ZM125.1,471.2c.5.5.7,1.3.6,2,0,.6-.2,1.5-.8,1.7-.5.2-.9-.4-1.3-.6-.5-.1-1,.1-1.4-.2-.5-.3-.7-.9-.8-1.5,0-.4,0-1,.3-1.2.2-.1.4.4.7.4.5,0,.5-.9,1-1,.6-.2,1.3,0,1.8.3h0ZM121,471.2c.1.2.2.6,0,.8-.2.2-.6.3-.8.1-.2-.2-.2-.5,0-.8,0-.2.3-.3.5-.4.1,0,.3,0,.4.2h0ZM134.4,431.7c.5.2.8.8.9,1.3.3,1,.4,2.1-.2,2.9-.3.4-.8.6-1.3.6-1,0-2.1-.6-2.7-1.4-.5-.6-1.3-1.9-.6-2.4.3-.2.6.6.9.4.5-.2.3-1.1.7-1.4.7-.4,1.6-.4,2.3,0h0Z"/>
  </g>
  <path class="st2" d="M578.7,536.4l-20.6,27.1-35-28.6,23.9-23.3,31.7,24.8Z"/>
  <circle class="st9" cx="369.4" cy="265.9" r=".5"/>
</svg>