<?xml version="1.0" encoding="UTF-8"?>
<svg id="Layer_1" xmlns="http://www.w3.org/2000/svg" version="1.1" viewBox="0 0 1062.4 568.2">
  <!-- Generator: Adobe Illustrator 29.0.1, SVG Export Plug-In . SVG Version: 2.1.0 Build 192)  -->
  <defs>
    <style>
      .st0 {
        fill: #987f00;
      }

      .st1 {
        fill: #666;
      }
    </style>
  </defs>
  <g>
    <path class="st0" d="M579.1,418.2l1.3-.2-1.2-6.6-1.3.2,1.2,6.6ZM985,401.1l-3.4-.4.2-1.4,3.4.4-.2,1.5ZM973.5,393.3l-3.2-.4.3-2.8,3.2.4-.3,2.8ZM930.3,386.7l-2.3-.3.6-4.9,2.3.3-.6,4.9ZM916.4,384.8l-2.3-.3.6-4.7,2.3.3-.6,4.7ZM925.1,339.3l5.7.8-.4,2.7-5.7-.8.4-2.7ZM927,326.8l5.3.7.4-2.7-5.3-.7-.4,2.7ZM694.9,323.9l-.7,5-5.6-.9.7-5,5.7.9ZM695.6,319.2l-.7,4.2-5.7-.9.7-4.2,5.7.9ZM568,401.3l-6.5,1.3.6,3.6,6.5-1.3-.6-3.6ZM573.4,367.3l4.8-1,.7,3.7-4.8,1-.7-3.7ZM457.8,427.3l4.2-.9.6,3.1-4.2.9-.6-3.1ZM473,353.6l-.3-1.5-3,.6.3,1.5,3-.6ZM170.5,375.9l-5.9-.2v3c0,0,5.9.2,5.9.2v-3ZM601.1,124l4.3.6-.4,2.4-4.3-.6.4-2.4ZM541,108.2l.4-2.5-4.2-.6-.4,2.5,4.2.6ZM546.3,122.3l-8-1.1-.3,1.9,8,1.1.3-1.9ZM552.4,79.6l-7.9-1.1-.3,1.9,7.9,1.1.3-1.9ZM606,97.2l-7.2-1-.2,1.7,7.2,1,.2-1.7ZM595.5,282.1l5.1-.9.8,4.4-5.1.9-.8-4.4ZM444.7,271.5l-3.5-.2-.3,4.7,3.5.2.3-4.7ZM948.2,317.8l-.7,4.6-2.6-.4.7-4.6,2.6.4ZM715.8,298.8l-1.5-.2-.5,3.3,1.5.2.5-3.3ZM998.8,401.1l-2.1-.3,1-7.1,2.1.3-1,7.1ZM837.4,386.2l-2.5-.3.9-7.3,2.5.3-.9,7.3ZM711.7,308.1c.2,2.3-1.8,2.9-1,7.4.2,1.4-3.6.7-3.4-.5.3-2.2,1.1-4.7,1-7.4,0-1.3,3.3-.8,3.4.5h0ZM701.1,350.2c-.8-.2-1-3.2-.3-5.2.7-1.9,2.5-1.3,3.1-.2,1,2.1,1.1,4.6.3,5.2-.7.4-1.6.6-3.1.2h0ZM449.5,408.2l4.7-1-.3-1.4-4.7,1,.3,1.4Z"/>
    <path class="st0" d="M586.1,411.4l-10.9,2.1.3,1.7,10.9-2.1-.3-1.7ZM679.7,447.9l1.8-.4-1.3-5.7-1.8.4,1.3,5.7Z"/>
  </g>
  <g>
    <path class="st1" d="M711.3,363h0c0-.1,0-.3,0-.3h.5c0,0,.5.2.5.2l1.8-12.2-4-.6h0c0-.1,0-.3,0-.3l4,.6.2-1.2.2-1.2-5-.7.3-1.9.3-1.9h.1s.1,0,.1,0l-.3,1.7-.3,1.7,4.7.7.8-5.2,1.1-6.7-2.7-.4-2-.3-.3,1.8-.3,1.8h-.1s-.1,0-.1,0l.3-2,.3-2,2.2.3,2.8.4.2-1.2.2-1.2-2-.3-2-.3h0c0-.1,0-.3,0-.3l2,.3,2,.3.8-5.7-6.1-.9-2.2-.3v-.3s0-.3,0-.3l1.5.2.5-3.4.4-2.2,1.7.3,1.7.3h0c0,.1,0,.2,0,.2l-1.6-.2-1.6-.2-.3,2.1-.5,3.3,3.3.5,3.3.5.5-3.3.3-2.1h-.5c0,0-.5-.1-.5-.1h0c0-.1,0-.3,0-.3h.5c0,0,.5.1.5.1l2.3-14.8-3.1-.5-3.1-.5.6-3.4-1.5-.2v-.9c.1,0-.5,0-.5,0h-.7c0-.1.1-.8.1-.8v-.7c.1,0,.8.1.8.1h.6c0,0,.2-1,.2-1l1.5.2v-.2s.3,0,.3,0v.7c-.1,0,1.3.2,1.3.2l1.6.3v-.7c.1,0,.4,0,.4,0v.7c-.1,0,.4,0,.4,0v.3s-.7,0-.7,0l-3.2-.5-.6,3.6-.3,2,3,.5,3,.5.3-2,.6-3.6h-.7c0-.1,0-.4,0-.4h.7c0,.1,0-.1,0-.1h.2s.2-1.3.2-1.3h-.1s-.1,0-.1,0v-.6c0,0,.1-.2.1-.2l-1.4-.2-1.2-.2v.5c0,0-.3,0-.3,0v-.5c0,0-1.6-.3-1.6-.3l-1.5-.2v.5c0,0-.3,0-.3,0v-.5c0,0-2.3-.4-2.3-.4l-3.3-.5h0c0-.1,0-.3,0-.3l-2.8-.4-2.8-.4h0c0,.1,0,.3,0,.3l-5.1-.8-6-.9-2,13.2-1.8,11.3,3.3.5,3.2.5v.3s-.4,0-.4,0h-.5c0,0-.3,2-.3,2h-.9c0-.1-.9-.2-.9-.2v.6c-.1,0-.3,1.5-.3,1.5l2.9.4,3.1.5.2-1.4h.1s.1,0,.1,0l-.2,1.3,3.1.5h1c0,.1,0,.3,0,.3v.3s-1-.1-1-.1h-1c0-.1-.8,4.8-.8,4.8l-.8,4.9h-.1s-.1,0-.1,0l.3-2.1.3-2.1h-.5c0,0-1.8-.4-1.8-.4h0c0-.1,0-.6,0-.6l1.8.3h.5c0,0,.4-2.3.4-2.3l.4-2.7-2-.3-4.3-.7-.2,1.4-.2,1.4h-.9c0-.1-.9-.2-.9-.2l-.2,1.3-.2,1,4.3.6v.5c0,0,0,.1,0,.1l-8.2-1.2-2.4,16.6-2,13.3,4.8.7,7.2,1.1.3-2.1.3-2.1h.1s.1,0,.1,0l-.3,2.1-.3,2.1,4.9.8,7.3,1.1h0c0,.1,0,.3,0,.3l1.5.2,1.5.2ZM694.2,354.9h-.1s-.1,0-.1,0l1.5-9.7,1.5-9.7h0s0,0,0,0h0s0,0,0,0l-1.5,9.6-1.5,9.6ZM702.5,350.4c-.4,0-.9,0-1.5-.3-.8-.2-1-3.2-.3-5.2.7-1.9,2.5-1.3,3.1-.2,1,2.1,1.1,4.6.3,5.2-.4.3-.9.4-1.6.4h0ZM699.7,320.5h-.1s-.1,0-.1,0v-.4s0-.4,0-.4h-.5c0,0-.2-.1-.2-.1h0c0-.1,0-.3,0-.3h.3s.6.1.6.1h0s0,0,0,0v.5c0,0-.1.5-.1.5ZM717.6,318.6l-2.7-.4,1.3-8.2,2.6.4h0s0,0,0,0l-1.2,8.1ZM717.4,318.3l1.2-7.6h0s0,0,0,0l-2.1-.3-1.2,7.7,2.2.3ZM711.4,318.1h-.7c0-.1-.7-.2-.7-.2v-.7c.1,0,.2-.7.2-.7h.7c0,.1.7.2.7.2v.7c-.1,0-.2.7-.2.7ZM699.9,316.4h-.7c0-.1-.7-.2-.7-.2v-.7c.1,0,.2-.7.2-.7h.7c0,.1.7.2.7.2v.7c-.1,0-.2.7-.2.7ZM709.7,316.2c-.9,0-2.5-.5-2.4-1.3.4-2.5,1.1-5.6,1-7.4,0-1.1,3.3-.7,3.4.5.1,2-1.8,3.5-1,7.4.1.6-.6.8-1,.8h0ZM712.2,312.4h-.7c0-.1-.7-.2-.7-.2v-.7c0,0,.2-.7.2-.7h.7c0,.1.7.2.7.2v.7c-.1,0-.2.7-.2.7ZM700.8,310.6h-.7c0-.1-.7-.2-.7-.2v-.7c.1,0,.2-.7.2-.7h.7c0,.1.7.2.7.2v.7c-.1,0-.2.7-.2.7ZM713.1,306.7h-.7c0-.1-.7-.2-.7-.2v-.7c.1,0,.2-.7.2-.7h.7c0,.1.7.2.7.2v.7c-.1,0-.2.7-.2.7ZM701.7,304.9h-.7c0-.1-.7-.2-.7-.2v-.7c.1,0,.2-.7.2-.7h.7c0,.1.7.2.7.2v.7c-.1,0-.2.7-.2.7ZM702.6,299.2h-.7c0-.1-.7-.2-.7-.2v-.7c.1,0,.2-.7.2-.7h.7c0,.1.7.2.7.2v.7c-.1,0-.2.7-.2.7ZM893.3,220.8l-5.7-.6-.2,2.1,5.7.6.2-2.1ZM591.7,204.7h-6.1s0,2.3,0,2.3h6.1s0-2.3,0-2.3ZM572.6,195.9v-2s-5.6,0-5.6,0v2s5.6,0,5.6,0h0ZM546.9,136.5l-5.6-.7-1,7.7,5.6.7,1-7.7ZM397.6,148.6h-2.3c0,0-.2,5.7-.2,5.7h2.3c0,0,.2-5.7.2-5.7h0ZM388.8,227.3l-7.5-1.9-1.4,5.5,7.5,1.9,1.4-5.5ZM471.7,239.6l-5.7-.9-.4,2.3,5.7.9.4-2.3ZM441.1,438.7l-1.1-5.9-2.4.5,1.2,5.9,2.3-.5ZM680.6,451.8l1.8-.4v-.3c0,0,.3,0,.3,0v.3c0,0,4.6-1.1,4.6-1.1l-1.7-7.1-4.6,1.1,1.4,5.8h-.4c0,0-.6-2.5-.6-2.5l-1.8.4.9,3.9h0ZM534.4,297.5l-.3-2.1-5.8.9.3,2.1,5.8-.9ZM549.7,253.5h-5.7s0,2,0,2h5.7s0-2,0-2ZM870.3,172.6l-1.9-1.3-3.3,4.6,1.9,1.3,3.3-4.6Z"/>
    <path class="st1" d="M931.3,321.3l-.4,3.2-2.8-.4-1.5-.2.4-3.2.4-2.9,1.5.2,2.8.4-.4,2.9ZM933.5,315.4l-.4,3-3-.4-2.5-.3.4-3,.4-2.7,2.5.3,3,.4-.4,2.7Z"/>
    <path class="st1" d="M945.3,314.2h0c0,0,.3.1.3.1h.3c0,0-1.1,7.7-1.1,7.7h.2s0-.3,0-.3v-.3s.9.1.9.1h.5c0,0,.2-1.3.2-1.3l.2-1.4h-.5c0,0-.9-.2-.9-.2v-.8c.1,0,.2-.4.2-.4l1.6.2h1c0,.1,0,.4,0,.4h0s0,0,0,0v.7c0,0-.2.7-.2.7h0s0,0,0,0l-.3,2.3-.3,2.5-1.1-.2-1.7-.2-2.3,16.5-2.3,16.5-3-.4-3-.4.8-6,.8-6h0s0,0,0,0l-.8,6-.8,6-6-.8-5.5-.8,1.5-10.6,1.5-10.6h0s0,0,0,0l.2-1.1.2-1.1h0s0,0,0,0l.5-3.4.5-3.4h.5c0,0,1,.2,1,.2l-.2,1.7v.9c-.1,0,2.1.3,2.1.3l2.3.3h0c0-.1.2-1.3.2-1.3l-1.1-.2-1.1-.2v-.6c0,0,.2-.8.2-.8h1c0,.1,1,.3,1,.3v-.6c0,0,.2-.6.2-.6h0s0,0,0,0v.6c0,0-.2.6-.2.6h-1c0-.1-.2-.2-.2-.2l.2-1.4.3-1.9h.2s1,.2,1,.2v.9c-.1,0-.2.4-.2.4h0s0,0,0,0v-.6c0,0,.2-.6.2-.6l.6-4.3.6-4.3,2.9.4,2.9.4-.8,6-.8,6h0s0,0,0,0l.8-6,.8-6,1.7.2,1.7.2h0c0,0,0-.4,0-.4l1.9.3v.3ZM926.8,333.3l-.4,2.7h0s0,0,0,0l.4-2.7.4-2.7h0s0,0,0,0l-.4,2.7ZM925.8,340.8l-.2,1.3,1.1.2,1.1.2v-.4c0,0,.2-.9.2-.9l1.1.2,1.1.2v-.9c.1,0,.2-.6.2-.6l-2.2-.3-2.2-.3-.2,1.4Z"/>
    <path class="st1" d="M783.6,230.6l-1.8-.2.2-1.3,1.8.2-.2,1.3ZM786.3,224.8l-.6,4.5-3.7-.5.6-4.5,3.7.4Z"/>
    <path class="st1" d="M779.3,247.6l.2-2,1.7.2h0c0,0,0,.3,0,.3h1.3c0,.1,0,0,0,0h0c0,0,1.2,0,1.2,0l.3-2.2.2-1.6h-.3s0,0,0,0h0c0,0,.3,0,.3,0l.6-5.1.5-4.5-2.3-.3h0c0,0,0-.1,0-.1l2.3.3.2-1.5h-.4c0,0,0-.2,0-.2h.4c0,0,.2-1.3.2-1.3l-1.8-.2-.2,1.3h.4s0,.2,0,.2l-2.7-.3h0c0,0,0-.1,0-.1h.1s.1,0,.1,0l.7-6-1.6-.2-.5,3.9h0s0,0,0,0l.5-3.9-3.8-.5-.7,6,3.8.5v-1c.1,0,.2,0,.2,0h0s-.1,1-.1,1h.1s.1,0,.1,0h0c0,0,0,.1,0,.1l-4.2-.5-.2,1.8-.3,2.1h0s0,0,0,0v1.1c-.1,0-.3,1.1-.3,1.1h0s0,0,0,0l-.3,2.2-.3,2.8,5.8.7h0c0,0,0,.1,0,.1l-5.8-.7-.3,2.6-.4,3.2,2.6.3,2.6.3ZM782.8,242.2h-1.2c0-.1,0-.2,0-.2h0c0,0,1.2,0,1.2,0h0c0,0,0,.1,0,.1ZM567.5,87.1l-.4,3h-.5c0,0-.5-.1-.5-.1h0s0,0,0,0h.6c0,0,.6.2.6.2l-.2,1.5-.2,1.5h-.5c0,0-.5-.1-.5-.1h0s0,0,0,0h.5c0,0,.5.2.5.2l-.4,3-.4,3-1.5-.2-1.5-.2.4-3,.4-3h.5c0,0,.5.2.5.2h0c0,0,0-.1,0-.1l-2.7-.4-2.7-.4h0c0,0,0,.1,0,.1h.6c0,0,.5.2.5.2l-.4,3-.4,3-1.5-.2-1.5-.2.4-3,.4-3h.5c0,0,.6.2.6.2h0c0,0,0-.1,0-.1l-1.1-.2-1.1-.2h0c0,0,0,.1,0,.1h.6c0,0,.5.2.5.2l-.4,3-.4,3-1.5-.2-1.5-.2.4-3,.4-3h.5c0,0,.5.2.5.2h0c0,0,0-.1,0-.1h-.6c0,0-.6-.2-.6-.2l-.4,3.1-.4,3.1-3.1-.4-3.1-.4v.6c0,0-.2.6-.2.6h0s0,0,0,0v-.5c0,0,.2-.5.2-.5l3,.4,3,.4-.2,1.5-.2,1.5-3-.4-3-.4v-.5c0,0,.2-.5.2-.5h0s0,0,0,0l-.2,1.2-.2,1.2h0s0,0,0,0v-.6c0,0,.2-.6.2-.6l3,.4,3,.4-.2,1.5-.2,1.5-2.3-.3-2.3-.3h0c0,0,0,.1,0,.1l2.3.3,2.3.3-.2,1.5-.2,1.5-3-.4-3-.4.2-1.5.2-1.5h.4s.4,0,.4,0h0c0,0,0-.1,0-.1h-.4s-.4,0-.4,0v-.6c0,0,.2-.5.2-.5h0s0,0,0,0v.8c-.1,0-.3.8-.3.8l-.2,1.3-.2,1.3,3.1.4,3.1.4v.3s0,.3,0,.3h.4c0,0-.2,1.6-.2,1.6h-.4c0,0,0,.3,0,.3v.4s-1.6-.2-1.6-.2l-1.3-.2-.9.7-.9.7v.2s0,.2,0,.2h0s0,0,0,0v-.2s0-.2,0-.2l.9-.6.9-.6,1.3.2,1.5.2-.2,1.5-.2,1.5-2.3-.3-2-.3h0c0-.1,0-.3,0-.3h0s0,0,0,0v.2s0,.2,0,.2h-1c0-.1-.8-.2-.8-.2v.6c0,0-.2.6-.2.6h0s0,0,0,0v-.5c0,0,.2-.5.2-.5l3,.4,3,.4-.2,1.5-.2,1.5-3-.4-3-.4v-.5c0,0,.2-.5.2-.5h0s0,0,0,0l-.4,2.7-.4,2.7h0s0,0,0,0v-.5c0,0,.2-.6.2-.6l3,.4,3,.4-.2,1.5-.2,1.5-3-.4-3-.4v-.6c0,0,.2-.5.2-.5h0s0,0,0,0v.6c0,0-.2.6-.2.6h-.5c0,0-.3-.1-.3-.1v.3c0,0-1.4-.2-1.4-.2v-.3c0,0-.2,0-.2,0h-.5c0,0,0-.6,0-.6v-.5c0,0,0,0,0,0h0s0,.5,0,.5v.6c0,0-3.1-.4-3.1-.4l-3-.4.2-1.5.2-1.5,3,.4,3,.4v.5c0,0-.1.5-.1.5h0s0,0,0,0v-.3s0-.3,0-.3v-.8c.1,0,.2-.8.2-.8h0s0,0,0,0v.5c0,0-.2.6-.2.6l-3-.4-3-.4.2-1.5.2-1.5,3,.4,3,.4v.5c0,0-.2.5-.2.5h0s0,0,0,0v-.6c0,0,.2-.6.2-.6v-.6c0,0,.1-.6.1-.6h0s0,0,0,0v.6c0,0-.2.6-.2.6l-3-.4-3-.4.2-1.5.2-1.5,3,.4,3,.4v.5c0,0-.2.6-.2.6h0s0,0,0,0v-.6c0,0,.2-.6.2-.6l.2-1.6.2-1.6-1.2-.2-1.2-.2v-.8c.1,0,.2-.8.2-.8h-1.1c0-.1-1.1-.3-1.1-.3v-.7c.1,0,.2-.7.2-.7l2.3.3,2.3.3.4-3.1.4-3.1v-.6c0,0,.2-.6.2-.6h0s0,0,0,0v.6c0,0-.2.5-.2.5h-.4s-.4,0-.4,0h0s0,0,0,0h.4s.4,0,.4,0l-.4,3-.4,3-3-.4-3-.4.2-1.5.2-1.5,2.3.3,2.3.3h0s0,0,0,0l-2.3-.3-2.3-.3.2-1.5.2-1.5,2.3.3,2.3.3h0s0,0,0,0l-2.3-.3-2.3-.3.2-1.5.2-1.5,3,.4,3,.4v.6c0,0-.2.6-.2.6h0s0,0,0,0v-.6c0,0,.2-.6.2-.6l.2-1.2.2-1.2h0s0,0,0,0l-.2,1.1-.2,1.1-3-.4-3-.4.4-3,.4-3,3,.4,3,.4-.2,1.1-.2,1.1h0s0,0,0,0l.2-1.1.2-1.1.6-4.6.6-4.6,1.5.2,1.5.2-.4,3.1-.4,3.1h.6c0,0,.6.2.6.2h0s0,0,0,0h-.5c0,0-.6-.2-.6-.2l.4-3,.4-3,1.5.2,1.5.2-.4,3-.4,3h-.6c0,0-.5-.2-.5-.2h0s0,0,0,0h.5c0,0,.6.2.6.2l1.6.2,1.6.2h.5c0,0,.6.2.6.2h0s0,0,0,0h-.5c0,0-.5-.2-.5-.2l.4-3,.4-3,1.5.2,1.5.2-.4,3-.4,3h-.5c0,0-.6-.2-.6-.2h0s0,0,0,0h.6c0,0,.6.2.6.2h.6c0,0,.6.1.6.1h0s0,0,0,0h-.6c0,0-.6-.2-.6-.2l.4-3,.4-3,1.5.2,1.5.2-.4,3-.4,3h-.5c0,0-.6-.2-.6-.2h0s0,0,0,0h.6c0,0,.6.2.6.2h.6c0,0,.6.1.6.1h0s0,0,0,0h-.5c0,0-.6-.2-.6-.2l.4-3,.4-3,1.5.2,1.5.2-.4,3-.4,3h-.5c0,0-.5-.2-.5-.2h0s0,0,0,0h.6c0,0,.6.2.6.2h.6c0,0,.6.1.6.1h0s0,0,0,0h-.5c0,0-.5-.2-.5-.2l.4-3,.4-3,1.5.2,1.5.2-.4,3ZM548.2,90.7v.3s.2,0,.2,0h.3s0-.2,0-.2v-.3s-.2,0-.2,0h-.3s0,.2,0,.2Z"/>
    <path class="st1" d="M545.1,88.8l-.2,1.5-3-.4-3-.4.2-1.5.2-1.5,3,.4,3,.4-.2,1.5ZM550.5,117.7l-.2,1.5-3-.4-3-.4.2-1.5.2-1.5,3,.4,3,.4-.2,1.5ZM562.9,95.9l-.4,3-1.5-.2-1.5-.2.4-3,.4-3,1.5.2,1.5.2-.4,3Z"/>
    <path class="st1" d="M593.2,126.6l.7.9v.7c0,0-.2.7-.2.7l-1.8-.2-2.3-.3.2-1.5.2-1.5,1.5.2h1c0,.1.7,1,.7,1ZM598.5,131.9l-.3,1.9h0s0,0,0,0v-.5c0,0,.2-.5.2-.5l3,.4,3,.4-.2,1.5-.2,1.5-3-.4-3-.4v-.5c0,0,.1-.5.1-.5h0s0,0,0,0l-.2,1.1-.2,1.1h0s0,0,0,0v-.5c0,0,.1-.5.1-.5l3,.4,3,.4-.2,1.5-.2,1.5-3-.4-3-.4v-.5c0,0,.2-.6.2-.6h0s0,0,0,0v.5c0,0-.1.5-.1.5h-.5c0,0-.3-.1-.3-.1v.3s-.7,0-.7,0h-.7c0,0,0-.4,0-.4h-.3s-.5-.1-.5-.1v-.5c0,0,.1-.6.1-.6h0s0,0,0,0v.5c0,0-.1.5-.1.5l-3-.4-3-.4.2-1.5.2-1.5,3,.4,3,.4v.5c0,0-.1.5-.1.5h0s0,0,0,0l.2-1.1.2-1.1h0s0,0,0,0v.5c0,0-.1.5-.1.5l-3-.4-3-.4.2-1.5.2-1.5,3,.4,3,.4v.5c0,0-.1.5-.1.5h0s0,0,0,0l.3-1.9.3-1.9,1.5.2,1.5.2-.3,1.9Z"/>
    <path class="st1" d="M602.7,101.1l-.3,2.1h0s0,0,0,0v-.5c0,0,.2-.5.2-.5l3,.4,3,.4-.2,1.5-.2,1.5-3-.4-3-.4v-.5c0,0,.1-.5.1-.5h0s0,0,0,0l-.3,2.1-.3,2.1,3.1.4,3.1.4-.4,3-.4,3-3.1-.4-3.1-.4v.6c0,0-.2.6-.2.6h0s0,0,0,0v-.5c0,0,.1-.6.1-.6l3,.4,3,.4-.2,1.5-.2,1.5-2.3-.3-2.3-.3h0s0,0,0,0l2.3.3,2.3.3-.2,1.5-.2,1.5-2.3-.3-2.3-.3h0s0,0,0,0l2.3.3,2.3.3-.2,1.5-.2,1.5-3-.4-3-.4h0s0,0,0,0l.4-3,.4-3h.4s.4,0,.4,0h0s0,0,0,0h-.4s-.4,0-.4,0v-.5c0,0,.1-.6.1-.6h0s0,0,0,0l-.5,3.7-.5,3.7,1.2.2,1.2.2v.8c-.1,0-.2.8-.2.8h.2s.2,0,.2,0h.9c0,.1.9.3.9.3v.7c0,0-.2.7-.2.7l-2.3-.3-2.3-.3v.6c0,0-.2.6-.2.6h0s0,0,0,0v-.5c0,0,.1-.5.1-.5l3,.4,3,.4-.2,1.5-.2,1.5-3-.4-3-.4v-.5c0,0,.1-.5.1-.5h0s0,0,0,0v.7c0,0-.2.7-.2.7l-1.5-.2-1.5-.2h0c0-.1,0-.2,0-.2h-.1s-.1,0-.1,0v-.2s0-.2,0-.2h0s0,0,0,0v.2s0,.2,0,.2h-.6c0,0-1.1-.2-1.1-.2v-.8c.1,0,.2-.8.2-.8l-.7-.9-.7-.9h-1c0-.1-1.5-.3-1.5-.3v-.4s0-.4,0-.4h-.3s.2-1.6.2-1.6h.3s0-.3,0-.3v-.4s2.9.4,2.9.4l2.9.4-.3,2.1-.3,2.1h0s0,0,0,0l.3-2.1.3-2.1h.1s.1,0,.1,0v-.6c0,0,.2-.6.2-.6h0s0,0,0,0v.5c0,0-.1.5-.1.5l-3-.4-3-.4.2-1.5.2-1.5,3,.4,3,.4v.5c0,0-.2.5-.2.5h0s0,0,0,0l.2-1.2.2-1.2h0s0,0,0,0v.5c0,0-.1.5-.1.5l-3-.4-3-.4.2-1.5.2-1.5,3,.4,3,.4v.5c0,0-.1.5-.1.5h0s0,0,0,0l.2-1.1.2-1.1h0s0,0,0,0v.5c0,0-.1.5-.1.5l-3-.4-3-.4.2-1.5.2-1.5,3,.4,3,.4v.5c0,0-.1.5-.1.5h0s0,0,0,0l.2-1.7.2-1.7h0s0,0,0,0l-.2,1.1-.2,1.1-3-.4-3-.4.4-3,.4-3,3,.4,3,.4-.2,1.1-.2,1.1h0s0,0,0,0l.4-3.3.4-3.3h0s0,0,0,0v.5c0,0-.1.5-.1.5l-3-.4-3-.4.2-1.5.2-1.5,3,.4,3,.4v.5c0,0-.1.5-.1.5h0s0,0,0,0l.2-1.2.2-1.2h0s0,0,0,0v.5c0,0-.2.5-.2.5l-3-.4-3-.4.2-1.5.2-1.5,3,.4,3,.4v.5c0,0-.1.5-.1.5h0s0,0,0,0v-.5c0,0,.1-.5.1-.5l1.5.2,1.5.2-.3,2.1Z"/>
    <path class="st1" d="M595.4,130.8l-.2,1.5-3-.4-3-.4.2-1.5.2-1.5,3,.4,3,.4-.2,1.5ZM604.6,132l-.2,1.5-3-.4-3-.4.2-1.5.2-1.5,3,.4,3,.4-.2,1.5ZM598.8,106.2l-.2,1.5-3-.4-3-.4.2-1.5.2-1.5,3,.4,3,.4-.2,1.5ZM608,107.5l-.2,1.5-3-.4-3-.4.2-1.5.2-1.5,3,.4,3,.4-.2,1.5Z"/>
    <path class="st1" d="M458.2,408.3l.2,1.2h0s.4,0,.4,0l.2,1.2h-.4c0,0,0,0,0,0v.2s-2.5.5-2.5.5l-3.5.7.4,1.9.4,1.9h0s0,0,0,0l-.4-1.9-.4-1.9,3.4-.7,2.5-.5,1.1,5.6.9,4.6h-.3c0,0-1,.3-1,.3l-.2-.8-.2-.8h0s0,0,0,0l.2.8.2.8h-.6c0,.1-.6.3-.6.3l-.2-.8-.2-.8h0s0,0,0,0l.2.8.2.8h-.6c0,.1-.6.2-.6.2h0s0,0,0,0l-.2-.8-.2-.8h0s0,0,0,0l.2.8.2.8h-.6c0,.1-.9.3-.9.3l-.3-1.6-.5-2.4,2.8-.5,2.1-.4h0c0,0,0-.1,0-.1l-2.1.4-2.7.5v-.3c0,0-.1-.3-.1-.3h0s0,0,0,0l1.1,5.3.9,4.6,1.6-.3.9-.2.3,1.5,2.2-.4.3,1.5-7.6,1.6-1.7-8h0s0,0,0,0l.4,2.2.2,1.2-3.2.6-2.4.5-.5-2.6-.8-3.9,2.4-.5,3.2-.6v.5c0,0,.2.5.2.5h0s0,0,0,0l-.4-1.9-.4-1.9-2.1.4-1.6.3h0c0,0,0,.2,0,.2l1.5-.3,2-.4.3,1.3.3,1.3-3.2.6-2.4.5-.3-1.3-.3-1.3h.3c0,0,.3-.1.3-.1h0c0,0,0-.2,0-.2h-.3c0,0-.3.1-.3.1v-.4c0,0-.3-.9-.3-.9h0s-.3,0-.3,0l-.3-1.6h.3c0,0,0-.1,0-.1v-.3c0,0-.3-1.4-.3-1.4l2.5-.5,3.3-.7-.3-1.4-.3-1.4h0s0,0,0,0l.3,1.4.3,1.4-3.2.7-2.4.5-.3-1.6-.4-2.4,2.4-.5,3.2-.7v.4c.1,0,.2,0,.2,0h0s0-.5,0-.5l4.1-.8,4.9-1,.3,1.4ZM987.4,403l1.7-15.2-11.6-1.2-6.9-.8v-.3s-2-.2-2-.2v.3s-2.7-.3-2.7-.3l-1.7,15.2,5.9.6v.2s2,.2,2,.2v-.2s15.3,1.6,15.3,1.6ZM985,401.1l-3.4-.4.2-1.4,3.4.4-.2,1.4ZM973.5,393.3l-3.2-.4.3-2.8,3.2.4-.3,2.8ZM943.4,377.7h.1s.1,0,.1,0l-.2,1.4h-.1s-.1,0-.1,0l-2.5,19.6-41.4-5.2.6-5.5h-.1s-.1,0-.1,0l.7-6h.1s.1,0,.1,0l1-8.1h-.1s-.1,0-.1,0v-1.4c.1,0,.3,0,.3,0h.1s.3-1.9.3-1.9l35,4.4v1c-.1,0-.3,1-.3,1h.1s.1,0,.1,0v-1c.1,0,.3-1,.3-1l6.2.8-.2,1.9ZM928.3,383.4l-.4,3,1.4.2,1.4.2.2-1.2.2-1.2h-.2s-.2,0-.2,0l.2-1.8v-.6c0,0-1.2-.2-1.2-.2l-1.2-.2-.2,1.9ZM914.5,381.5l-.4,3,1.4.2,1.4.2.2-1.2.2-1.2h-.2s-.2,0-.2,0l.2-1.8v-.5c0,0-1.2-.2-1.2-.2l-1.2-.2-.2,1.7ZM939.8,382.1l-.2,1.4-1.4-.2-1.4-.2v.2s0,.2,0,.2l1.5.2,1.5.2.2-1.5.2-1.5h-.1s-.1,0-.1,0l-.2,1.4ZM485.2,353.6l.8,4h.1s.1,0,.1,0l.3,1.3.2.8h-.1s-.1,0-.1,0v.6c.1,0,.2.1.2.1l-8.9,1.9-8.9,1.9-.8-3.9-1.1-5.3h-.1s-.1,0-.1,0h0c0-.1-.3-1.4-.3-1.4h.1s.1,0,.1,0v-.2s0-.2,0-.2l1.7-.3,1.4-.3.4,1.8,3-.6-.4-1.8,6-1.2,5.7-1.2.9,4.3ZM473.3,357.4l.3,1.3,3.1-.7,3.1-.7-.3-1.3-.3-1.6-3.1.7-3.1.7.3,1.6ZM780.5,350h0c0,.1,5.8,1,5.8,1l-4.3,28.4-37.3-5.6h0c0,.1,0,.5,0,.5l-1.9-.3v-.4c0,0,0-.1,0-.1l-13.1-2,3.5-23.5h-.1s-.3,0-.3,0l.3-1.9h.3c0,0,.1,0,.1,0l.4-3,5.5.8h0c0-.1,0-.5,0-.5l5.9.9v.4c0,0,0,.1,0,.1l3.7.5-.9,5.7,4.4.7h0c0-.1,0-.3,0-.3l-4.1-.6.8-5.4,6.4,1-.9,5.4h-.4c0,0,0,.1,0,.1h0c0,.1.3.2.3.2h.3c0,0,.9-5.6.9-5.6l18.2,2.7h0c0-.1,0-.4,0-.4l6.3.9v.3ZM847.2,308.7v.2s2.7.5,2.7.5l5.8.9-.5,3.5-.4,2.6h.2s.2,0,.2,0l-.5,3.3-.3,2.2h-.2s-.2,0-.2,0l-2.3,14.6-2.4,15.6h.2s.2,0,.2,0l-.8,5.4h-.2s-.2,0-.2,0v.3c0,0-10.9-1.7-10.9-1.7l-12.6-2,.3-2,.7-4.4h-.2s-.2,0-.2,0l.8-5.5h.2s.2,0,.2,0l1-6.3h-.2s-.2,0-.2,0l.8-5.5h.2s.2,0,.2,0l.4-2.2,2.1.3,2.1.3.3-2.1.3-2.1h-.2s-.2,0-.2,0l-.3,1.9-.3,1.9-2-.3-2-.3.5-3.6h-.2s-.2,0-.2,0l.9-5.5h.2s.2,0,.2,0l.9-5.5,1-6.5,1.6.2,1.8.3v-.2s0-.2,0-.2l5.3.8,6.3,1v.2ZM171.7,295.1h0s1,2.2,1,2.2l1,2.2-2.9,1.3-2.9,1.3-1-2.2-1-2.2,2.9-1.3,2.9-1.3h0ZM159.7,356.6h0c0,0,3.6.2,3.6.2l7.9.2-.3,9.7-.3,9.1h-2.4c0,0-2.4-.1-2.4-.1v1.6s1.7,0,1.7,0v1.4s1.5,0,1.5,0h1.5s0,1.9,0,1.9v.7s.2,0,.2,0v5.2c-.1,0-.4,0-.4,0l-.4,15-.4,14.6-14.8-.4-9-.3.8-29.4.8-29.8h3.9c0,.1,3.6.2,3.6.2h0c0,0,0-.2,0-.2h2.4c0,0,2.4.1,2.4.1h0ZM565.2,423.6l12-2.2-1.7-9.3,6.1-1.1,1.8,9.6,1.8-.3-1.8-9.7,2.2-.4,1.7,9.4h.5c0,0-3.3-18-3.3-18l.8-.2-1.1-5.9h-.8c0,.1-3.2-17.3-3.2-17.3h.8c0-.1-.9-6.1-.9-6.1h-.9c0,.1-2.1-11.5-2.1-11.5l-11.1,2,2.1,11.7h-.7c0,.1-1.1-5.9-1.1-5.9l-2,.4v-.6c-.1,0,1.9-.4,1.9-.4l-1-5.2-11,2,1,5.2,7.7-1.4v.6c.1,0-7.4,1.4-7.4,1.4l1.1,6.1-1.1.2,1,5.6.9-.2,2.1,11.8-.9.2,1.1,5.9.9-.2.4,2.1,7.4-1.3,1.1,6h-.5c0,0-1-5.4-1-5.4l-3.4.6.3,1.8-1.7.3.3,1.6-1.7.3-.6-3.4,1.5,8.5,6.9-1.3-.3-1.4h.5c0,0,.2,1.3.2,1.3l.9-.2v.8c.1,0-8,1.5-8,1.5l2.2,11.9ZM573.9,410.1l-5.4-30,6.4-1.2.4,2.5h-.7c0,.1-.3-1.8-.3-1.8l-4.7.8,2,11.2,4.8-.9-1.3-7.2h.6c0-.1,1.4,7.8,1.4,7.8l-5.4,1,3.2,17.7-1,.2ZM188.6,447.9h0s0,2.4,0,2.4v2.4s-3.1,0-3.1,0h-3.2c0,0,0-2.4,0-2.4v-2.4s3.1,0,3.1,0h3.1c0,0,0,0,0,0ZM445.2,286.2l.4-4.7.4-4.7h1.1c0,0,2.2.2,2.2.2l.3-3.9.3-3.9v-.5s0-.5,0-.5l-2.5-.2h-1.3c0-.1,0,.2,0,.2v.3s-.9,0-.9,0h-.9c0,0,0-.4,0-.4v-.3s-3.1-.2-3.1-.2l-3.8-.3v.3s0,.3,0,.3h-.3s-.3,0-.3,0v1.3c0,0-.2,1.3-.2,1.3l-.2,2.5-.2,2.5h.3s.2,0,.2,0v.9c0,0-.1.9-.1.9h-.2s-.3,0-.3,0l-.2,3-.2,3v.8c0,0-.1.8-.1.8h.4s.2,0,.2,0v.3s0,.3,0,.3l3.8.3,3.2.2v-.3s0-.3,0-.3h.9c0,0,.9.1.9.1v.3s0,.3,0,.3h.3s.3,0,.3,0ZM444.4,276.2l-3.5-.2.3-4.7,3.5.2-.3,4.7ZM219.2,270.2l-6.2-.4-.3,5.6,6.2.4.3-5.6h0ZM113.4,432.7v-3.9c.1,0,5.5.2,5.5.2v3.9c-.1,0-5.5-.2-5.5-.2ZM104.3,435.3l-6.5-.2v-3.3c.1,0,6.6.2,6.6.2v3.3ZM106.3,379.4l-6.5-.2v3.2c0,0,6.4.2,6.4.2v-3.2ZM90.5,418.1l6.6.2v3.4c-.1,0-6.7-.2-6.7-.2v-3.4ZM80.8,439.2l-6.7-.2v-3.6c.1,0,6.8.2,6.8.2v3.6ZM81.5,404.5l-6.7-.2v3.6c-.1,0,6.6.2,6.6.2v-3.6ZM57.8,427l-5.3-.2v3.4c-.1,0,5.2.2,5.2.2v-3.4ZM82.3,382l-6.6-.2v-3.3c0,0,6.7.2,6.7.2v3.3ZM74.7,376.9l-6.6-.3v-3.5c.1,0,6.8.3,6.8.3v3.5ZM115.2,379.1l5.3.2v-3.7c.1,0-5.1-.2-5.1-.2v3.7ZM116,356.9l5.4.2v-3.4c0,0-5.3-.2-5.3-.2v3.4ZM113.8,446.4l-2.3-.2-.4,5.8,2.3.2.4-5.8ZM118.6,495.2l-2-1.2-3,4.9,2,1.2s3-4.9,3-4.9ZM121,327.3l-3.4-2.2-3.9,6,3.4,2.2,3.9-6ZM250.6,263.1l-6.2-.2-.2,5.6,6.2.2.2-5.6h0ZM390.9,288l-2.1-.9-2.3,5.3,2.1.9,2.3-5.3Z"/>
    <path class="st1" d="M573.6,251.9l-5.7-.8-.3,2.3,5.7.8.3-2.3ZM947.7,266.6l3-3.6c-1.9-1.6-3.8-3.3-5.8-4.9l-3,3.6,5.8,4.9ZM736.8,312.7l-2.3-.3-.8,5.8,2.3.3.8-5.8ZM728.8,274.4l-5.5-.8-.8,6.1,5.5.8.8-6.1h0ZM123.5,482.7l-2.3-.2-.6,5.8,2.3.2.6-5.8ZM179.6,468.1h-2.4c0-.1-.3,5.7-.3,5.7h2.4c0,.1.3-5.7.3-5.7Z"/>
  </g>
</svg>