<?xml version="1.0" encoding="UTF-8"?>
<svg id="Layer_1" xmlns="http://www.w3.org/2000/svg" version="1.1" viewBox="0 0 1062.4 568.2">
  <!-- Generator: Adobe Illustrator 29.0.1, SVG Export Plug-In . SVG Version: 2.1.0 Build 192)  -->
  <defs>
    <style>
      .st0 {
        fill: #987f00;
      }

      .st1 {
        fill: #666;
      }

      .st2 {
        fill: #555;
      }
    </style>
  </defs>
  <path class="st0" d="M540.9,108.4l.4-2.5-4.2-.6-.4,2.5,4.2.6ZM546.1,122.5l-8-1.1-.3,1.9,8,1.1.3-1.9ZM552.2,79.7l-7.9-1.1-.3,1.9,7.9,1.1.3-1.9Z"/>
  <g>
    <path class="st2" d="M550.6,117.9l-.2,1.5-3-.4-3-.4.2-1.5.2-1.5,3,.4,3,.4-.2,1.5ZM542.2,110.4l-.2,1.5-3-.4-3-.4.2-1.5.2-1.5,3,.4,3,.4-.2,1.5ZM554,93.2l-.2,1.5-3-.4-3-.4.2-1.5.2-1.5,3,.4,3,.4-.2,1.5ZM545.2,88.9l-.2,1.5-3-.4-3-.4.2-1.5.2-1.5,3,.4,3,.4-.2,1.5ZM555.3,84l-.2,1.5-3-.4-3-.4.2-1.5.2-1.5,3,.4,3,.4-.2,1.5Z"/>
    <path class="st1" d="M566.8,91.9l-1.1,7.7-6.1-.9-6.1-.9.5-3.5.5-3.5h0s0,0,0,0v.4s0,.4,0,.4l-3.1-.4-3.1-.4-.3,2.1-.3,2.1h0s0,0,0,0v-.6c0,0,.2-.6.2-.6l3,.4,3,.4-.2,1.5-.2,1.5-3-.4-3-.4v-.6c0,0,.2-.6.2-.6h0s0,0,0,0l-.2,1.2-.2,1.2h0s0,0,0,0v-.6c0,0,.2-.5.2-.5l3,.4,3,.4-.2,1.5-.2,1.5-3-.4-3-.4v-.6c0,0,.2-.6.2-.6h0s0,0,0,0l-.2,1.2-.2,1.2h0s0,0,0,0v-.6c0,0,.2-.6.2-.6l3,.4,3,.4-.2,1.5-.2,1.5-3-.4-3-.4v-.6c0,0,.2-.6.2-.6h0s0,0,0,0v.6c0,0-.2.6-.2.6l3.1.4,3.1.4-.4,3-.4,3-3.1-.4-3.1-.4v.6c0,0-.2.6-.2.6h0s0,0,0,0v-.5c0,0,.2-.5.2-.5l3,.4,3,.4-.2,1.5-.2,1.5-3-.4-3-.4v-.5c0,0,.2-.5.2-.5h0s0,0,0,0l-.2,1.1-.2,1.1h0s0,0,0,0v-.5c0,0,.2-.5.2-.5l3,.4,3,.4-.2,1.5-.2,1.5-3-.4-3-.4v-.6c0,0,.2-.6.2-.6h0s0,0,0,0l-.4,2.7-.4,2.7h0s0,0,0,0v-.6c0,0,.2-.6.2-.6l3,.4,3,.4-.2,1.5-.2,1.5-3-.4-3-.4v-.6c0,0,.2-.6.2-.6h0s0,0,0,0v.6c0,0-.2.5-.2.5h-.6c0,0-.6-.2-.6-.2v.3s-.8-.1-.8-.1v-.3s-.5,0-.5,0h-.6c0,0,0-.6,0-.6v-.6c0,0,0,0,0,0h0s0,.5,0,.5v.6c0,0-3.1-.4-3.1-.4l-3-.4.2-1.5.2-1.5,3,.4,3,.4v.6c0,0-.2.6-.2.6h0s0,0,0,0v-.6c0,0,.2-.6.2-.6v-.6c0,0,.1-.6.1-.6h0s0,0,0,0v.6c0,0-.2.6-.2.6l-3-.4-3-.4.2-1.5.2-1.5,3,.4,3,.4v.6c0,0-.2.6-.2.6h0s0,0,0,0v-.6c0,0,.2-.6.2-.6v-.6c0,0,.1-.6.1-.6h0s0,0,0,0v.6c0,0-.2.6-.2.6l-3-.4-3-.4.2-1.5.2-1.5,3,.4,3,.4v.6c0,0-.2.6-.2.6h0s0,0,0,0v-.6c0,0,.2-.6.2-.6l.2-1.6.2-1.6-2.3-.3-2.3-.3v-.7c0,0,.2-.7.2-.7h.5c0,0,.5.1.5.1v-.8c.1,0,.2-.8.2-.8l1.8.3,1.8.3.4-3.1.4-3.1v-.6c0,0,.2-.6.2-.6h0s0,0,0,0v.6c0,0-.2.6-.2.6h-.4s-.4,0-.4,0h0s0,0,0,0h.4s.4,0,.4,0l-.4,3-.4,3-3-.4-3-.4.2-1.5.2-1.5,2.3.3,2.3.3h0s0,0,0,0l-2.3-.3-2.3-.3.2-1.5.2-1.5,2.3.3,2.3.3h0s0,0,0,0l-2.3-.3-2.3-.3.2-1.5.2-1.5,3,.4,3,.4v.6c0,0-.2.6-.2.6h0s0,0,0,0v-.6c0,0,.2-.6.2-.6l.2-1.2.2-1.2h0s0,0,0,0l-.2,1.1-.2,1.1-3-.4-3-.4.4-3,.4-3,3,.4,3,.4-.2,1.1-.2,1.1h0s0,0,0,0l.2-1.1.2-1.1.2-1.6.2-1.6v-.6c0,0,.2-.6.2-.6h0s0,0,0,0v.6c0,0-.2.6-.2.6l-3-.4-3-.4.2-1.5.2-1.5,3,.4,3,.4v.6c0,0-.2.6-.2.6h0s0,0,0,0v-.6c0,0,.2-.6.2-.6v-.6c0,0,.1-.6.1-.6h0s0,0,0,0v.6c0,0-.2.6-.2.6l-3-.4-3-.4.2-1.5.2-1.5,3,.4,3,.4v.6c0,0-.2.6-.2.6h0s0,0,0,0v-.6c0,0,.2-.6.2-.6l1.5.2,1.5.2-.4,3.1-.4,3.1,3.1.4,3.1.4v.4s0,.4,0,.4h0s0,0,0,0l.5-3.5.5-3.4,6.1.9,6.1.9-1.1,7.7Z"/>
  </g>
</svg>