<?xml version="1.0" encoding="UTF-8"?>
<svg id="Layer_1" xmlns="http://www.w3.org/2000/svg" version="1.1" viewBox="0 0 1062.4 568.2">
  <!-- Generator: Adobe Illustrator 29.0.1, SVG Export Plug-In . SVG Version: 2.1.0 Build 192)  -->
  <defs>
    <style>
      .st0 {
        fill: #987f00;
      }

      .st1 {
        fill: #666;
      }
    </style>
  </defs>
  <path class="st1" d="M707.9,352.1l7.9-52.8-16.6-2.5-7.9,52.8,7.5,1.1v-.2s.2-.8.2-.8h.8c0,.1.8.2.8.2v.8c-.1,0-.2.2-.2.2l7.5,1.1ZM701.5,343.9h-.8c0-.1-.8-.3-.8-.3v-.8c.1,0,.2-.8.2-.8h.8c0,.1.8.2.8.2h0s0,0,0,0v.8c-.1,0-.2.8-.2.8ZM702.7,336.2h-.8c0-.1-.8-.3-.8-.3v-.8c.1,0,.2-.8.2-.8h.8c0,.1.8.3.8.3v.8c-.1,0-.2.8-.2.8ZM703.9,328.5h-.8c0-.1-.8-.3-.8-.3v-.8c.1,0,.2-.8.2-.8h.8c0,.1.8.2.8.2v.8c-.1,0-.3.8-.3.8ZM705.1,320.7h-.8c0-.1-.8-.3-.8-.3v-.8c.1,0,.2-.8.2-.8h.8c0,.1.8.3.8.3v.8c-.1,0-.2.8-.2.8ZM706.2,313h-.8c0-.1-.8-.2-.8-.2v-.8c.1,0,.2-.8.2-.8h.8c0,.1.8.2.8.2v.8c-.1,0-.3.8-.3.8ZM707.4,305.3h-.8c0-.1-.8-.3-.8-.3v-.8c.1,0,.2-.8.2-.8h.8c0,.1.8.3.8.3v.8c-.1,0-.2.8-.2.8ZM568.3,420.5l2.8-.5-1.9-10.5h-.6c0,.1,0-.1,0-.1l5-.9h.6c0-.1-.2-1-.2-1h.2s2.9,14.1,2.9,14.1l10.8-1.9-3.6-17.8-10.8,1.9.4,2h-.2s-.5-2-.5-2l-8,1.5v-.2s.4,0,.4,0v-.7c-.1,0-3.4.6-3.4.6v.7c.1,0,.6,0,.6,0v.2s-.4,0-.4,0l.9,4.6,3.7-.6v.2s-.6.1-.6.1l1.9,10.5ZM678.3,441.5l1.8-.4v-.5c-.1,0-.4,0-.4,0h0c0-.1.3-.2.3-.2l-.7-2.9-2.5.6.3,1.4.7-.2.4,1.5h.3c0,0,0,0,0,0h-.3c0,0,.1.6.1.6ZM997.7,393.2l2.1.3.3-2-2.9-.4v-.4c0,0-11.5-1.6-11.5-1.6l-.4,3.3,11.6,1.6v-.8c.1,0,.8.1.8.1ZM835.9,378l2.5.3.2-1.9-3-.4v-.5c0,0-10.9-1.3-10.9-1.3l-.4,3,11,1.3v-.6c0,0,.6,0,.6,0Z"/>
  <path class="st0" d="M568,400.8l-6.5,1.3.6,3.6,6.5-1.3-.6-3.6ZM998.9,400.6l-2.1-.3,1-7.1,2.1.3-1,7.1ZM837.5,385.6l-2.5-.3.9-7.3,2.5.3-.9,7.3ZM586.2,410.9l-10.9,2.1.3,1.7,10.9-2.1-.3-1.7ZM711.8,307.5c.2,2.3-1.8,2.9-1,7.4.2,1.4-3.6.7-3.4-.5.3-2.2,1.1-4.7,1-7.4,0-1.3,3.3-.8,3.4.5h0ZM701.1,349.6c-.8-.2-1-3.2-.3-5.2.7-1.9,2.5-1.3,3.1-.2,1,2.1,1.1,4.6.3,5.2-.7.4-1.6.6-3.1.2h0ZM679.8,447.4l1.8-.4-1.3-5.7-1.8.4,1.3,5.7Z"/>
</svg>