<svg width="2912" height="3184" fill="none" xml:space="preserve" xmlns="http://www.w3.org/2000/svg"><path d="M762.576 1693.284h19.947v53.68h37.404v8.13h-37.404v123.365h21.199v100.857h72.936v13.084h31.793v124.613h-49.246v50.496h82.91v-130.861h100.369v368.286h66.957v-76.484h86.4v-73.076h72.315v-38.393h68.573V1970.59h76.055v39.883h31.172v-41.245h135.901v41.245h30.64v-41.03h167.148v-77.491h134.652v266.21h-15.113v81.01h15.113v145.822h254.812v6.02l58.833-.072v-58.664l-58.833.072v-523.78h24.93v-21.188h-24.93v-340.87h-92.898v93.475h36.162v31.157h-107.081v-17.446h-31.94v17.446h-104.108v-17.446h-32.416v17.446h-108.472V1337.46h-3.119v-4.985h8.73v-11.214h165.604c37.694.096 146.718.371 146.718-130.246v-60.36h53.612v-85.453h18.616v-27.722h-165.393v23.698h11.856v18.361h-11.856v26.08h11.856v17.777h-11.856v27.26h52.168v45.629c0 1.993.079 4.315.168 6.903 1.049 30.513 3.366 97.979-108.651 97.979h-848.903v-171.842h36.479v-40.699H968.247v40.699h36.752v225.773H971.21v192.425h71.27v108.432H782.523v36.142h-19.947zm204.305 127.28v-127.97h76.589v127.97h-7.398v-14.424h-60.68v14.424zm34.269-342.95v-43.852h69.356v43.851zm43.174-143.718v-13.284h368.828v137.75h-58.945v-9.79h-6.293v-55.937h6.293v-44.054h-162.985v11.888h-10.494v-26.573zm65.117 836.904v-82.485h158.482v46.7h-55.447v35.785Zm.784-113.166v-248.526h302.927v125.68h-113.228v35.555h3.557v87.291zm-1.72-360.83v-304.17h72.223v-13.985h7.696v13.986h2.798v55.936h-2.798v44.753h165.783v-2.797h58.945v206.276zm334.878 240.354v-129.774h136.348v129.774zm.443-240.355v-66.733h105.725v-133.25h51.138v-48.249h83.653v-13.284h12.626v135.652H1653.6v125.864zm0-200.794v-175.397h246.146v11.186h11.194v5.597h-4.198v67.825h-13.989v-3.497h-108.14v46.848h-49.758v47.438zm166.136 441.149v-129.774h78.844v68.74h52.761v61.034zm78.252-305.77v-29.036h421.484v46.221h5.662v24.886h-7.432v-5.926h-59.886v55.111h59.886v3.556h6.013v104.295h-44.549v-43.259h-119.49v77.588-17.45l-138.382.038V1696.57h-71.731v-65.182zm261.689 699.852v-220.751h164.038v220.75zm0-274.197v-182.415 38l9.515 8.683-3.912 4.051 19.522 20.446 4.017-4.016 6.282 6.277h128.614v108.974zm42.58-143.758v-22.623h38.885v22.623z" fill="#666" stroke="#000" stroke-width="2"/><path d="M1855.432 1566.031a8.446 8.446 0 0 1 8.448 8.444 8.446 8.446 0 0 1-8.448 8.445 8.446 8.446 0 0 1-8.448-8.445 8.446 8.446 0 0 1 8.448-8.444zm-197.298 225.067a8.446 8.446 0 0 1 8.448 8.445 8.446 8.446 0 0 1-8.448 8.444 8.446 8.446 0 0 1-8.448-8.444 8.446 8.446 0 0 1 8.448-8.445zm-57.953 169.895a8.446 8.446 0 0 1 8.448 8.445 8.446 8.446 0 0 1-8.448 8.444 8.446 8.446 0 0 1-8.448-8.444 8.446 8.446 0 0 1 8.448-8.445zm-409.33 334.328a4.426 4.426 0 1 1-4.428 4.425 4.426 4.426 0 0 1 4.427-4.425zm-73.248 15.288a4.426 4.426 0 1 1-4.427 4.425 4.426 4.426 0 0 1 4.427-4.425zm65.6 15.287v-12.069h6.44v12.07zm-12.476 0v-12.069h6.44v12.07zm-12.476 0v-12.069h6.44v12.07zm-38.119-136.788.414-7.43 18.08 1.004-.412 7.431zm.961 16.092-.498-7.425 18.068-1.213.499 7.426zm56.074-25.943v-7.04h25.354v7.04zm44.067-35.202v-8.046h40.448v8.046zm13.685 41.84v-21.322h12.475v21.322zm81.264 14.314-1.427-6.532 12.49-2.727 1.427 6.533zm256.861-483.643-.437-4.22 22.064-2.282.437 4.221zm-4.326-6.199-.07-4.242 28.889-.475.07 4.243zm3.594-2.358.164-4.24 28.87 1.117-.164 4.24zm33.794-2.965 3.102-4.463 12.919 8.97-3.103 4.464zm-63.94 63.67 4.819-6.934 10.35 7.187-4.82 6.935zm-342.96 29.228v-2.927h16.637v2.927zm12.686-62.41 6.927-6.93 3.95 3.944-6.926 6.932zm-39.524 66.597 5.503-10.92 4.987 2.51-5.503 10.921zm-22.974-92.791-1.802-6.814 14.483-3.827 1.802 6.814zm-20.999-2.095.987-6.979 14.832 2.096-.986 6.978zm-.19 35.356v-7.048h7.294v7.048zm94.564 3.885v-10.933h7.293v10.933zm-36.085 55.68v-8.444h10.563v8.444zm82.042-31.94v-8.445h10.562v8.444zm306.129 25.935v-8.444h10.562v8.444zm36.069 3.384v-11.827h7.325v11.827zm45.183-183.493 6.969.177-.242 9.544-6.969-.176zm220.973-30.359-.564-4.74 19.841-2.36.564 4.74zm-4.953-5.437v-5.779h30.796v5.78zm-145.958 272.622 7.89-7.056 5.222 5.835-7.89 7.056zm2.182-7.09v-8.14h12.115v8.14zm-.167-187.712v-11.42h10.08v11.42zm-52.371-2.002 6.969.177-.36 14.194-6.968-.176zm-1.439 65.832 6.97.176-.36 14.195-6.969-.177zm-11.181 21.333.294-6.962 14.192.6-.294 6.962zm4.807 52.148 2.04-6.663 13.583 4.156-2.04 6.663zm-44.156 12.601v-11.827h7.326v11.827zm-106.307 156.409 5.729-10.348 6.41 3.546-5.73 10.348zm-213.17-16.453v-7.574h7.388v7.574zm-2.655 190.836v-13.922h25.522v13.922zm17.445 50.431v-12.007h11.484v12.007zm3.193 27.663v-15.624h8.291v15.624zm-9.153 0v-12.88h8.291v12.88zm-13.283 0v-10.46h9.66v10.46zm-43.464 28.16v-10.459h6.841v10.46zm-12.476 0v-10.459h6.841v10.46zm-12.476 0v-10.459h6.841v10.46zm-12.476 0v-10.459h6.84v10.46zm-12.476 0v-10.459h6.84v10.46zm-18.111 31.38v-10.459h6.841v10.46zm-55.136-75.531v-25.144h5.862v25.144zm20.319 29.276-1.322-10.781 10.586-1.297 1.322 10.782zm-31.588-8.456v-7.242h8.45v7.242zM966.6 1975.565l6.266-6.252 5.17 5.178-6.265 6.252zm13.902-1.073-2.465-8.5 5.41-1.568 2.465 8.5zm-145.44-160.88-5.57-12.522 10.662-4.739 5.57 12.523zm-39.228 52.598-5.57-12.523 10.661-4.739 5.57 12.523zm61.66-179.741 1.985 7.015 14.006-3.96-1.985-7.016zm-44.737 57.587 1.986-7.016 14.006 3.961-1.985 7.016zm47.551-63.393 1.412-12.33 8.657.99-1.411 12.33zm-64.86-30.333v-12.907h12.266v12.907zm-11.451 13.258v-26.164h12.265v26.164zm88.52 20.65v-9.245h13.233v9.246zm106.558-160.4 1.183-6.843 12.234 2.113-1.183 6.843zm17.899 3.102v-11.604h7.968v11.604zm10.665 0v-7.796h4.921v7.796zm285.196-209.598 6.468-10.223 6.64 4.197-6.468 10.223zm-1.218 170.831.201-10.343 9.849.192-.202 10.343zm16.042-1.21 5.955-11.11 8.73 4.676-5.956 11.11zm108.182-34.52.395-12.878 6.494.199-.395 12.879zm.395 18.764.46-14.982 3.05.093-.46 14.982zm29.656 35.923 5.172-8.296 8.405 5.235-5.171 8.296zm-39.77-36.226.214-6.957 9.899.304-.214 6.956zm-69.795-44.28 2.675-6.426 9.143 3.804-2.675 6.425zm702.884 169.327 4.884-10.699 11.19 5.104-4.884 10.699zm17.981-.443 2.227-4.876 8.507 3.88-2.226 4.877zm13.695 5.362.72-10.238 5.682.4-.72 10.238zm41.846 24.081 4.19-11.988 5.377 1.878-4.19 11.988zm-1.137 11.975v-7.482h7.642v7.482zm13.263-1.347v-7.482h10.338v7.482zm-14.385 10.333v-7.482h22.923v7.482zm9.897-71.437v-23.207h13.035v23.207zm-45.6-36.411v-9.71h22.674v9.71zm0-22.914v-14.87h5.146v14.87zm0-27.188v-14.87h5.146v14.87zm30.108-34.19v-5.363h28.517v5.363zm-14.515-325.115v-14.35h7.378v14.35zm-9.408 0v-12.726h7.378v12.726zm-13.032 0v-6.363h11.017v6.363zm-116.075 0v-12.726h7.153v12.726zm142.255 359.305v-9.9h25.147v9.9zm0 29.653v-9.9h25.147v9.9zm-8.242 340.973-12.556-12.55 5.539-5.537 12.556 12.55zm0 16.64-12.556-12.55 5.539-5.538 12.556 12.551zm0 16.64-12.556-12.55 5.539-5.538 12.556 12.551zm-94.986-44.14v-40.16h17.043v40.16zm94.382 259.753.939-16.051 5.676.331-.939 16.052zm-29.82-3.576 1.768-14.73 21.041 2.525-1.768 14.73zm-114.27-67.472v-12.026h6.573v12.026zm-3.798 15.756v-10.366h10.37v10.366zm3.798 12.026v-12.026h6.573v12.026zm24.889 44.369v-9.704h15.284v9.704zm-11.372 0v-19.408h11.372v19.408zm174.03 215.544v-28.53h2.803v28.53zm-221.022-98.246 6.897-5.397 3.389 4.327-6.897 5.397zm5.925 157.128v-24.799h13.588v24.799zm83.795 0v-13.188h33.085v13.188zm125.691-58.882v-28.53h2.804v28.53zm2.805 2.073v-28.53h2.804v28.53zm-4.977 0v-28.53h2.804v28.53zm-2.805 2.074v-28.53h2.804v28.53zm-82.966-221.847v-19.408h11.371v19.408zm59.95-.012v-8.614h11.372v8.614zm41.371-242.242v-14.63h6.9v14.63zm-30.007 27.694v-32.897h7.413v32.897zm0-44.14v-14.425h7.413v14.424zm-18.772-8.32v-7.197h7.413v7.198zm-11.22 0v-7.197h7.413v7.198zm-69.86 48.5 5.855-9.418 6.977 4.333-5.855 9.418zm15.765-3.831 4.252-6.84 6.977 4.334-4.252 6.84zm4.252-36.35v-40.16h17.043v40.16zm-37.683-279.004v-9.9h12.57v9.9zm-277.248-44.63v-9.9h12.569v9.9zm-11.046-134.407v-7.235h6.664v7.235zm-147.65-96.574v-6.159h6.305v6.16zm64.736 154.45v-9.139h11.427v9.138zm11.426 0v-7.235h52.632v7.234zm17.589-39.981v-4.189h33.9v4.189zm-22.093 4.188v-8.377h22.093v8.377zm-33.899 0v-8.377h22.093v8.377zm-14.094 24.75v-23.226h7.618v23.226zm11.808 52.925v-18.238h9.904v18.238zm-28.379 5.33v-8.376h38.282v8.376zm-24.759-35.41v-8.377h29.522v8.377zm-8.569 17.134v-25.51h9.904v25.51zm14.855 69.678v-31.983h7.236v31.983zm0 69.297v-65.109h7.236v65.11zm-25.9 13.327v-6.092h24.377v6.092zm-28.948 0v-9.138h22.853v9.138zm-36.065 0v-6.092h30.35v6.092zm34.785-25.891v-14.088h22.99v14.088zm0-32.364v-50.26h22.99v50.26zm-39.614 8.612v-64.964h9.658v64.964zm-100.422-191.901v-35.326h6.094v35.326zm-52.635 62.589v-56.733h12.64v56.733zm-57.135 0v-56.733h12.64v56.733zm-46.798 33.252.691-25.85 3.755.1-.691 25.85zm7.634-2.115-1.42-21.674 4.918-.322 1.42 21.674zm-4.279 4.8-2.042-31.172 5.45-.356 2.042 31.17zm.4-37.46v-35.791h8.069v35.79zm27.806-88.715v-9.9h62.538v9.9zm-73.516 5.207v-25.769h10.788v25.769zm-28.186 0v-25.769h10.788v25.769zm-27.095-10.28v-15.488h10.787v15.488zm30.801 36.171v-6.899h14.164v6.9zm-27.425 0v-6.899h14.164v6.9zm-29.155-2.306v-25.746h6.165v25.746zm-15.66-9.139v-12.419h7.908v12.42zm-1.8 10.661v-9.373h11.087v9.373zm-15.039-2.665v-11.278h12.21v11.278zm12.209 96.331v-5.62h5.658v5.62zm6.269 1.688v-5.62h5.658v5.62zm6.945 1.123v-5.62h5.658v5.62zm36.231 20.271v-10.371h7.412v10.371zm-2.286 16.372v-10.37h7.412v10.37zm-45.71 3.898v-5.466h6.363v5.466zm-31.028 0v-7.796h27.426v7.796zm27.425 21.322v-7.255h9.966v7.255zm0 10.501v-7.255h9.966v7.255zm0 33.888v-11.443h7.207v11.443zm9.966 4.95v-13.14h8.23v13.14zm-78.887 84.908v-13.14h8.23v13.14zm77.913-78.064-.761-7.428 10.94-1.12.76 7.428zm-82.11 86.907v-9.246h13.234v9.246zm-94.256 2.133v-9.246h13.233v9.246zm-3.552 11.266v-9.246h26.79v9.246zm61.332 113.38v-26.903h10.329v26.903zm-1.777 12.262v-9.036h12.106v9.036zm-3.389 7.744v-9.035h12.913v9.035zm-10.976 0v-9.035h8.07v9.035zm-31.793-20.006v-9.035h30.18v9.035zm4.31-33.947v-9.035h25.87v9.035zm0-54.798v-9.035h25.87v9.035zm-22.273 42.264v-30.648h8.117v30.648zm-27.668-26.24v-13.119h8.117v13.118zm-10.79-1.292v-13.118h8.117v13.118zm-7.057 15.811v-6.987h12.627v6.987zm-8.046 5.163v-6.988h7.058v6.988zm8.046 4.516v-6.987h7.057v6.987zm32.28 20.652v-14.086h8.393v14.086zm-8.991.967v-14.085h8.394v14.085zm-37.17 96.158v-9.89h11.669v9.89zm38.736-25.814v-3.942h19.415v3.942zm-1.567-3.942v-3.943h23.24v3.943zm-1.384-3.942v-3.942h29.143v3.942zm-.968 10.002v-3.942h29.143v3.942zm14.648 89.677v-17.7h7.737v17.7zm49.904 164.138v-17.7h7.645v17.7zm41.856-82.069v-7.643h14.084v7.643zm141.344-97.35 2.715-33.336 6.843.557-2.715 33.336zm8.771-4.637v-22.323h4.426v22.323zm-9.256-32.783v-8.046h11.266v8.046zm-42.659-157.293 1.245-7.142 13.799 2.403-1.245 7.141zm6.036 87.695v-13.276h9.255v13.276zm5.633 113.046v-14.688h11.267v14.688zm-11.669 22.528v-42.642h15.291v42.642zm-54.735-5.632v-7.643h17.706v7.643zm0 11.06v-7.644h17.706v7.643zm6.842 63.366v-7.643h10.864v7.643zm13.681 0v-7.643h10.865v7.643zm30.184 223.68v-14.483h6.842v14.483zm0 14.08v-12.472h8.051v12.472zm17.193-27.014-2.388-8.616 7.758-2.149 2.389 8.615zm-1.9 76.095v-16.897h8.05v16.897zm-15.293 81.667V2309h13.683v94.943zm26.162-4.916 12.949-5.544 2.693 6.286-12.948 5.544zm-9.66 3.71v-14.081h6.842v14.08zm37.43-9.254v-14.08h6.84v14.08zm11.67-123.103v-30.576h6.84v30.576zm35.415 8.447v-11.264h20.927v11.264z" fill="#444"/><path d="M908.45 1996.76h135.167v-124.787h-177.86v82.316h-23.67v6.095h34.919v-82.53h161.135v113.62H908.422Z" fill="#000" stroke="#000" paint-order="stroke fill markers"/><path d="M2072.751 1927.257v-16.635l11.757-14.001-8.755-8.755-16.697 15.801v23.59zm-1113.425-5.569v17.254h19.18v-17.254zm-81.814 0v17.254h18.473v-17.254zm9.235 211.397h22.704v-15.058h-22.704zm222.742-392.068h11.475v-34.94h-11.475zm0 58.51h11.475v-36.531h-11.475zm-91.773-381.347v-24.595h-16.852v24.595zm699.068-103.067v-11.469h-11.19v11.47zm-282.937.341v-11.469h-11.306v11.47zm-266.162-5.532h11.473v-15.025h-11.473zm804.369-272.453v11.504h10.962v-11.504zm77.007 631.072v38.575h16.734v-38.575zm175.871 721.396v-42.575h-16.412v42.575zm-44.305-.01h28.86v-15.176h-28.86zm-180.206-463.024h29.157v-13.69h-29.157zm-320.757-215.489v-11.469h-18.997v11.47zm23.715-48.672v-11.47h-15.15v11.47zm-1.059 188.433v-11.47h-12.003v11.47zm-294.605-114.024h13.335v-17.786h-13.335zm-.443 49.395h13.027v-17.776h-13.027zm166.579-.156h13.334v-17.62h-13.334zm-136.092-49.274h13.198v-17.75h-13.198zm-.58 49.43h13.334v-17.75h-13.334zm166.579-.156h13.334v-17.595h-13.334zm68.57 1.64h17.23v-18.254h-17.23zm296.019 90.576h11.672v-18.253h-11.672zm-.747-79.1h11.344v-12.169H1967.6zm98.195-117.308h27.947v-13.657h-27.947zm-1064.919-249.48h39.82v-14.54h-39.82zm-159.29 545.677 36.047-.062v-17.44l-36.047.061z" fill="#987f00" paint-order="stroke fill markers"/><path d="M1687.604 1751.013h-162.693v22.3-43.883m-441.761 21.583h149.38l.12 22.904v-44.612m32.126-.106v44.718-22.904H1492.5l-.143 22.904V1729.2" stroke="#000" stroke-width="2" paint-order="stroke fill markers"/><path d="M1017.716 1393.585v24.595h22.98m403.13 74.446h-11.33m-8.924 0h-10.42m37.805 244.489-43.241.037m29.906-40.349v22.562h13.335m-29.907-22.562v22.562h-13.334m36.11-22.562h-30.231m274.006 72.974h-15.272m15.273 18.253-15.273.102m-221.815-19.336-43.241-.037m29.906 40.349v-22.562h13.334m-29.906 22.562v-22.562h-13.335m36.11 22.562h-30.23m203.94-40.312-43.241-.037m29.907 40.193v-22.562h13.334m-29.907 22.562v-22.562h-13.334m36.11 22.562h-30.23m530.642-268.965h24.843v-61.76m0-10.14v-21.575m-1130.217-143.305h146.003v-8.265l31.528-.05m-14.771 25.72v-10.62h14.77m507.443 10.62h15.34l.01-16.968m26.648 17.616h-15.183v-17.616m-32.442 131.643v-5.936m0-18.354v-5.777m-240.516-70.072h-11.786m-8.011 0h-10.877m0-14.536h9.366l.026-18.241m21.282 18.24h-9.98v-18.24m116.23 18.24v-12.648m0-14.268v-12.523m432.94-263.69v31.49h-10.962v-31.49m105.107 0v66.913h-81.884v-66.913m-551.45 612.588v-14.79m0-18.5v-100.77m-89.62-5.483v-8.244m0-17.187v-6.735m-289.853-65.058v-35.745m0-9.734v-13.928m6.152 59.407h-69.706l.287 40.46m107.417 37.969h-13.81m-10.97 0h-13.218M819.93 1751.03h19.87m27.242 5.446H839.8v-9.684h27.24m0 56.277v16.204l78.3-.25v-124.799h-78.3v22.73m0 10.253v66.038m414.57 353.124h-13.452m68.573 0h-46.095m-22.478 47.882v-58.985m0 81.715v-13.624m-343.484-86.192h-17.847m35.29 0h-8.114m175.44 170.956v41.28m0-158.601v104.748m-44.862-145.18h-22.095m66.957 0h-29.374m714.03-416.33h-90.958v76.813h91.161zm-106.496 73.992v19.354m0-110.814v73.207m52.188-125.099h-37.273v20.507m17.495 31.385h-32.41v-64.727m52.188 64.727h-10.815m12.8 161.566h-39.043v-20.077m17.065-30.903h-31.478m53.456 1.907v-1.907h-12.585m56.695 37.844h-44.11m69.746-35.937h-69.746v66.764m69.746-30.827h-17.22m182.477 67.773h15.705m121.56-16.226h-10.464m10.363-66.052v90.557m-44.549-90.557v51.01l15.116 15.116h8.524m-110.375-97.424h-17.137v60.947h17.065m92.927 67.113h-86.689l-12.046-14.484v-34.166h-10.827 16.563m-912.007-444.845v-10.394m0-19.165v-10.9h37.998m.778 303.295v9.48h13.784m0 56.918h-13.284v-21.979h13.537m-13.094 68.09v-9.58h13.094M914.94 2133.085h-28.19v19.976m223.555-64.746v-11.306m0-8.923v-10.445m226.427-1.104h-8.715m-9.608 0h-14.925m33.248-85.947h-15.742m-8.748 0h-8.758m806.217-368.238v-6.498m0-17.644v-7.066m5.662 77.43h22.289m17.543 0h11.917m-101.314 58.542v-24.918h27.947m14.186 40.446v-23.055m0-11.002v-15.128m72.7 701.293h27.892v-27.39m-41.411 37.632v-17.568m0-13.588V2331.4m0 0h-12.08m-18.606 0h-22.857m-163.663-.16h-10.554m-9.035 0H1912.3m37.606-90.57h-14.57m-9.178 0H1912.3m37.606-84.323h-13.422m-10.039 0H1912.3m38.106-185.422h-10.337m-17.209 0h-10.56m37.606 139.565v-21.109m0-17.137v-15.2m164.038 53.446h22.897m18.354 0h11.917m-53.168-53.446h22.694m18.557 0h11.917m-1124.509-305.43h21.903" stroke="#000" paint-order="stroke fill markers"/></svg>