<svg width="2912" height="3184" fill="none" xml:space="preserve" xmlns="http://www.w3.org/2000/svg"><path d="M882.802 1874.074v112.62h163.057v6.515h-59.293v77.654h42.097v10.672h82.418v-53.346h168.393v53.346h82.418v-10.082h42.69v-43.264h66.408v128.024h-22.532v164.197h100.797v74.086h107.254v-212.754l17.399-17.402h50.83l17.396 17.402v212.754h108.924v-72.906h6.523v62.824h160.092v10.082h8.301v163.594h49.803v-112.62h-8.89v-50.974h16.603v163.594h50.4v-112.62h-8.893v-50.974h45.655v-10.082h56.918v-58.684h-56.918v-15.994h24.3v-30.822h-24.3v-496.115h17.783v-21.344h-17.783v-98.984h-121.516v18.382h-57.553v42.07h-40.912v-82.976h213.463v-347.336h-24.316v-17.187h-15.424v-45.05h-23.71v-2.962h-150.605v113.799h-173.136v-116.172h29.646v-20.15h-56.922v29.039h-96.646v-29.04h-56.922v20.15h28.461v116.173h-152.977v16.597h-17.195v-13.634h-8.3v-174.856h-164.243v57.49h-29.053v-4.732h-109.101v-5.926H965.22v50.37h81.23v112.029H882.802v49.795h123.922v43.853H882.802v159.393h86.178v20.496h76.857v74.787H968.98v49.506h76.857v78.883H968.98v17.921zm112.65-350.889v-9.392h50.385v9.392zm0-95.619v-9.392h50.385v9.392zm27.329 45.25v-21.345h23.056v21.345zm89.273 233.897v-155.237h73.686v-16.367h121.445v16.367h68.908v4.819c-68.373 36.733-209.766 112.979-228.35 124.068-16.815 10.04-24.91 22.625-28.886 28.795-1.517 2.359-2.434 3.783-3.008 3.783-2.08 0-3.795-2.072-3.795-6.228zm0 243.806V1795.3c0-4.157 1.713-6.242 3.793-6.242.574 0 1.493 1.438 3.01 3.783 3.977 6.184 12.07 18.77 28.887 28.795 18.58 11.103 159.977 87.347 228.35 124.082v4.802h-68.91v16.37H1185.74v-16.37zm3.174-606.877v-77.697h217.711v-45.84h65.652v12.543h-32.341v45.852h32.341v24.61h-8.69v4.343h-20.755v30.393h20.756v5.796zm144.973 453.971c0-.374.636-1.595 1.625-3.508 3.421-6.601 11.056-21.344 11.056-36.576v-13.693c0-11.392-5.379-23.128-8.953-30.924-1.778-3.883-3.11-6.788-3.11-8.197 0-2.906 3.664-5.523 5.85-6.717 5.531-3.179 23.214-13.823 41.739-24.955h.016c23.553-14.167 48.46-29.14 51.47-30.65 5.376-2.69 16.2-4.704 16.2 5.378v77.891h-68.91v50.082h68.91l-.01 79.113c0 6.142-4.207 10.643-7.889 10.643-3.446 0-10.12-4.3-15.658-7.867v-.014l-1.111-.705c-3.546-2.287-34.516-20.54-58.381-34.606v-.014h-.014l-.023-.014c-14.675-8.644-26.657-15.707-27.903-16.498-3.273-2.042-4.908-6.53-4.908-8.17zm166.506 162.084v-173.719c0-3.97 3.22-7.191 7.193-7.191h29.53a7.194 7.194 0 0 1 7.193 7.191v173.72a7.185 7.185 0 0 1-7.194 7.19h-29.53a7.185 7.185 0 0 1-7.192-7.19zm0-243.793v-173.662c0-3.97 3.22-7.191 7.193-7.191h29.53a7.194 7.194 0 0 1 7.193 7.191v173.662c0 3.97-3.221 7.192-7.194 7.192h-29.53a7.194 7.194 0 0 1-7.192-7.192zm94.71 350.572v-165.06l16.376-21.143v-53.879h75.048v-25.242h-75.048v-22.74c0-4.76 3.864-8.629 8.632-8.629h48.678c5.913.46 19.786 4.358 27.973 16.367 2.017 2.963 3.598 5.596 4.992 7.926 5.688 9.507 8.32 13.908 25.03 13.908h134.405v-115.957h-147.369c-2.5 2.963-8.867 10.773-14.326 18.41-6.823 9.55-18.422 20.47-30.703 20.47h-48.684c-4.766 0-8.627-3.871-8.627-8.632v-26.148h75.05v-23.875h-75.05v-51.838l-16.375-22.508v-156.863h73.686v-23.875h27.973l17.056 17.043h118.035l17.057-17.043h32.066v23.875h74.368v158.228l-16.375 19.778v53.203h-75.05v23.875h75.05v105.025h-75.05v25.242h75.05v53.203l16.375 22.495v164.384h-73.004v23.862h-30.02l-17.738-17.735h-117.352l-17.738 17.735h-30.703v-23.862z" fill="#666" stroke="#000" stroke-width="2"/><path d="M1523.108 1884.228a4.015 4.013 0 0 1 4.014 4.014 4.015 4.013 0 0 1-4.014 4.013 4.015 4.013 0 0 1-4.015-4.013 4.015 4.013 0 0 1 4.015-4.014zm-536.15 91.314a4.278 4.276 0 0 1 4.278 4.277 4.278 4.276 0 0 1-4.278 4.276 4.278 4.276 0 0 1-4.277-4.276 4.278 4.276 0 0 1 4.277-4.276zm-18.336 2.79a4.278 4.276 0 0 1 4.278 4.277 4.278 4.276 0 0 1-4.278 4.276 4.278 4.276 0 0 1-4.277-4.276 4.278 4.276 0 0 1 4.277-4.276zm562.516-203.27a4.015 4.013 0 0 1 4.014 4.012 4.015 4.013 0 0 1-4.014 4.013 4.015 4.013 0 0 1-4.015-4.013 4.015 4.013 0 0 1 4.015-4.013zm-17.293 215.716a4.015 4.013 0 0 1 4.015 4.013 4.015 4.013 0 0 1-4.015 4.014 4.015 4.013 0 0 1-4.015-4.014 4.015 4.013 0 0 1 4.015-4.013zm0-488.923a4.015 4.013 0 0 1 4.015 4.013 4.015 4.013 0 0 1-4.015 4.014 4.015 4.013 0 0 1-4.015-4.014 4.015 4.013 0 0 1 4.015-4.013zm9.263 110.75a4.015 4.013 0 0 1 4.014 4.013 4.015 4.013 0 0 1-4.014 4.013 4.015 4.013 0 0 1-4.015-4.013 4.015 4.013 0 0 1 4.015-4.014zm8.03 100.336a4.015 4.013 0 0 1 4.014 4.013 4.015 4.013 0 0 1-4.014 4.013 4.015 4.013 0 0 1-4.015-4.013 4.015 4.013 0 0 1 4.015-4.013zm208.14 450.69a3.859 3.858 0 0 1 3.86 3.858 3.859 3.858 0 0 1-3.86 3.857 3.859 3.858 0 0 1-3.858-3.857 3.859 3.858 0 0 1 3.859-3.858zm-101.642-78.273a3.859 3.858 0 0 1 3.858 3.858 3.859 3.858 0 0 1-3.858 3.858 3.859 3.858 0 0 1-3.86-3.858 3.859 3.858 0 0 1 3.86-3.858zm22.525 78.273a3.859 3.858 0 0 1 3.86 3.858 3.859 3.858 0 0 1-3.86 3.857 3.859 3.858 0 0 1-3.859-3.857 3.859 3.858 0 0 1 3.86-3.858zm-10.292 131.562a3.859 3.858 0 0 1 3.86 3.858 3.859 3.858 0 0 1-3.86 3.857 3.859 3.858 0 0 1-3.858-3.857 3.859 3.858 0 0 1 3.859-3.858zm100.159 0a3.859 3.858 0 0 1 3.859 3.858 3.859 3.858 0 0 1-3.859 3.857 3.859 3.858 0 0 1-3.859-3.857 3.859 3.858 0 0 1 3.859-3.858zm408.494 25.101-2.686-11.281 8.688-2.067 2.686 11.281zm-77.55 12.93 7.727-10.197 3.685 2.79-7.728 10.198zm83.406-118.2-1.282-14.83 6.011-.52 1.282 14.832zm-45.494 33.8-2.21-25.574 4.116-.356 2.21 25.575zm45.48 92.599v-8.634h4.132v8.634zm-105.809-7.566v-10.839h12.663v10.84zm-543.253-109.642v14.371h4.818v-14.37zm65.61 0v14.371h4.817v-14.37zm264.368 81.02v14.371h4.818v-14.37zm60.558 0v14.371h4.817v-14.37zm0-133.892v-14.37h4.817v14.37zm-60.558 0v-14.37h4.818v14.37zM932.53 1929.291v-27.343h4.818v27.343zm52.02 0v-27.343h4.819v27.343zm530.753 271.566v-27.343h4.818v27.343zm65.61 0v-27.343h4.817v27.343zm264.368 19.288v-27.343h4.818v27.343zm60.558 0v-27.343h4.817v27.343zm-60.558 68.88v-27.343h4.818v27.344zm60.558 0v-27.343h4.817v27.344zm-418.652-64.81v14.371h4.817v-14.37zm65.608 0v14.371h4.818v-14.37zm264.37 81.02v14.371h4.817v-14.37zm60.557 0v14.371h4.818v-14.37zm0-133.892v-14.37h4.818v14.37zm-60.558 0v-14.37h4.818v14.37zm-912.75-242.052v-27.343h4.817v27.343zm52.02 0v-27.343h4.818v27.343zm530.753 271.566v-27.343h4.818v27.343zm65.608 0v-27.343h4.818v27.343zm264.37 19.288v-27.343h4.817v27.343zm60.557 0v-27.343h4.818v27.343zm-60.558 68.88v-27.343h4.818v27.344zm60.558 0v-27.343h4.818v27.344zm-390.536-59.56v9.12h32.935v-9.12zm65.61 0v9.12h32.934v-9.12zm264.368 81.02v9.12h32.935v-9.12zm60.558 0v9.12h32.934v-9.12zm0-144.392v-9.12h32.934v9.12zm-60.558 0v-9.12h32.935v9.12zM1465.96 2299.74a7.738 7.738 0 0 1 7.756-7.754h22.181a7.738 7.738 0 0 1 7.757 7.754 7.738 7.738 0 0 1-7.757 7.753h-22.18a7.738 7.738 0 0 1-7.757-7.753zM904.412 1924.04v-18.388h32.935v18.388zm-8.08 44.068a7.423 7.423 0 0 1 7.44-7.439h21.317a7.423 7.423 0 0 1 7.44 7.439 7.423 7.423 0 0 1-7.44 7.438h-21.317a7.423 7.423 0 0 1-7.44-7.438zm74.16 0v-8.449h14.059v8.449zm81.172-347.639 12.533-24.251 5.28 2.727-12.534 24.251zm-2.216 212.222v-34.858h5.578v34.858zm-93.015 91.347v-18.388h32.935v18.388zm530.753 271.566v-18.388h32.934v18.388zm259.01 145.185v-28.368h5.512v28.368zm0-52.024V2260.4h5.512v28.367zm-49.751-131.791.46-11.591 20.54.815-.46 11.59zm49.75 67.902v-28.368h5.513v28.368zm-99.084 0v-28.368h5.514v28.368zm0 49.708v-28.368h5.514v28.368zm0 68.823v-28.368h5.514v28.368zm0 36.749v-28.368h5.514v28.367zm-94.317-184.55v-18.388h32.935v18.388zm264.37 19.288v-18.388h32.934v18.388zm78.877-439.488v-11.984h21.228v11.984zm4.503 7.723v-29.988h14.15v29.988zm-35.378-7.723v-53.78h7.72v53.78zm11.517-113.9v-12.133h11.987v12.133zm23.861 2.949v-15.074h8.053v15.074zm52.23-199.465v-7.403h6.695v7.403zm0 13.765v-7.404h6.695v7.404zm0 23.416v-7.404h6.695v7.404zm0 13.764v-7.403h6.695v7.403zm5.578-111.152v-26.401h3.574v26.401zm0 148.002v-26.402h3.574v26.402zm-5.578-188.562v-33.804h9.154v33.804zm0 232.027v-33.804h9.154v33.804zm-64.543 42.013v-7.515h19.389v7.515zm-1.837 5.926v-5.925h26.463v5.925zm0 22.553v-20.302h11.101v20.302zm-214.177 82.307a8.332 8.332 0 0 1 8.352-8.35h36.365a8.332 8.332 0 0 1 8.352 8.35 8.332 8.332 0 0 1-8.352 8.349h-36.365a8.332 8.332 0 0 1-8.352-8.35zm100.229 38.654v-8.307h-14.403v8.307zm-6.416-39.395v-8.307h14.403v8.307zm15.512 51.117v-20.02h-9.097v20.02zm-145.961-27.687v-6.35h11.169v6.35zm-159.845-122.098 17.756 25.685 4.739-3.273-17.757-25.685zm0 207.375 17.756-25.685 4.739 3.273-17.757 25.686zm38.512 14.124v6.37h15.804v-6.37zm2.953-241.29v-6.37h15.805v6.37zm-13.01 401.273V1968.5h5.762v62.623zm207.656-644.591 14.25-.156-.075-6.811-14.25.155zm-22.077 13.434 35.25 2.6 1.003-13.598-35.25-2.6zm-60.457-64.767 8.626-1.385-1.116-6.95-8.626 1.384zm.787-55.576 7.876.855 1.84-16.918-7.876-.855zm28.322-31.657h6.66v-10.675h-6.66zm12.21 28.665h15.215v-6.222h-15.214zm21.12 0h15.215v-6.222h-15.214zm6.305-36.23h15.214v-6.223h-15.214zm-25.217 0h15.214v-6.223h-15.214zm-13.555 186.576h31.488v-10.346h-31.488zm-9.417 5.753h106.819v-5.76h-106.819zm0 646.864h106.819v5.76h-106.819zm-240.714-151.396v-62.623h5.762v62.623zm0-269.84v-62.623h5.762v62.622zm95.036-94.886v-62.622h5.763v62.622zm0 405.027v-58.877h13.669v58.877zm-95.036-101.918v-51.853h13.669v51.853zm0-269.84v-51.853h13.669v51.852zm95.036-94.886v-51.852h13.669v51.852zm0 562.838v-40.078h13.669v40.078zm-104.273-779.461 2.502-13.21 9.73 1.842-2.502 13.21zm0-15.577v-9.682h14.162v9.682zm-3.77-52.369v-10.937h7.537v10.937zm-12.562 1.51v-6.919h10.552v6.92zm-160.04 178.782v-14.428h55.28v14.428zm131.322 61.473v-57.327h6.743v57.327zm-13.62 3.725v-7.448h20.363v7.448zm-39.519 0v-7.448h35.265v7.448zm62.133 0v-24.86h31.268v24.86zm-45.477-27.99v-37.215h15.925v37.216zm-225.99 26.58v-58.862h19.844v58.863zm30.652-63.788v-14.428h55.281v14.428zm-94.924-134.625v-14.428h22.574v14.428zm84.116 0v-16.278h15.804v16.278zm80.308 0v-10.36h15.804v10.36zm10.732-27.371v-4.833h65.394v4.833zm79.565-9.867v-13.84h24.364v13.84zm375.85 862.537 29.757.29-.05 5.212-29.756-.29zm53.43 2.086 29.757.29-.05 5.211-29.757-.29zm38.13-657.608h6.435v-17.9h-6.434zm0 646.864h6.435v17.9h-6.434zm-100.385-646.864h6.434v-17.9h-6.434zm0 646.864h6.434v17.9h-6.434zm-240.714-117.84v-40.078h13.669v40.078zm0-269.827v-40.078h13.669v40.078zm95.036-94.885v-40.078h13.669v40.078zm22.105 232.272v48.202h5.905v-48.202zm2.952-157.624v-48.201h5.906v48.201zm100.012 100.049v-45.764h9.096v45.764zm129.89-8.314V1740h9.096v23.426zm141.395-37.525v-35.776h14.15v35.776zm32.161 202.542v-56.352h15.902v56.352zm75.948 332.824 14.552-9.507 2.697 4.125-14.552 9.507zm3.987-38.431 4.29-16.841 3.809.97-4.289 16.84zm26.726-10.457 7.09-15.867 3.589 1.603-7.09 15.867zm7.126 10.514v-13.523h8.595v13.523zm27.53-13.52v-6.631h20.68v6.631zm-20.542 22.467v-22.467h13.926v22.467zm35.448-42.603v-17.886h6.938v17.886zm-99.077 0v-5.915h18.803v5.915zm136.687-140.638-1.862-17.336 7.328-.786 1.861 17.336zm37.955-110.907v-22.682h5.327v22.682zm-5.323-176.682v-12.515h10.653v12.515zm-91.982 70.966v-8.653h20.576v8.653zm-6.777 59.82v-12.516h47.13v12.515zm0 59.358v-12.515h47.13v12.515zm-108.259-.95v-12.514h48.712v12.515zm208.413-242.195-6.74.492-1.4-19.17 6.74-.492zm-167.89 2.876v-6.756h15.129v6.756zm34.937-18.338v-11.1h8.19v11.1zM1953.056 1804v-13.977h8.871V1804zm0 21.719v-13.978h8.871v13.978zm47.808-2.402v-31.85h8.871v31.85zm5.025 58.826v-46.757h14.557v46.757zm54.522 69.01v-33.245h10.923v33.245zm-35.31 93.634v-36.644h16.32v36.644zm-37.57-27.026v-50.156h16.718v50.156zm125.511 44.559v-28.114h9.96v28.114zm-88.368 126.916v-17.886h6.939v17.886zm30.413 0v-17.886h6.939v17.886zm-1.607-62.048V2109.3h6.939v17.886zm17.866 7.723v-17.886h6.938v17.886zm-111.035-6.156 2.36-17.73 6.878.915-2.36 17.73zm33.632.273-1.227-17.843 6.921-.476 1.228 17.844zm31.157 13.707-13.75-11.444 4.44-5.33 13.75 11.444zm-92.395-124.916v-56.353h15.902v56.353zm-54.984 197.076v-18.388h32.934v18.388zm-60.558 68.88v-18.388h32.935v18.389zm32.44-39.84v-6.958h28.118v6.958zm28.118 39.84v-18.388h32.934v18.389zm180.834 107.04v-18.389h10.76v18.388z" fill="#444"/><path d="M1541.12 1695.124h70.7v-21.827h-70.7Zm247.855-.013h73.58v-21.887h-73.58zm-247.855 130.195 70.665-.014v-23.124h-70.665Zm248.369.08h73.264l-.199-23.262h-73.264zm-819.774-172.94h75.792v-20.654h-75.792zm0 222.261h75.792v-18.08h-75.792zm0-98.402h75.792v-49.765h-75.792zm337.544-.26h68.042v-49.764h-68.042zm-194.968 190.7h73.686v-16.242h-73.686zm195.216.143 66.974-.014v-15.764h-66.974zm-195.441-415.36h73.685v-16.246h-73.685zm194.478-.051h69.13v-16.123h-69.13zm217.243-111.495h70.293v-22.627h-70.293zm283.505 1.105h72.827v-23.732h-72.827zm-283.505 649.438h70.257v-22.988h-70.257zm284.843 0h71.49v-23.732h-71.49zm330.175-798.101h-15.383v-15.975h15.383zm-753.111 778.04h-24.296v-14.833h24.9zm-398.112-.618h34.535v-12.474h-34.535zm20.141-641.272h39.536v21.876h-39.536zm377.97 641.889.606-37.24h17.227v37.24zm-380.809-12.362v-20.017h-17.302v20.017zm16.843-608.543v23.562h-14.004v-23.562zm359.053-200.402v15.626h-13.48v-15.626zm17.848 28.369H1367.3v-13.397h31.328zm227.363-53.923h-28.455v-17.282h28.455zm179.15 0h-29.645l-.032-17.295h29.646zm230.264 88.253h-47.626v-19.431h47.626zm3.116 326.604h-51.282v-16.405h51.282zm29.645 25.443v38.911h-18.299v-38.911zm157.995 682.296v36.763h-17.022v-36.763zm-134.255-667.528h-25.29v-14.768h25.29zm117.233 704.291h-23.827v-13.793h23.827zm-359.165-44.141h-41.14v-17.23h41.14zm-299.695 0h41.403v-18.21h-41.403zm299.695 0v22.682h-15.328v-22.682zm-299.695 0v22.897h17.224v-22.897z" fill="#987f00"/><path d="M1454.239 1463.625h16.386v-85.176h-16.386z" fill="#000"/><path d="M2092.036 2446.06h-7.568m17.366 0h21.798m-25.474-51.607h26.911m-83.76 0h24.915m-20.91 51.607h20.91m-31.146 0h-8.01m2.67-51.607h-4.005m-8.508-37.813v27.774m0-36.663v-26.522m0 0h-66.694m66.694 0h10.892m13.191 0h-13.191m23.871 0h58.292v-36.202m0-4.444v4.444m0 0h-82.163m-77.586 0v36.202m0-36.202h77.586m-77.586 0v-6.66m0 42.862h-15.426m93.012-13.822v13.822m0-23.33v-12.872m143.067 81.523v17.223m14.502-14.202v-23.56h23.568v23.56zm-14.502-16.915V2327.3m0-23.56v5.437m0-25.976v-4.832m-60.905-22.352v-7.853m0-89.39v30.808m0-52.541v-32.017h-159.748v51.333m-19.212 122.012h19.212m0 0v-75.497m-19.212 0h19.212m0 0v-13.29m0 0h24.29m-24.29 0v-33.225m35.77 33.225h6.645m117.334 0v58.582m0-58.582h-42.416m16.604 58.582h25.812m-38.186 0h-4.23m-22.55 0h22.55m-34.436 0h-3.69m-20.479 0h20.48m-33.771 0h-3.022v-58.582m0 0h36.793m0 58.582v-58.582m0 0h38.125m0 58.582v-58.582m-132.759 167.06v26.248m0-36.878v-24.782m0 0h-76.896m-23.563 40.488v-22.955h-25.376v55.691m42.78-72.863h-65.134v-165.234h163.615m-68.153-66.076-73.722.057m156.497-307.854h-14.622v50.743m39.394-50.743h9.667m49.545 50.743h61.143m0 0v-50.743h-110.688m110.688 50.743v212.596h-159.75v-212.596m88.335 0h-39.273m0 0v-50.743m0 50.743h-9.667m-24.772 0h-14.622m75.647-110.534h-32.628m45.315 0h10.272m59.214-25.976v25.976h-59.214m59.214-38.661v-20.525m-16.315 15.088v23.56h-23.568v-23.56zm-42.9 44.098v-42.286m-98.605-54.958v12.686m0-32.62v-156.43m0-21.144v-86.37m10.996-48.931h-10.996m30.33 0h119.635m39.396 0h-39.396m0 0v-27.17m0-9.061v-25.361m-61.63 80.319h-51.357v309.854h51.356m-293.641 180.291v6.041m0-18.122v-7.854m0-70.06v5.437m0-18.726v-6.645m-79.15 25.371h79.15m0 0v64.623m-79.15 0h79.15m-90.63 0h-6.645v-64.623h6.645m-87.09 644.764v-22.955h24.178v55.69m-120.451-238.096h143.15v121.81m-93.15 18.482v23.962m28.766-23.962v23.962h64.383v-42.444m-64.383 7.522v-7.522h64.383m-93.15 7.522v-7.522h-71.918m71.918-187.857h73.973m-143.836-96.295v-26.71m-89.969 104.832v-16.505m0 0v-26.695h24.9v26.695zm-14.824-26.695h-66.44m95.892-62.034h-68.494m-195.89 0h72.603m-143.836 62.034h71.233m-83.562 0v3.423m0 38.346v-38.346m0 0h-23.286v24.639h40.41v23.976m-34.93-110.246v-20.539h34.93m0 0v36.504m0-36.504v-36.288h-34.93v19.863m-62.328 30.808v20.54m0-30.81v-4.113h-65.07m162.329-45.868v-29.442h-76.027m-86.302 0h86.302m-86.376-243.29h86.302m78.155-74.417v6.846m-63.013 6.847v-6.847h63.014m0 0v67.788h-63.014m0-47.249v47.249m0 0h-15.068m-27.398-86.96v44.515h-58.904m58.904-56.151v-10.27m0 0h-58.904m58.904 0h53.425m52.055 0v21.906m0-21.906h-52.055m52.055 0v-9.147m0-26.465v26.465m0-37.41v-2.748m0-27.385v5.063m-52.055 39.438v23.042m0 9.147v-9.147m0-32.621v-7.537h27.597m24.458 0v-22.322m0 22.322h-24.458m24.458-39.021v-6.846m0-36.289v26.436m0-34.648v-5.48m-52.055 8.903v-8.903m0 17.791v22.337m68.493-69.57h-16.438m16.438-82.17h-16.438m52.74 0h14.383m-14.383 82.17h14.383m0 0v5.48m0-5.48v-4.114m0 20.539v26.71m0 72.576v-72.577m0 106.809h176.711v-34.232m0-27.385v27.385m0 0h71.233m91.78 0h-91.78m0 0v-65.054m0-19.849v19.849m0 0h34.246m23.289 0h34.246m-18.493-54.771h9.588m-48.63 0h-5.479M1380.82 1247v17.116h17.808v13.693m-110.273 78.747v-12.326m73.972 12.326v-12.326m-73.972 27.385v20.54m0 31.498v-31.499m0 0h-75.343m-21.917-.676h-76.712m-2.74 143.6h73.972m121.233 0h69.863m142.8-117.883h76.998m285.181 0h-74.398m-138.774-182.449v34.217h49.193m8.555 0h6.417v-34.217m-737.478 279.046h52.054m0-62.48h-24.458v22.322m-27.596-55.72v9.853h52.054m-52.054-9.853h52.054m0 0v9.853m-78.081 204.038v20.539h76.027l.332 74.528H968.98v49.506h76.557l-.332 80.004h-76.027v18.496" stroke="#000" paint-order="stroke fill markers"/></svg>