<svg width="2912" height="3184" fill="none" xml:space="preserve" xmlns="http://www.w3.org/2000/svg"><path d="M764.766 1809.32h21.209v47.354l37.432 17.436h18.716v42.81h-60.15v51.695h-9.72v48.163h9.72v62.924h165.582v36.76h-62.387v49.222h141.614v-3.736h8.113v292.004h117.176v8.105h-18.29v209.895H1259.6v-210.526h-18.82v-8.095h117.263v-290.766h7.485v3.119h52.281v48.594h199.266v60.248H1453.5v45.51h95.44v74.917h155.974v20.56h20.584v-20.56H1971.3v-6.224h158.45v6.224h41.056v-6.224h58.014v-58.568h-58.014v-480.344h162.824v-49.84h-101.685v22.426h-10.612v-13.082h-24.96v-23.678h-25.567v-70.4h162.824v-49.704h-101.685v21.045h-10.612v-13.707h-50.527v-27.416h-3.123v-674.09h-62.262v84.1h-153.469v-89.707H1766.05V746.46H1639.4v219.305h-189.64v205.592h-104.183v21.806h-10.607v-13.08h-52.4v6.1H1217.8v-75.365h-61.264v157.101h-12.466v-157.101h-61.758v76.115h-67.385v32.385h-162.2v48.601h101.686v-21.808h9.362v13.082h51.152v8.726h-41.797v120.243h-6.238v138.312h-84.219v106.54h-59.267l-37.432 16.187v48.605h-21.21v21.809h21.21v67.896h-21.21zm219.8 325.645v-59.26h61.098V2084h-11.859v55.104h-7.117v-4.139zm297.255-852.066v-62.219h168.007v15.383h-60.906v13.283l10.854 10.824v4.543h-17.85v-28.65h-17.506v46.836zm65.486 800.87v-7.128h57.088v-48.463h65.66v126.867h146.36v30.596h-63.633v-7.926h-53.041v7.926h-52.918v-49.598h-80.489v3.319h-8.088v-55.592zm85.018-114.374v-84.588h37.8v84.588zm0-342.55v-85.294h37.8v85.293Zm17.503-272.642v-13.988h213.498v13.988zm4.19 141.215v-105.562h16.107v105.562zm193.904 274.381v-33.695h73.225v33.695zm89.05-415.596v-13.988h215.661v13.988zm145.292 527.01v-40.857l36.377-36.328h33.037v119.896h160.725v127.79h-159.414v-6.6h-10.739v-16.489h-39.199c-2.375 0-4.318-1.94-4.318-4.312v-126.639zm3.08-216.402v-40.281l14.367-14.348v-129.9a4.319 4.319 0 0 1 4.319-4.313h38.062v-14.951h9.586v238.756h-31.324zm66.334-371.705v-166.344h151.008v166.344Zm19.477 1041.97v-15.265h141.248v15.266zm20.197-658.937v-29.9H2112.1v18.572h-59.41v58.598h-18.828v-47.27z" fill="#666" stroke="#000" stroke-width="2"/><path d="M985.055 2075.678v-16.418h18.501v16.418zm-99.947-140.87h13.19v-28.45h-13.19zm1.226 229.453h31.411v-15.179H886.334zm0-14.74h15.011l.25-16.586 16.15-.531v-14.516h-31.411zm75.944-214.714h19.262v-28.449h-19.262zm11.82-59.186h52.827l.109-4.169 7.239.063v-13.546h-60.175zm0-95.486h23.64v-50.086h-23.64zm0-130.144h60.119v-15.555h-60.119zm10.957 409.27h18.501v-19.192h-14.03l.027 2.185-4.499-.178zm18.501 0v16.417h22.053v-16.418zm1.7-585.463h17.111v-61.413h-17.111zm0-58.166h19.72v-22.971h-19.72zm15.46 35.193h13.56v-17.911h-13.56zm.283-19.034h13.276v-16.16H1021zm114.256 536.656h48.787V1952.1h-48.787zm-.129-414.907h50.052v-15.538h-50.052zm175.235 414.907h50.322v-15.555h-50.322zm0-414.907h50.322v-15.538h-50.322zm2.851 226.08h21.922v-50.086h-21.922zm24.242-473.215h17.274v-25.242h-17.274zm25.912-41.16v17.21h35.914v-17.742h-17.103v-30.174h-18.811zm2.473 809.983h36.855v-29.088h-14.455l.014 13.12h-22.414zm181.727 16.766h45.734v-23.462h-45.734zm-.437-648.385h47.006v-23.477h-47.006zm2.98 918.783h15.654v-22.957h-15.654zm14.437-535.39h46.632v-23.477h-46.632zm.327-129.298h46.305v-23.476h-46.305zm-14.764 642.893h27.17v-17.694h-27.17zm46.559-1116.627h27.612v-15.035h-27.612zm41.994 727.7 13.256 6.987 13.39-25.33-13.26-7.002zm20.325-63.01h34.377v-16.706h44.552v-16.717h-45.733v16.717h-33.196zm.632 148 22.4 17.9 9.371-11.689-22.4-17.897zm32.564-391.285h45.733v-16.704h-45.733zm52.571-145.745h13.417v-22.97h-13.417zm34.13-275.66h28.892v-15.035h-28.892zm9.517 664.69h34.36v-16.706h-34.36zm8.55-61.659h45.734v-23.476h-45.734zm0-129.297h45.734v-23.476h-45.734zm17.145-254.095h47.662v-24.339h-47.662zm.13 648.385h47.45v-23.462h-47.45zm6.537 247.065h15.531v22.973h17.907v-41.446h-33.438zm132.622-662.214h35.744l.81-31.392h-36.914zm44.727-550.255h11.474v-23.246h-11.474zm5.471 185.004h34.36v-18.33h-34.36zm.273 328.39h34.36v-17.51h-34.36zm48.455 64.577h17.39v-24.802h-17.39zm-.693-23.232h33.731v-16.647h-33.731zm60.577-5.203h30.388v-30.897h-30.388zm11.404-384.212h28.515v-16.417h-28.515zm28.515 0h16.44v-38.852h-16.44zm44.15 1095.356h17.23v-15.245h-17.23zm17.23 0h15.868l.014-38.204h-15.868z" fill="#987f00" paint-order="stroke fill markers"/><path d="m781.516 2063.86 6.127 4.835 6.149-7.775-6.127-4.835zm6.754 13.587h11.04v-7.812h-11.04zm12.57-115.297h6.613v-4.903h2.132v5.81h6.61v-5.81h27.477v-9.802H804.76v6.896h-3.92zm15.15 27.336 3.157 15.98 6.486-1.278-3.157-15.98zm2.336-22.521h6.61v-7.809h-6.61zm14.609-277.226h7.577v-14.705h-7.577zm3.337 66.733h54.686v-9.802h-3.141v-5.852h-21.146v5.852h-30.399zm7.4 76.841h54.688v-9.802h-48.013v-8.095h-6.675v8.095zm0-140.385h6.675v-8.092h48.013v-9.802h-4.313v-9.735h-12.463v9.735h-1.266v-9.735h-12.463v9.735h-24.183v8.092zm1.856 71.156h21.143v-5.857h-21.143zm9.753 216.041 1.847 9.353 6.487-1.278-1.847-9.352zm.903-3.807 6.486 1.28 1.847-9.353-6.486-1.28zm10.487-63.839 6.486 1.278 1.308-6.624-6.487-1.28zm1.184-8.437h6.61v-7.809h-6.61zm16.87-323.75h6.233v-35.161h-6.234zm25.048-41.549h35.603v-7.451h-35.603zm1.526 397.746a6.225 6.225 0 0 0 6.23 6.222 6.225 6.225 0 0 0 6.228-6.222 6.225 6.225 0 0 0-6.227-6.22 6.225 6.225 0 0 0-6.23 6.22zm3.113-373.238h52.21v-5.775h-52.21zm5.609 29.63h20.5v-7.452h-20.5zm18.812 457.984h16.28v-7.455h-16.28zm5.688-114.376a6.225 6.225 0 0 0 6.23 6.222 6.225 6.225 0 0 0 6.228-6.222 6.225 6.225 0 0 0-6.227-6.22 6.225 6.225 0 0 0-6.231 6.22zm5.165 151.12h10.855v-9.943h-10.855zm5.286-483.893h57.21v-5.51h-57.21zm5.398-66.473h20.5v-7.451h-20.5zm6.256 54.888h20.496v-7.452h-20.496zm12.995 264.875h54.685v-9.805h-54.685zm1.248-195.068h52.301v-11.085h-52.3zm9.75 360.49h7.297v-9.946h-7.296zm0-14.806h7.297v-9.945h-7.296zm2.852-221.011h17.915v-6.663h-17.915zm.42-57.954h10.726v47.95h7.19v-54.613h-17.915zm37.398 57.989h18.478v-6.663h-8.662v-48.7h-9.816zm.77-57.278h10.356v47.949h8.224v-55.987h-18.58zm2.326 606.967c0 2.778 1.456 5.558 4.37 6.966h31.57c5.83-2.817 5.83-11.111 0-13.93h-31.57c-2.914 1.41-4.37 4.186-4.37 6.964zm2.202-122.41c0 2.78 1.457 5.562 4.372 6.978h31.568c5.83-2.832 5.83-11.126 0-13.943h-31.568c-2.915 1.409-4.372 4.186-4.372 6.966zm1.65 23.603c0 2.779 1.46 5.558 4.378 6.967h31.554c5.83-2.818 5.83-11.112 0-13.93h-31.554c-2.918 1.409-4.378 4.185-4.378 6.963zm.529-47.845c-.05 2.606 1.179 5.245 3.79 6.795l31.453 2.676c6.046-2.314 6.752-10.58 1.18-13.887l-31.453-2.676c-3.21 1.23-4.913 4.14-4.97 7.092zm2.898-151.498h15.07v-7.539h-15.07zm.968 388.719c0 2.778 1.456 5.557 4.372 6.966h31.568c5.83-2.817 5.83-11.112 0-13.93h-31.568c-2.916 1.41-4.372 4.186-4.372 6.964zm9.667-645.545h6.976v-54.612h-6.976zm3.027 264.646 6.973 2.375 4.765-13.96-6.975-2.373zm5.153-651.469h9.911v-5.63h-9.91zm0-16.085h9.911v-5.63h-9.91zm0-16.086h9.911v-5.63h-9.91zm-.11 413.586h6.802v-18.985h7.17v-9.562h-13.972zm.216-29.665h13.755v-10.223h-13.755zm5.667-261.84h6.714v-17.592h-6.714zm3.277 286.489h5.728v-9.587h-5.728zm14.486-286.49h7.434v-17.59h-7.434zm12.208 594.869h11.06v-9.945h-11.06zm3.9-725.266h8.882v-.618h8.867v1.238h11.154v-6.185h-20.021v.618h-8.882zm.419 84.209h14.04v-6.868h-14.04zm0-26.812h14.04v-6.868h-14.04zm27.25 26.812h14.04v-6.868h-14.04zm0-26.812h14.04v-6.868h-14.04zm3.99 849.689c0 3.087 1.615 6.177 4.847 7.744h35.068c6.478-3.134 6.478-12.351 0-15.485h-35.069c-3.231 1.567-4.847 4.653-4.847 7.74zm2.187 23.057c0 2.78 1.46 5.56 4.375 6.97h31.568c5.83-2.818 5.83-11.115 0-13.947h-31.568c-2.915 1.416-4.375 4.198-4.375 6.977zm2.89 67.907c2.836 5.823 11.144 5.823 13.965 0v-31.526c-2.821-5.822-11.13-5.822-13.965 0zm0-255.345c2.836 5.822 11.144 5.822 13.965 0v-31.512c-2.821-5.822-11.13-5.822-13.965 0zm4.982-612.308h7.434v-17.59h-7.434zm8.983 1016.588 4.96 6.402 8.345-6.45-4.963-6.399zm5.567 131.852c-.033 3.307 2.023 6.588 5.733 7.595l31.02-5.848c5.197-3.868 3.659-12.02-2.603-13.703l-31.01 5.852c-2.116 1.565-3.117 3.841-3.14 6.104zm2.61-73.483c.69 6.44 8.505 9.243 13.14 4.714l10.668-29.659c-.677-6.44-8.492-9.243-13.127-4.714zm.401-212.248c2.822 5.822 11.13 5.822 13.965 0v-31.526c-2.835-5.823-11.143-5.823-13.965 0zm0-258.625c2.822 5.822 11.13 5.822 13.965 0v-31.526c-2.835-5.822-11.143-5.822-13.965 0zm2.205 111.027c2.821 5.822 11.126 5.822 13.948 0v-31.526c-2.822-5.823-11.127-5.823-13.948 0zm.056-715.11h7.433v-17.592h-7.433zm9.486-129.778h8.674v-6.185h-8.674zm6.205 129.777h7.434v-17.59h-7.434zm2.474-46.196h4.544v-10.168h-4.544zm0-25.158h4.544v-10.168h-4.544zm4.794 1067.358 11.59 29.325c4.779 4.37 12.494 1.339 12.983-5.116l-11.586-29.328c-4.78-4.37-12.512-1.321-12.987 5.119zm11.215-996.004h7.434v-17.59h-7.434zm1.44-46.196h4.543v-10.168h-4.543zm0-25.158h4.543v-10.168h-4.543zm13.704 1181.445c.69 6.44 8.508 9.243 13.144 4.714l10.667-29.656c-.677-6.44-8.495-9.245-13.13-4.717zm.404-534.427h15.624v-6.548h-15.624zm.647-575.664h7.434v-17.59h-7.434zm4.538 819.73c0 2.78 1.457 5.557 4.372 6.966h31.569c5.83-2.818 5.83-11.112 0-13.944h-31.569c-2.915 1.416-4.372 4.198-4.372 6.978zm1.515-63.833c-.062 2.415 1.067 4.867 3.476 6.323l29.15 2.659c5.614-2.128 6.32-9.774 1.167-12.88l-29.137-2.658c-2.99 1.13-4.586 3.818-4.656 6.556zm.121-33.815c2.836 5.823 11.144 5.823 13.966 0v-31.526c-2.822-5.822-11.13-5.822-13.966 0zm0-127.688h8.795v-15.297h-8.795zm4.302 302.921c.036 5.155 4.667 9.72 10.426 8.766l29.712-20.974c3.6-6.541-1.93-14.349-9.3-13.127l-29.71 20.974a8.854 8.854 0 0 0-1.128 4.361zm.655-119.851c0 2.78 1.457 5.56 4.372 6.969h31.569c5.83-2.818 5.83-11.115 0-13.947h-31.569c-2.915 1.416-4.372 4.198-4.372 6.978zm1.28-144.496c-.063 2.217.702 4.493 2.474 6.351l34.073 12.767c7.428-.69 10.797-9.647 5.643-15.052l-34.06-12.765c-4.884.453-8.013 4.466-8.13 8.7zm3.798-632.968h7.434v-17.59h-7.434zm.419-63.038h14.04v-6.868h-14.04zm0-26.798h14.04v-6.865h-14.04zm16.006 69.623h3.807v-12.228h-3.807zm0-24.942h3.807v-12.228h-3.807zm0-30.246h3.807v-12.23h-3.807zm20.039 1020.297h11.82v-9.403h-11.82zm0-11.529h8.794v-12.15h-8.794zm11.82-3.838h6.317v-13.879h-6.318zm2.243 8.395h14.024v-6.971h-14.024zm27.25-185.849c0 3.183 1.67 6.364 5.01 7.975h36.132c6.68-3.22 6.68-12.723 0-15.957h-36.132c-3.34 1.617-5.01 4.8-5.01 7.982zm7.288 99.815c0 2.778 1.46 5.558 4.374 6.966h31.569c5.83-2.817 5.83-11.111 0-13.93h-31.569c-2.915 1.41-4.374 4.186-4.374 6.964zm0-48.85c0 2.78 1.46 5.557 4.374 6.966h31.569c5.83-2.818 5.83-11.111 0-13.943h-31.569c-2.915 1.416-4.374 4.197-4.374 6.977zm1.768 117.072h8.25v-10.06h-8.25zm2.075 17.807c0 2.78 1.46 5.561 4.375 6.977h31.568c5.83-2.832 5.83-11.126 0-13.943h-31.568c-2.915 1.408-4.375 4.186-4.375 6.966zm73.686-1107.333h12.703v-7.975h-12.703zm0-64.692 7.732 8.03 6.101-5.857-7.735-8.033zm7.946 91.762h12.702v-7.974h-12.702zm15.1-2.746 8.303 1.28.903-5.835-8.303-1.283zm13.072-92.712h11.159v-8.451h-11.16zm1.8 95.458h12.702v-9.64h-12.703zm22.022-3.999h12.703v-7.974h-12.703zm0-39.59 9.298 2.682 3.405-11.768-9.298-2.684zm0-280.087h11.143v-11.313h-11.143zm.445-32.082 1.83 10.947 9.984-1.665-1.833-10.947zm1.068 261.48h9.677v-12.25h-9.677zm9.63 33.006 1.56 5.91 7.662-2.019-1.56-5.907zm16.698-78.622h76.607v-14.626h-76.607zm0-49.9h118.157v-14.626h-118.157zm0-115.943h118.157v-14.626h-118.157zm0-54.197h118.157v-14.626h-118.157zm5.038 129.182 17.637 2.816 8.238-51.472-17.637-2.814zm2.88 100.014 6.114 1.665 1.99-7.3-6.112-1.665zm16.655 703.318h18.1v-36.648h-18.1zm2.69-807.628 7.058 2.946 3.525-8.427-7.054-2.945zm.808 78.507 7.377 2.007 2.404-8.81-7.378-2.008zm1.023-99.066.216 9.129 7.642-.18-.213-9.128zm13.574 919.317h21.084v-15.847h-21.084zm14.913-891.514h17.862v-52.124h-17.862zm17.865 850.396h11.617v-9.656h-11.617zm2.432 66.506h7.687v8.497h15.362v-8.497h12.163v-2.114h.014v-7.797h-19.847v2.993h-6.947v-14.76h-8.43v14.76zm6.55-394.32h4.513v-21.702h-4.512zm6.29 199.71h10.212v-7.089h-10.212zm1.791 121.307c0 4.991 4.052 9.038 9.05 9.038 5 0 9.051-4.047 9.051-9.038 0-4.992-4.052-9.039-9.05-9.039-4.999 0-9.05 4.047-9.05 9.039zm.745-15.485h7.679v-5.198h-7.679zm1.007-291.917h31.315v-8.51h-31.312zm0-44.251h11.719v2.546h17.04v-6.809h-17.04v.015h-11.716zm.82-438.423 26.556 14.345 4.713-8.702-26.556-14.345zm1.528 358.192h5.153v-12.525h-5.153zm6.174 13.413 5.075 3.479 7.883-11.459-5.077-3.481zm.388 402.986h16.86v-3.712h-16.86zm2.736-23.002h47.448v-18.133h-47.448zm7.183-52.93h29.317v-8.839h-29.317zm5.067-711.772 19.113 10.328 8.193-15.126-19.113-10.327zm4.866 455.792h17.042v-6.809h-17.042zm6.608 420.7h15.36v-9.909h-15.36zm3.613-503.232h10.653v-5.125h-10.653zm6.823 13.73h3.838v-9.738h-3.838zm0-28.867h5.328v-5.127h-5.328zm3.526 440.118h9.762v-5.66h-9.762zm3.7-981.807 2.713 11.035 10.518-2.578-2.713-11.037zm2.69 65.268 6.42 13.286 14.66-7.061-6.417-13.287zm2.04 909.54 6.8 3.046 3.996-8.892-6.802-3.047zm1.936-876.748 13.527 17.17 39.753-31.229-13.527-17.172zm.979 80.29 21.843 1.198 3.267-59.306-21.846-1.202zm6.37-173.13c.002 4.591 3.728 8.313 8.326 8.314 4.599 0 8.327-3.722 8.328-8.314 0-4.594-3.728-8.318-8.328-8.317-4.599 0-8.326 3.724-8.325 8.317zm2.194 189.746 8.643 20.716 14.454-6.011-8.643-20.716zm3.4 379.47h15.663v-26.994h-15.664zm6.379-103.78 10.417 7.146 5.361-7.797-10.417-7.146zm.517 429.093h4.566v-31.484h-4.566zm.014 111.153 6.557 8.974 21.829-15.904-6.554-8.974zm2.32-1136.641 1.833 10.947 9.98-1.665-1.83-10.95zm1.833-31.978h26.133v-17.207h-26.133zm6.433 860.355 7.895 10.869 14.024-10.159-7.898-10.871zm4.664-100.082 5.415 7.873 5.075-3.481-5.415-7.873zm0-204.872h20.373V1356.2h-20.373zm5.556-138.534 2.364 21.496 17.157-1.88-2.362-21.497zm.576 301.671h21.464v-7.994h-21.464zm3.515 35.036h21.463v-7.994h-21.463zm.818-658.679h18.885l.866 2.314 6.191-2.314h19.76v-5.613h-13.17l-12.41-33.112-13.816 5.163 10.473 27.95h-16.78zm1.282 962.571h9.604v-6.127h-9.604zm1.38-9.339 5.53 3.187 4.106-7.104-5.528-3.186zm1.96-351.282h21.464v-7.994h-21.464zm6.796-232.543 22.672 5.517 6.531-26.758-22.672-5.517zm7.096 523.573h56.665v-9.946h-56.665zm0-88.2h48.654v13.804l-1.678.494 7.937 26.868-7.937 26.87 1.678.495v8.022h20v-9.364h-9.788l7.499-25.386-2.157-.637 2.157-.635-8.682-29.39-1.027.304V1713.1h.014v-9.943h-56.664zm2.128-250.875 17.694 12.136 4.532-6.59-17.693-12.136zm0-216.336 26.376 11.768-2.219.106.52 10.822 9.425-.45-.52-10.824-6.613.317 10.032-22.426-26.86-11.983zm.459 786.23 7.003.412.461-7.84-7-.41zm1.08-403.75h24.66v-9.906h-24.66zm0 44.1 5.2 9.145 19.46-11.035-5.2-9.145zm5.316 349.66 3.118 6.266 7.195-3.571-3.118-6.265zm2.61 9.063 1.543 7.699 6.88-1.376-1.544-7.699zm1.447-1034.086 12.548 9.429 5.561-7.377-12.548-9.431zm5.963-156.145 4.845 40.174 19.661-2.364-4.844-40.174zm.529 446.953 9.166 2.232 2.57-10.53-9.166-2.229zm1.765 249.757h5.435v-8.446h-5.435zm3.197 316.1h13.555v-11.601h-13.555zm.346-1059.223h10.119v10.265h15.495v-17.484h-15.492v-3.88h-10.122zm3.484 1230.124 18.882 6.525 3.082-8.895-18.883-6.525zm0-15.165 3.118 6.267 7.195-3.571-3.118-6.267zm2.356-33.079 3.728 7.95 7.957-3.721-3.726-7.95zm2.758-991.34 14.027 50.819 19.99-5.503-14.024-50.816zm.995-95.838 1.83 10.947 9.985-1.665-1.834-10.95zm2.19 1106.131 4.693 5.197 9.635-8.679-4.692-5.197zm3.715-821.136h19.51v-48.915h-19.51zm2.347 838.898 7.594 2.623 2.289-6.613-7.591-2.622zm.799-475.317.725 9.448 15.115-1.16 1.384 18.01 8.35-.64-1.988-25.818-1.324.1-.127-1.64zm.309 445.114h8.786v-8.778h-8.786zm4.515-747.945 11.536 11.175 19.982-20.573-11.536-11.175zm2.149-111.568h9.387v-1.424h1.426v72.745h19.256v-101.87H1756.5v19.727h-9.388zm1.296-12.723h6.643v-10.563h-6.643zm4.895 480.215h7.242v-13.601h-7.242zm3.627 76.827 22.838 2.999 2.055-15.617-4.526-.596 2.817-10.512-7.642-2.041-2.901 10.843 5.122 1.37-15.705-2.063zm.045 355.446 43.022 1.84.678-15.77-43.026-1.838zm3.669-107.303 9.761 10.976 8.41-7.458-9.762-10.976zm17.375-310.954h5.114v-32.31h-5.114zm.605-499.65 21.334 4.835 10.923-48.047-21.337-4.838zm3.196 546.847h9.403v-11.428h-9.403zm2.807-448.158 23.552 1.292 1.63-29.724-23.549-1.288zm3.916 830.346h38.924v-5.784h-38.924zm2.058-769.866h28.698v-24.602h-28.692zm5.311 329.025h13.206v-8.322h-13.206zm0-53.19h13.206v-8.323h-13.206zm0-53.192h13.206v-8.322h-13.206zm7.875-334.172h116.622v-15.855H1803.79Zm0-117.018h116.622v-15.858h-56.74l4.538-9.345-26.786-12.969-4.538 9.347 26.78 12.967h-59.876zm0-56.31h116.622v-12.577H1803.79Zm1.08 646.644h23.412v-15.555h-23.412zm.678 635.335h32.215v-15.399h-32.215zm6.967-390.685h11.893v-10.877h-11.893zm0-13.253h7.675v-7.926h-7.675zm.517-17.265 3.695 6.72 12.674-6.953-3.694-6.72zm3.872 82.833 14.162 15.923 10.02-8.886-14.162-15.924zm4.692-666.627 8.129.738 1.67-18.284-8.126-.742zm9.799-12.838 1.732 9.66 9.028-1.615-1.732-9.66zm11.997-141.833 18.705 4.952 4.454-16.776-18.703-4.953zm1.065 100.775h75.941v-15.856h-75.94zm3.383-138.3 4.456 16.778 18.703-4.953-4.454-16.777zm10.926 811.944h6.193v-5.441h-6.193zm7.442-340.194h16.192v-25.86h-11.505v18.952h-4.693zm4.794-429.28h46.73v-45.243h-46.73zm2.791 868.581h9.014v-9.288h-9.014zm32.204 400.5h7.74v-8.195h-7.74zm10.867-1.81h7.743v-3.622h11.3v-8.424h-11.311v.75h-7.732zm2.075-47.901h30.542v-4.355h-30.542zm8.752-988.134h21.189v-46.284h-21.189zm6.405-343.184h14.784v-27.885h-14.784zm20.098 1245.68h19.062v-6.995h-19.062zm0-89.23h6.607v-17.173h-6.607zm.314-740.538h10.24v-33.16h-10.24zm0-44.838h10.24v-33.163h-10.24zm.821-51.439 3.956 8.53 12.037-5.565-3.956-8.53zm.504-190.625 5.05.82 1.414-8.682-5.05-.82zm1.411-61.356h14.941v-6.208h-14.94zm.217 835.604h6.958v-16.844h-6.958zm0-25.028h6.958v-16.845h-6.958zm0-22.283h6.958v-16.844h-6.958zm0-47.916h5.103v-11.849h-5.103zm.027 385.926h15.762v-7.115h-15.762zm1.498 146.848h7.468v-8.131h-7.468zm.523-63.911 6.94.943 2.572-18.863-6.942-.946zm1.204-348.62h32.943v-9.595h-32.937zm.373-619.75h10.24v-7.864h-10.24zm12.166 871.172h17.061v-5.622h-17.06zm0-40.413h17.061v-7.623h-17.06zm1.454-1071.63h7.046v-6.207h-7.046zm6.03 659.14h9.526v-10.37h-9.525zm9.574 469.306h15.76v-7.115h-15.76zm6.793-130.664h10.864v-7.865h-10.864zm3.658 162.291h5.288v-15.698h-5.288zm0-51.84h5.288v-19.43h-5.288zm.332-343.309 1.583 6.537 14.881-3.597-1.583-6.534zm1.782 520.723h11.767v-9.49h-11.767zm3.11-759.802h32.541v-9.474h-32.541zm0-26.983h32.541v-9.474h-32.541zm0-26.983h32.541v-9.474h-32.541zm0-26.983h32.541v-9.474h-32.541zm0-69.668h32.541v-9.473h-32.541zm0-26.969h32.541v-9.473h-32.541zm0-26.983h32.541v-9.473h-32.541zm0-26.983h32.541v-9.476h-32.541zm3.888 868.035h5.289v-15.699h-5.289zm0-21.75h5.289v-15.698h-5.289zm.517-66.69h4.249v-16.718h-4.249zm3.17 47.44h20.988v-5.307h-20.989zm2.805-81.525h9.138v-5.458h-9.138zm.203 245.094 8.198 4.796 4.8-8.182v3.386h19.908v-9.487h-19.902v6.093l-8.195-4.793zm2.198-654.391 3.315 6.38 10.538-5.46-3.312-6.381zm1.21 191.948 6.623 1.19 2.714-15.05-6.625-1.19zm.348 176.164 3.728 10.26 8.96-3.246-3.728-10.262zm.762 215.006h32.021v-7.685h-32.021zm.202-554.484h11.874v-7.188h-11.867zm6.815 372.344 1.651 9.44 6.447-1.123-1.65-9.44zm1.204-354.116h24.663v-7.35h-24.663zm7.757 328.262h11.404v-10.914h-11.404zm.203 115.698h18.272v-5.307h-18.272zm5.499-9.934h4.248v-16.718h-4.248zm1.929-395.57h7.886v-7.35h-7.886zm2.316 339.532h17.061v-7.623h-17.06zm2.39-15.553h11.404v-10.916H2049.4zm1.887 282.272h19.003v-8.7h-19.003zm0-210.68h4.248v-16.719h-4.248zm5.916 16.374h8.566v-9.097h-8.566zm4.664-267.767h15.312v-8.342h-15.312zm2.204 336.34h8.488v-7.683h-8.488zm0-197.381h18.683v3.162h11.404v-10.914h-11.404v2.639h-18.683zm.776-325.243h24.663v-3.706h-24.663zm4.836-91.905h32.541v-7.865h-32.54zm2.88 740.262h11.777v-4.352h-11.778zm2.91-108.451h5.004v-24.97h-5.005zm0-42.584h32.824v-5.873h-32.825zm0 106.315.553 8.292 8.303-.556-.554-8.292zm7.276-144.282h18.272v-5.306h-18.272zm2.78-350.457h22.023v-9.594h-22.023zm8.75-256.771h32.541v-9.474h-32.541zm0-26.983h32.541v-9.474h-32.541zm0-26.983h32.541v-9.474h-32.541zm0-26.983h32.541v-9.474h-32.541zm0-69.668h32.541v-9.473h-32.541zm0-26.969h32.541v-9.473h-32.541zm0-26.983h32.541v-9.473h-32.541zm0-26.983h32.541v-9.476h-32.541zm6.09 563.379h7.175v-35.679h-7.175zm1.858-41.23h5.32v-18.071h-5.32zm0-61.37h5.32v-11.85h-5.32zm0-14.694h5.32v-11.849h-5.32zm2.82-648.702h19.783v-13.085h-19.783zm3.515 148.648h32.538v-7.864h-32.538zm.75-257.251 5.626 27.999 7.968-1.598-5.626-28zm4.732 757.305h12.523v-8.923h-12.523zm.59 546.79h9.051v-8.698h-9.05zm.951-511.639 4.032.573 3.562-24.91-4.032-.576zm1.54 423.632h4.072v-24.967h-4.071zm2.03-251.64h5.34v-8.922h-5.34zm8.84-736.41h22.949v-7.861h-10.83v-9.457h-5.28v9.457h-6.839zm14.379-20.645 2.117 9.218 5.148-1.18-2.117-9.217zm6.897 913.535 15.936 11.347 2.361-3.31-15.933-11.347zm6.188-502.452h14.969v-14.042h-14.97zm1.499-662.07h9.576V985.55h-9.576zm1.287 2.973 2.238 9.577 7.071-1.65-2.24-9.575zm1.03 110.97h8.128v-14.46h-8.129zm2.462 73.778h4.634v-12.028h-4.634zm.835 733.37 7.038 18.236 3.8-1.462-7.04-18.237zm0-29.738 3.765 1.547 7.44-18.08-3.768-1.544zm.374-219.562h7.482v-6.683h-7.482zm.374-587.347h4.074v-14.463h-4.074zm4.246 1133.216h4.07v-19.545h-4.07z" fill="#444"/><path d="M1643.521 1986.46a40.88 40.824 0 0 0 40.88 40.825 40.88 40.824 0 0 0 40.878-40.825 40.88 40.824 0 0 0-40.878-40.823 40.88 40.824 0 0 0-40.88 40.823z" stroke="#000" stroke-width="1.439"/><path d="M1027.621 1980.357v11.12H989.82v50.69H829.203v-51.049h47.175v-117.926h6.91v107.165Zm19.516 11.12v-112.525h-11.973v-3.522h-8.174v11.874h14.414v104.173Zm519.092 288.498v-4.914m0 27.053v8.438h50.096m-60.979 12.076v-20.514h10.883v-13.686m50.096 0v34.2h-67.386m17.29 40.641v-22.93h12.884m429.024-289.647v15.483M1836.89 2362.55v-23.404h-16.626m290.923-32.518.884 28.6h17.053v21.04m0 31.023v-19.422m42.355-11.601v-26.216m0 58.123v-20.306m-163.342-227.557v-43.847m47.925 115.396v-34.7m17.271 57.27h-17.27v-12.895m55.124-44.375h-159.206m56.156 48.89v-76.725m0 127.644v-35.451m65.196 5.16v30.291m37.854-50.92h-37.854v12.249M1951.981 2159h-18.728m-144.985 21.276v-21.276h128.214m-76.828 161.169v-3.867m-51.386 0v3.867h66.415m-15.029-27.846v13.01m9.4-30.937v17.927h-9.4v-10.193h-51.386m67.523-31.584v23.85m-67.523-39.966h67.523v7.088m-67.523 63.815v-96.046m163.713 65.109h-163.713m299.921 2.573h-136.208m159.206 0h-13.972m-242.532 116.747v-3.306m0-29.334v9.179m56.386-9.18v-40.906m40.912 34.387v6.52h-97.298v-40.907h97.298m159.206-187.592v-23.865h-159.206v233.697m159.206-56.412V2155.78M1810.82 2092.7h51.478v-23.534h-51.478m22.327-82.993v48.304h-113.492v-16.72m6.204-31.584h93.642m-91.785-14.246 12.409-9.287 14.885-1.855 6.204-18.588h32.245m0-16.719h-32.245v-30.966l-18.613-6.196m0 0h-84.961m84.96 0h88.071m0-16.72h-19.85m-153.181 0h34.116m0 0v-16.1h48.369m-48.369 16.1h119.064m-30.388-10.522 11.17-5.578h19.218m0 0v16.1m0-16.1v-14.865l14.885-8.05h17.98m-50.226-5.578h50.226v-23.534h-50.226m-86.818-14.247h39.07m0-17.955v-41.49m0-14.864h-39.07m-33.498 0h-37.212m0 74.31h37.212m-170.541 136.255v-56.972m113.493-41.504h-51.478v-23.533h51.478m0-105.275h-51.478v-24.166h51.478m-113.493-14.865v-58.827m58.3 35.926 9.3 16.1h47.75l13.949-13.944m-12.092-38.082h-45.26m0-21.679v-17.337m0-11.156v-4.945m50.226-73.706v-8.669h-50.225v82.375m50.225-60.696v60.696h-18.599m-11.79 0h-19.836m132.091 23.533h-33.498l-11.156-11.156v-32.202l11.156-11.141h31.008l11.17 11.141v27.257m-42.178 83.61-1.482-17.768-10.826-9.819m79.29 19.724h-48.369v16.906h48.369m53.334 52.89h50.226v-24.166h-50.226m32.246-79.873v14.52h-41.76v-39.923c13.92-.46 41.76-1.107 41.76 0v16.058m0-43.588v16.374h-41.76v-23.044m0-20.3h41.76V1531m-41.76-16.748v20.299m0-20.3v-10.393m41.76-15.57v15.57h-41.76m0 0v-39.577m41.76 13.786v-15.224h-41.76v1.438m-38.235 36.026v-36.026h38.234m-25.379 12.004v58.266h25.38m26.731-90.296h50.773v-24.9h-50.773m-84.63 63.155v-16.015l-28.056-17.338h-31.18m-68.58-5.793h-51.219v-23.562h51.219m354.874 627.425h-65.672a4.32 4.32 0 0 1-4.318-4.312v-140.166l-16.67-21.737v-67.71l24.472-24.454h61.828m0-70.428h-61.828l-24.472-24.44v-68.271l16.67-20.27v-140.54a4.32 4.32 0 0 1 4.318-4.313h65.672m0 0v-347.209m0 347.21v184.716m9.241 78.81h-9.241v-78.81m71.127 176.15h-10.293m0 0h-61.194v-35.136h16.454m44.74 35.135v-11.472m0-12.68v-10.983m0 0h-22.37m22.37 0h36.896m22.974 0h-22.974m0 10.984v-10.984m0 23.663v11.472m0 0h61.684m-61.684 0h-9.07m70.754 0v104.025m0-104.025v-35.135h-15.72m-409.605 271.779a6475.795 6475.795 0 0 0-23.78-17.338c-8.681-6.282-30.562-19.594-34.722-42.222-4.146-22.614 4.16-34.675 11.329-49.755 5.729-12.062 12.452-24.87 15.1-29.773m13.575 7.533c-4.39 8.625-19.119 38.55-22.444 45.25m50.76 74.243-30.95-22.987m-209.913-219.579v10.854m0 70.284v-70.284m-36.075 0h36.075m-36.075-117.423h36.075m0 0v10.681m0-10.681v-70.716m-81.506 8.885v-67.596m0 161.902v54.255m0 90.296v68.056m-65.47 27.127h52.11l.001-16.892h-52.111m-3.57 24.454h17.375m29.395 0h17.807m-4.218 51.639h39.314m-58.661 0h-64.707v3.018m0 10.869v-10.869m0 37.436v13.901h52.6m29.036-22.958h24.789v-13.888m-106.425-14.49h-171.146m0 0v10.868m0-10.869v-3.018h-20.57m20.57 41.204v13.901h-52.615m0-55.105h-27.819m-40.508 0h13.9m139.69-51.337h-35.671v-54.356m0-62.205v-71.261m0-76.093v-70.054m0-59.186v-55.563h35.672m34.476 0h17.534m110.182 0h17.375m29.395 0h17.807m-61.007 9.66h52.11v15.7h-52.11m0 175.76h26.545v50.719h-26.545m-399.19 95.715h-26.694m-6.91 0h-7.8m-17.86 0h-9.072m85.27 0h100.074m-54.718-18.114h62.289v17.736m-62.289-95.035h26.004v-50.13h-26.004m0-80.318h62.289v-15.713H923.892m-17.156 0H882.77m0-39.924h16.962m12.066 0h88.897v-48.244m0-13.887v-3.925m0 0h4.839m-4.839 0H968.04m9.675-32.317h-9.675m31.446 0h5.745m5.746 0h-5.746m20.259 0h24.797m57.452 0h-57.452m78.613 0h128.205m-234.034-19.925v-25.374h11.49m-29.33 45.299v-63.413m0-41.676v41.676m0 0h45.056m0 0v63.413m0-63.413v-41.676m88.891-44.077h-88.89v44.077m111.275-44.077h88.287m-199.563 44.077h-24.797v25.374h9.072m-87.085 741.629v7.245m0-25.36v-23.275m38.1-40.755v-33.538m18.143-13.86v31.096h26.608v-31.095m-26.608 0h26.608m-9.07-48.066v-77.854h-39.31v33.813m-19.351 0v-33.813h-64.103v33.813m415.919-440.265h-32.735V1389.74h35.887m11.948 0h124.65m0 106.196h-124.65m5.039-189.792h30.849m24.544 37.708v-37.708H1365.4m24.544 37.708H1365.4v-37.708m24.544 37.708h59.18v-17.596m0-23.893v-32.691m0-23.878v-73.562m-47.217 109.937h-38.756m-28.6-69.7v8.8m0-19.48v-7.548m-51.504 22.211v4.816m0-14.994v-19.91m-125.228 81.482h23.191m12.05 0h25.493v-81.483h-25.494m-12.049 0h-23.19m-39.4 0h25.033m-25.034 81.483h25.034m-36.622 0h-25.033v-81.483h25.033m-91.41 41.778v-8.798m0 13.31v26.845m-51.386-22.675v7.878m0-18.99v-7.404m553.696 18.343h107.044v-12.794m0-256.928v241.56m-30.389 15.368h30.389m0 0v-15.368m-30.389 0h30.389m154.49-241.56v241.56m103.849 28.162h-103.848v-12.794m31.41 0h-31.41m0 0v-15.368m31.41 0h-31.41m173.838-140.842v-11.098m44.121 0v46.952h15.389m88.1 133.15h23.867v38.413h28.2v-22.182m-12.826 116.072v-32.433h-61.54v118.645h14.54m11.962 0h35.038v-75.962m-88.891-10.25v-32.433h-61.54v118.645h14.54m11.962 0h35.038v-75.962m88.891 139.13v-32.432h-61.54v118.645h14.54m11.962 0h35.038v-75.962m-88.891-10.25v-32.433h-61.54v118.645h14.54m11.962 0h35.038v-75.962m-47-236.803v19.984h35.901m0 327.773h-35.902v-17.065h35.902m79.477 22.83h-6.924v38.628m0 14.26v25.92h-122.994m-5.974 0h5.974m0 0v-12.018m0-11.946v-54.845h-5.974m-21.205 0h-9.241m116.775 59.963v-23.893h16.237m85.357 28.162v5.118m51.684-9.387v9.387m0-18.717v-9.489m-51.684 13.7v-26.336m-28.409 3.163v-31.67m-4.98 0h30.302m2.733 144.981v-3.968m0 15.253v6.786m0 27.084v-27.084m0 37.018v3.163m52.126-7.677v7.677m0-17.165v-9.92m-26.808-13.096h-25.318m-993.981 168.616h19.304m-10.523-7.864h-50.887v-16.892h50.887m0-398.603h-50.887v-15.698h50.887m-268.673 594.677v16.604h-15.684v-16.604zm1034.735 187.578h159.537" stroke="#000" paint-order="stroke fill markers"/><path d="M1257.248 1338.534h-7.543v157.56h7.543zM1656.085 965.65h-16.396v-9.82h16.396zM1765.605 965.65h-17.059v-9.82h17.059z" fill="#000"/></svg>